SplineFontDB: 3.0
FontName: Jinko-Bold
FullName: Jinko Bold
FamilyName: Jinko
Weight: Bold
Version: 0.1
FONDName: Kinjo
ItalicAngle: 0
UnderlinePosition: -205
UnderlineWidth: 102
Ascent: 1638
Descent: 410
UFOAscent: 1521
UFODescent: -414
LayerCount: 2
Layer: 0 0 "Back"  1
Layer: 1 0 "Fore"  0
NeedsXUIDChange: 1
FSType: 0
OS2Version: 0
OS2_WeightWidthSlopeOnly: 0
OS2_UseTypoMetrics: 0
CreationTime: 1336299775
ModificationTime: 1336300141
PfmFamily: 0
TTFWeight: 700
TTFWidth: 5
LineGap: 0
VLineGap: 0
OS2TypoAscent: 1901
OS2TypoAOffset: 0
OS2TypoDescent: -483
OS2TypoDOffset: 0
OS2TypoLinegap: 0
OS2WinAscent: 1901
OS2WinAOffset: 0
OS2WinDescent: 483
OS2WinDOffset: 0
HheadAscent: 0
HheadAOffset: 1
HheadDescent: 0
HheadDOffset: 1
OS2Vendor: 'newt'
OS2CodePages: 00000001.00000000
Lookup: 258 0 0 "'kern' Horizontal Kerning lookup 0"  {"'kern' Horizontal Kerning lookup 0 subtable"  } ['kern' ('DFLT' <'dflt' > ) ]
Lookup: 258 0 0 "'kern' Horizontal Kerning in Latin lookup 0"  {"'kern' Horizontal Kerning in Latin lookup 0 subtable"  } ['kern' ('latn' <'dflt' > ) ]
Lookup: 258 0 0 "kernHorizontalKerninglookup0"  {"kernHorizontalKerninglookup0 subtable"  } ['kern' ('DFLT' <'dflt' > ) ]
Lookup: 258 0 0 "kernHorizontalKerninginLatinloo"  {"kernHorizontalKerninginLatinloo subtable"  } ['kern' ('latn' <'dflt' > ) ]
Lookup: 258 0 0 "pos_pair_kern_0"  {"pos_pair_kern_0 subtable"  } ['kern' ('DFLT' <'dflt' > ) ]
Lookup: 258 0 0 "pos_pair_kernlatn_0"  {"pos_pair_kernlatn_0 subtable"  } ['kern' ('latn' <'dflt' > ) ]
DEI: 91125
LangName: 1033 "" "" "" "newt: Jinko Bold: " "" "Version 0.1" "" "" "" "" "" "" "" "" "" "" "" "" "Jinko Bold" 
PickledData: "(dp1
S'com.typemytype.robofont.segmentType'
p2
S'curve'
p3
sS'com.typemytype.robofont.sort'
p4
((dp5
S'type'
p6
S'characterSet'
p7
sS'ascending'
p8
S'Latin-1'
p9
stp10
sS'org.robofab.glyphOrder'
p11
(S'.notdef'
S'space'
S'exclam'
S'quotedbl'
S'numbersign'
S'dollar'
S'percent'
S'ampersand'
S'quoteright'
S'parenleft'
S'parenright'
S'asterisk'

StartChar: A
Encoding: 65 65 0
Width: 1490
VWidth: 0
GlyphClass: 1
Flags: HW
PickledData: "(dp1
S'com.fontlab.hintData'
p2
(dp3
S'hhints'
p4
((dp5
S'position'
p6
I0
sS'width'
p7
I21
s(dp8
g6
I282
sg7
I271
s(dp9
g6
I1459
sg7
I20
stp10
ss."
HStem: 0 22<-14 -14 -14 399 1084 1084 1084 1505> 299 287<582 902 582 991 493 902> 1547 21<540 949 949 949>
LayerCount: 2
Fore
SplineSet
-14 0 m 1
 540 1568 l 1
 949 1568 l 1
 1505 0 l 1
 1084 0 l 1
 991 299 l 1
 493 299 l 1
 399 0 l 1
 -14 0 l 1
902 586 m 1
 741 1092 l 1
 740 1092 l 1
 582 586 l 1
 902 586 l 1
EndSplineSet
EndChar

StartChar: AE
Encoding: 198 198 1
Width: 2177
VWidth: 0
GlyphClass: 1
Flags: HW
PickledData: "(dp1
S'com.fontlab.hintData'
p2
(dp3
S'vhints'
p4
((dp5
S'position'
p6
I928
sS'width'
p7
I384
stp8
sS'hhints'
p9
((dp10
g6
I0
sg7
I286
s(dp11
g6
I337
sg7
I280
s(dp12
g6
I635
sg7
I282
s(dp13
g6
I1193
sg7
I286
stp14
ss."
HStem: 0 303<1391 2089 1391 2089> 357 297<656 984 656 984 535 984> 673 299<1391 2000 1391 2000> 1265 303<1391 2090 1391 1391>
VStem: 984 407<303 357 357 357 654 673 972 1265>
LayerCount: 2
Fore
SplineSet
2089 0 m 1
 984 0 l 1
 984 357 l 1
 535 357 l 1
 389 0 l 1
 -32 0 l 1
 652 1568 l 1
 2090 1568 l 1
 2090 1265 l 1
 1391 1265 l 1
 1391 972 l 1
 2000 972 l 1
 2000 673 l 1
 1391 673 l 1
 1391 303 l 1
 2089 303 l 1
 2089 0 l 1
984 654 m 1
 984 1280 l 1
 922 1280 l 1
 656 654 l 1
 984 654 l 1
EndSplineSet
EndChar

StartChar: B
Encoding: 66 66 8
Width: 1492
VWidth: 0
GlyphClass: 1
Flags: HW
PickledData: "(dp1
S'com.fontlab.hintData'
p2
(dp3
S'vhints'
p4
((dp5
S'position'
p6
I147
sS'width'
p7
I383
s(dp8
g6
I891
sg7
I356
s(dp9
g6
I954
sg7
I394
stp10
sS'hhints'
p11
((dp12
g6
I0
sg7
I277
s(dp13
g6
I627
sg7
I257
s(dp14
g6
I1206
sg7
I273
stp15
ss."
HStem: 0 294<562 758 758 796> 665 272<562 614 614 633 562 614> 1278 289<562 589 589 626 562 562>
VStem: 156 406<294 665 294 937 937 1278> 944 377<1078 1183> 1011 418<415 564 296 569>
LayerCount: 2
Fore
SplineSet
1429 467 m 0
 1429 125 1153 0 796 0 c 2
 156 0 l 1
 156 1568 l 1
 589 1568 l 2
 1048 1568 1322 1504 1322 1143 c 0
 1322 1015 1262 896 1126 840 c 1
 1126 832 l 1
 1310 793 1429 660 1429 467 c 0
1011 481 m 0
 1011 656 829 665 633 665 c 2
 562 665 l 1
 562 294 l 1
 758 294 l 2
 901 294 1011 349 1011 481 c 0
944 1111 m 0
 944 1255 846 1278 626 1278 c 2
 562 1278 l 1
 562 937 l 1
 614 937 l 2
 848 937 944 960 944 1111 c 0
EndSplineSet
EndChar

StartChar: C
Encoding: 67 67 9
Width: 1405
VWidth: 0
GlyphClass: 1
Flags: HW
PickledData: "(dp1
S'com.fontlab.hintData'
p2
(dp3
S'vhints'
p4
((dp5
S'position'
p6
I70
sS'width'
p7
I394
stp8
sS'hhints'
p9
((dp10
g6
I-26
sg7
I286
s(dp11
g6
I1096
sg7
I21
s(dp12
g6
I1213
sg7
I286
stp13
ss."
HStem: -28 303<766 968> 1162 22<1288 1288> 1286 303<768 974 603 1021>
VStem: 74 418<616 942 616 1045>
LayerCount: 2
Fore
SplineSet
916 276 m 0
 1117 276 1300 400 1300 400 c 1
 1370 109 l 1
 1212 19 1071 -28 866 -28 c 0
 336 -28 74 268 74 784 c 0
 74 1304 331 1589 873 1589 c 0
 1073 1589 1223 1545 1368 1471 c 1
 1288 1162 l 1
 1288 1162 1131 1286 911 1286 c 0
 627 1286 492 1103 492 781 c 0
 492 451 617 276 916 276 c 0
EndSplineSet
EndChar

StartChar: D
Encoding: 68 68 11
Width: 1603
VWidth: 0
GlyphClass: 1
Flags: HW
PickledData: "(dp1
S'com.fontlab.hintData'
p2
(dp3
S'vhints'
p4
((dp5
S'position'
p6
I147
sS'width'
p7
I385
s(dp8
g6
I1054
sg7
I392
stp9
sS'hhints'
p10
((dp11
g6
I0
sg7
I283
s(dp12
g6
I1198
sg7
I282
stp13
ss."
HStem: 0 300<564 644> 1270 299<564 638 638 752 564 564>
VStem: 156 408<300 1270 300 1569 300 1569> 1117 416<602 948>
LayerCount: 2
Fore
SplineSet
1533 782 m 0
 1533 193 1191 0 644 0 c 2
 156 0 l 1
 156 1569 l 1
 638 1569 l 2
 1194 1569 1533 1367 1533 782 c 0
1117 781 m 0
 1117 1115 989 1270 752 1270 c 2
 564 1270 l 1
 564 300 l 1
 684 300 l 2
 989 300 1117 422 1117 781 c 0
EndSplineSet
EndChar

StartChar: Delta
Encoding: 8710 8710 12
Width: 1233
VWidth: 0
GlyphClass: 1
Flags: HW
PickledData: "(dp1
S'com.fontlab.hintData'
p2
(dp3
S'hhints'
p4
((dp5
S'position'
p6
I0
sS'width'
p7
I168
stp8
ss."
HStem: 0 178<269 957 269 1177>
LayerCount: 2
Fore
SplineSet
269 178 m 1
 957 178 l 1
 732 881 l 1
 702 1003 639 1176 620 1276 c 1
 614 1276 l 1
 596 1189 540 1033 509 909 c 1
 269 178 l 1
56 0 m 1
 56 135 l 1
 500 1548 l 1
 745 1548 l 1
 1177 139 l 1
 1177 0 l 1
 56 0 l 1
EndSplineSet
EndChar

StartChar: E
Encoding: 69 69 13
Width: 1338
VWidth: 0
GlyphClass: 1
Flags: HW
PickledData: "(dp1
S'com.fontlab.hintData'
p2
(dp3
S'vhints'
p4
((dp5
S'position'
p6
I147
sS'width'
p7
I383
stp8
sS'hhints'
p9
((dp10
g6
I0
sg7
I286
s(dp11
g6
I635
sg7
I282
s(dp12
g6
I1193
sg7
I286
stp13
ss."
HStem: 0 303<562 1251 562 1251> 673 299<562 1161 562 1161> 1265 303<562 1252 562 562>
VStem: 156 406<303 673 972 1265>
LayerCount: 2
Fore
SplineSet
1251 0 m 1
 156 0 l 1
 156 1568 l 1
 1252 1568 l 1
 1252 1265 l 1
 562 1265 l 1
 562 972 l 1
 1161 972 l 1
 1161 673 l 1
 562 673 l 1
 562 303 l 1
 1251 303 l 1
 1251 0 l 1
EndSplineSet
EndChar

StartChar: Eth
Encoding: 208 208 18
Width: 1368
VWidth: 0
GlyphClass: 1
Flags: HW
PickledData: "(dp1
S'com.fontlab.hintData'
p2
(dp3
S'vhints'
p4
((dp5
S'position'
p6
I147
sS'width'
p7
I385
s(dp8
g6
I1054
sg7
I392
stp9
sS'hhints'
p10
((dp11
g6
I0
sg7
I283
s(dp12
g6
I637
sg7
I197
s(dp13
g6
I1198
sg7
I282
stp14
ss."
HStem: 0 300 675 209<0 746 0 746> 1270 299
VStem: 156 408 1117 416
LayerCount: 2
Fore
SplineSet
746 675 m 1
 0 675 l 1
 0 884 l 1
 746 884 l 1
 746 675 l 1
EndSplineSet
Refer: 11 68 N 1 0 0 1 0 0 2
EndChar

StartChar: Euro
Encoding: 8364 8364 19
Width: 1320
VWidth: 0
GlyphClass: 1
Flags: HW
PickledData: "(dp1
S'com.fontlab.hintData'
p2
(dp3
S'hhints'
p4
((dp5
S'position'
p6
I-24
sS'width'
p7
I21
s(dp8
g6
I468
sg7
I197
s(dp9
g6
I789
sg7
I196
s(dp10
g6
I1096
sg7
I21
s(dp11
g6
I1225
sg7
I277
stp12
ss."
HStem: -25 22<644 830> 496 209<19 98 19 130 -26 98 563 563 563 994> 836 208<19 94 -26 123 552 1065> 1162 22<1248 1248> 1298 294<797 888 625 918>
LayerCount: 2
Fore
SplineSet
1248 64 m 1
 1129 13 991 -14 830 -25 c 1
 458 -25 218 135 130 496 c 1
 -26 496 l 1
 19 705 l 1
 98 705 l 1
 95 730 94 758 94 784 c 2
 94 836 l 1
 -26 836 l 1
 19 1044 l 1
 123 1044 l 1
 198 1391 439 1592 812 1592 c 0
 964 1592 1117 1553 1248 1500 c 1
 1248 1162 l 1
 1220 1177 1182 1189 1128 1189 c 1
 1028 1263 951 1298 886 1298 c 0
 708 1298 607 1216 552 1044 c 1
 1109 1044 l 1
 1065 836 l 1
 509 836 l 1
 509 784 l 2
 509 756 509 731 512 705 c 1
 1039 705 l 1
 994 496 l 1
 563 496 l 1
 620 349 713 279 862 269 c 1
 922 267 1018 304 1128 377 c 1
 1182 377 1219 389 1248 404 c 1
 1248 64 l 1
EndSplineSet
EndChar

StartChar: F
Encoding: 70 70 20
Width: 1285
VWidth: 0
GlyphClass: 1
Flags: HW
PickledData: "(dp1
S'com.fontlab.hintData'
p2
(dp3
S'vhints'
p4
((dp5
S'position'
p6
I147
sS'width'
p7
I383
stp8
sS'hhints'
p9
((dp10
g6
I0
sg7
I21
s(dp11
g6
I616
sg7
I280
s(dp12
g6
I1193
sg7
I286
stp13
ss."
HStem: 0 22<156 562 156 156> 653 297<562 1189 562 1189> 1265 303<562 1250 562 562>
VStem: 156 406<0 653 950 1265>
LayerCount: 2
Fore
SplineSet
1250 1265 m 1
 562 1265 l 1
 562 950 l 1
 1189 950 l 1
 1189 653 l 1
 562 653 l 1
 562 0 l 1
 156 0 l 1
 156 1568 l 1
 1250 1568 l 1
 1250 1265 l 1
EndSplineSet
EndChar

StartChar: G
Encoding: 71 71 21
Width: 1560
VWidth: 0
GlyphClass: 1
Flags: HW
PickledData: "(dp1
S'com.fontlab.hintData'
p2
(dp3
S'vhints'
p4
((dp5
S'position'
p6
I70
sS'width'
p7
I394
s(dp8
g6
I980
sg7
I373
stp9
sS'hhints'
p10
((dp11
g6
I-23
sg7
I285
s(dp12
g6
I549
sg7
I282
s(dp13
g6
I1210
sg7
I293
stp14
ss."
HStem: -24 302<742 908 742 979> 582 299<749 1039 749 1434> 1283 311<771 999 600 1043>
VStem: 74 418<625 951 625 1047> 1039 395<306 582 582 582>
LayerCount: 2
Fore
SplineSet
492 790 m 0
 492 461 608 278 877 278 c 0
 941 278 1016 290 1039 306 c 1
 1039 582 l 1
 749 582 l 1
 749 881 l 1
 1434 881 l 1
 1434 149 l 1
 1354 57 1100 -24 859 -24 c 0
 342 -24 74 285 74 785 c 0
 74 1308 344 1593 855 1593 c 0
 1142 1593 1271 1529 1429 1434 c 1
 1349 1140 l 2
 1350 1142 1157 1283 929 1283 c 0
 614 1283 492 1112 492 790 c 0
EndSplineSet
EndChar

StartChar: H
Encoding: 72 72 22
Width: 1643
VWidth: 0
GlyphClass: 1
Flags: HW
PickledData: "(dp1
S'com.fontlab.hintData'
p2
(dp3
S'vhints'
p4
((dp5
S'position'
p6
I146
sS'width'
p7
I385
s(dp8
g6
I1018
sg7
I385
stp9
sS'hhints'
p10
((dp11
g6
I0
sg7
I21
s(dp12
g6
I635
sg7
I281
s(dp13
g6
I1459
sg7
I20
stp14
ss."
HStem: 0 26<187 676 187 187 1298 1789 1298 1298> 809 358<676 1298 676 1298> 1859 24<187 676 676 676 1298 1789 1789 1789>
VStem: 187 491 1297 491
LayerCount: 2
Fore
SplineSet
1488 0 m 1
 1080 0 l 1
 1080 673 l 1
 563 673 l 1
 563 0 l 1
 155 0 l 1
 155 1568 l 1
 563 1568 l 1
 563 971 l 1
 1080 971 l 1
 1080 1568 l 1
 1488 1568 l 1
 1488 0 l 1
EndSplineSet
EndChar

StartChar: I
Encoding: 73 73 23
Width: 962
VWidth: 0
GlyphClass: 1
Flags: HW
PickledData: "(dp1
S'com.fontlab.hintData'
p2
(dp3
S'vhints'
p4
((dp5
S'position'
p6
I109
sS'width'
p7
I690
stp8
sS'hhints'
p9
((dp10
g6
I0
sg7
I256
s(dp11
g6
I1222
sg7
I257
stp12
ss."
HStem: 0 271<116 278 685 847 116 278> 1295 272<116 278 116 847 685 685 685 847>
VStem: 116 731<0 271 0 271 1295 1568>
LayerCount: 2
Fore
SplineSet
847 0 m 1
 116 0 l 1
 116 271 l 1
 278 271 l 1
 278 1295 l 1
 116 1295 l 1
 116 1568 l 1
 847 1568 l 1
 847 1295 l 1
 685 1295 l 1
 685 271 l 1
 847 271 l 1
 847 0 l 1
EndSplineSet
EndChar

StartChar: J
Encoding: 74 74 28
Width: 1147
VWidth: 0
GlyphClass: 1
Flags: HW
PickledData: "(dp1
S'com.fontlab.hintData'
p2
(dp3
S'vhints'
p4
((dp5
S'position'
p6
I571
sS'width'
p7
I385
stp8
sS'hhints'
p9
((dp10
g6
I-20
sg7
I298
s(dp11
g6
I1172
sg7
I307
stp12
ss."
HStem: -21 316 1242 325<344 605 344 1013>
VStem: 605 408<642 1242 1242 1242>
LayerCount: 2
Fore
SplineSet
1013 480 m 2
 1013 166 759 -21 406 -21 c 0
 215 -21 84 17 -6 71 c 1
 63 359 l 1
 159 318 250 294 330 294 c 0
 492 294 605 391 605 642 c 2
 605 1242 l 1
 344 1242 l 1
 344 1568 l 1
 1013 1568 l 1
 1013 480 l 2
EndSplineSet
EndChar

StartChar: K
Encoding: 75 75 29
Width: 1526
VWidth: 0
GlyphClass: 1
Flags: HW
PickledData: "(dp1
S'com.fontlab.hintData'
p2
(dp3
S'vhints'
p4
((dp5
S'position'
p6
I146
sS'width'
p7
I385
s(dp8
g6
I1005
sg7
I443
s(dp9
g6
I1020
sg7
I457
stp10
sS'hhints'
p11
((dp12
g6
I0
sg7
I21
s(dp13
g6
I1459
sg7
I20
stp14
ss."
HStem: 0 22<155 563 155 155 1081 1566 1081 1081> 1547 21<155 563 563 563 1065 1535 1535 1535>
VStem: 155 408<0 506 0 865 865 1568> 1065 470<1568 1568> 1081 484<0 0>
LayerCount: 2
Fore
SplineSet
1566 0 m 1
 1081 0 l 1
 977 179 872 357 767 535 c 1
 692 665 l 1
 563 506 l 1
 563 0 l 1
 155 0 l 1
 155 1568 l 1
 563 1568 l 1
 563 865 l 1
 564 865 l 1
 709 1065 l 1
 827 1232 946 1401 1065 1568 c 1
 1535 1568 l 1
 1013 882 l 1
 1566 0 l 1
EndSplineSet
EndChar

StartChar: L
Encoding: 76 76 30
Width: 1294
VWidth: 0
GlyphClass: 1
Flags: HW
PickledData: "(dp1
S'com.fontlab.hintData'
p2
(dp3
S'vhints'
p4
((dp5
S'position'
p6
I147
sS'width'
p7
I385
stp8
sS'hhints'
p9
((dp10
g6
I0
sg7
I286
s(dp11
g6
I1459
sg7
I20
stp12
ss."
HStem: 0 303<564 1249 564 1249> 1547 21<156 564 564 564>
VStem: 156 408<303 1568 303 1568 303 1568>
LayerCount: 2
Fore
SplineSet
1249 0 m 1
 156 0 l 1
 156 1568 l 1
 564 1568 l 1
 564 303 l 1
 1249 303 l 1
 1249 0 l 1
EndSplineSet
EndChar

StartChar: Lslash
Encoding: 321 321 31
Width: 1208
VWidth: 0
GlyphClass: 1
Flags: HW
PickledData: "(dp1
S'com.fontlab.hintData'
p2
(dp3
S'vhints'
p4
((dp5
S'position'
p6
I154
sS'width'
p7
I221
stp8
sS'hhints'
p9
((dp10
g6
I0
sg7
I209
s(dp11
g6
I885
sg7
I184
stp12
ss."
HStem: 0 222<398 1152 398 1152> 938 195<735 735>
VStem: 163 234<222 530 530 530 890 1545>
LayerCount: 2
Fore
SplineSet
163 0 m 1
 163 530 l 1
 4 410 l 1
 4 605 l 1
 163 725 l 1
 163 1545 l 1
 398 1545 l 1
 398 890 l 1
 735 1133 l 1
 735 938 l 1
 398 694 l 1
 398 222 l 1
 1152 222 l 1
 1152 0 l 1
 163 0 l 1
EndSplineSet
EndChar

StartChar: M
Encoding: 77 77 32
Width: 1939
VWidth: 0
GlyphClass: 1
Flags: HW
PickledData: "(dp1
S'com.fontlab.hintData'
p2
(dp3
S'vhints'
p4
((dp5
S'position'
p6
I146
sS'width'
p7
I368
s(dp8
g6
I1302
sg7
I382
stp9
sS'hhints'
p10
((dp11
g6
I0
sg7
I21
s(dp12
g6
I1459
sg7
I20
stp13
ss."
HStem: 0 22<155 545 155 155 1380 1785 1380 1380> 1547 21<155 592 592 592 1350 1785 1785 1785>
VStem: 155 390 1380 405
LayerCount: 2
Fore
SplineSet
1785 0 m 1
 1380 0 l 1
 1380 743 l 2
 1380 794 1380 888 1377 929 c 1
 1287 720 1198 515 1109 308 c 1
 815 308 l 1
 738 488 656 672 578 852 c 1
 546 929 l 1
 544 888 545 794 545 743 c 2
 545 0 l 1
 155 0 l 1
 155 1568 l 1
 592 1568 l 1
 970 740 l 1
 1079 979 l 1
 1079 977 l 1
 1350 1568 l 1
 1785 1568 l 1
 1785 0 l 1
EndSplineSet
EndChar

StartChar: N
Encoding: 78 78 33
Width: 1687
VWidth: 0
GlyphClass: 1
Flags: HW
PickledData: "(dp1
S'com.fontlab.hintData'
p2
(dp3
S'vhints'
p4
((dp5
S'position'
p6
I146
sS'width'
p7
I357
s(dp8
g6
I1090
sg7
I356
stp9
sS'hhints'
p10
((dp11
g6
I0
sg7
I21
s(dp12
g6
I1459
sg7
I20
stp13
ss."
HStem: 0 22<154 533 154 154 1159 1533 1159 1159> 1547 21<154 612 612 612 1156 1533 1533 1533>
VStem: 155 378 1155 377
LayerCount: 2
Fore
SplineSet
1533 0 m 1
 1159 0 l 1
 952 337 739 684 535 1018 c 1
 532 972 533 857 533 802 c 2
 533 0 l 1
 154 0 l 1
 154 1568 l 1
 612 1568 l 1
 1036 889 l 1
 1068 836 1123 740 1156 699 c 1
 1156 1568 l 1
 1533 1568 l 1
 1533 0 l 1
EndSplineSet
EndChar

StartChar: O
Encoding: 79 79 35
Width: 1604
VWidth: 0
GlyphClass: 1
Flags: HW
PickledData: "(dp1
S'com.fontlab.hintData'
p2
(dp3
S'vhints'
p4
((dp5
S'position'
p6
I70
sS'width'
p7
I394
s(dp8
g6
I1050
sg7
I393
stp9
sS'hhints'
p10
((dp11
g6
I-24
sg7
I288
s(dp12
g6
I1215
sg7
I288
stp13
ss."
HStem: -25 305<684 924 684 1046> 1288 305<685 923>
VStem: 74 418 1113 417
LayerCount: 2
Fore
SplineSet
803 -25 m 0
 318 -25 75 268 75 784 c 0
 75 1303 319 1593 803 1593 c 0
 1287 1593 1530 1304 1530 784 c 0
 1530 269 1288 -25 803 -25 c 0
1114 784 m 0
 1114 1099 1041 1288 804 1288 c 0
 566 1288 492 1103 492 783 c 0
 492 465 564 280 804 280 c 0
 1045 280 1114 478 1114 784 c 0
EndSplineSet
EndChar

StartChar: OE
Encoding: 338 338 36
Width: 2241
VWidth: 0
GlyphClass: 1
Flags: HW
PickledData: "(dp1
S'com.fontlab.hintData'
p2
(dp3
S'vhints'
p4
((dp5
S'position'
p6
I67
sS'width'
p7
I392
s(dp8
g6
I998
sg7
I382
stp9
sS'hhints'
p10
((dp11
g6
I0
sg7
I286
s(dp12
g6
I635
sg7
I282
s(dp13
g6
I1193
sg7
I286
stp14
ss."
HStem: 0 303<1463 2153 1463 2153> 673 299<1463 2061 1463 2061> 1265 303<1463 2152 1463 1463>
VStem: 71 416<690 880 690 913> 1058 405<646 673 303 856>
LayerCount: 2
Fore
SplineSet
2153 0 m 1
 1115 0 l 1
 1121 15 1129 30 1135 45 c 1
 1011 14 856 -9 745 -3 c 1
 414 20 250 180 157 347 c 0
 99 453 71 554 71 785 c 0
 71 1039 125 1174 217 1297 c 1
 317 1434 465 1532 667 1555 c 0
 768 1566 884 1558 1005 1524 c 1
 1005 1568 l 1
 2152 1568 l 1
 2152 1265 l 1
 1463 1265 l 1
 1463 972 l 1
 2061 972 l 1
 2061 673 l 1
 1463 673 l 1
 1463 303 l 1
 2153 303 l 1
 2153 0 l 1
1029 338 m 1
 1050 448 1058 547 1058 744 c 0
 1058 968 1050 1092 1029 1230 c 1
 1021 1232 1014 1235 1004 1239 c 1
 945 1252 883 1269 815 1265 c 1
 699 1253 616 1202 564 1133 c 1
 509 1058 487 976 487 783 c 0
 487 596 511 512 570 430 c 0
 624 356 712 301 832 298 c 1
 898 298 954 315 1006 337 c 1
 1012 337 1019 337 1029 338 c 1
EndSplineSet
EndChar

StartChar: Omega
Encoding: 8486 8486 41
Width: 1604
VWidth: 0
GlyphClass: 1
Flags: HW
PickledData: "(dp1
S'com.fontlab.hintData'
p2
(dp3
S'vhints'
p4
((dp5
S'position'
p6
I82
sS'width'
p7
I314
s(dp8
g6
I1117
sg7
I312
stp9
sS'hhints'
p10
((dp11
g6
I0
sg7
I229
s(dp12
g6
I1214
sg7
I242
stp13
ss."
HStem: 0 243<87 425 87 690 87 425 1254 1515> 1287 257<694 922>
VStem: 87 333 1184 331
LayerCount: 2
Fore
SplineSet
98 863 m 0
 98 1265 391 1543 803 1543 c 0
 1233 1543 1507 1243 1507 872 c 0
 1507 593 1380 379 1171 245 c 1
 1254 243 l 1
 1515 243 l 1
 1515 0 l 1
 913 0 l 1
 913 224 l 1
 1082 361 1184 561 1184 822 c 0
 1184 1080 1036 1287 808 1287 c 0
 581 1287 420 1099 420 811 c 0
 420 567 504 380 690 224 c 1
 690 0 l 1
 87 0 l 1
 87 243 l 1
 425 243 l 1
 227 352 98 586 98 863 c 0
EndSplineSet
EndChar

StartChar: Oslash
Encoding: 216 216 42
Width: 1604
VWidth: 0
GlyphClass: 1
Flags: HW
PickledData: "(dp1
S'com.fontlab.hintData'
p2
(dp3
S'vhints'
p4
((dp5
S'position'
p6
I70
sS'width'
p7
I384
s(dp8
g6
I1057
sg7
I387
stp9
sS'hhints'
p10
((dp11
g6
I-24
sg7
I279
s(dp12
g6
I1219
sg7
I284
stp13
ss."
HStem: -25 296<782 879 782 951> 1292 301<760 832>
VStem: 74 407<706 896 706 925> 1120 410<687 852>
LayerCount: 2
Fore
SplineSet
801 -25 m 0
 669 -25 544 6 441 59 c 1
 330 -119 l 1
 111 -107 l 1
 289 165 l 1
 149 301 74 436 74 784 c 0
 74 1065 123 1204 216 1327 c 0
 335 1482 536 1593 802 1593 c 0
 930 1593 1049 1566 1155 1513 c 1
 1250 1666 l 1
 1470 1655 l 1
 1310 1407 l 1
 1454 1271 1531 1135 1531 783 c 0
 1531 533 1498 415 1428 298 c 0
 1317 110 1100 -25 801 -25 c 0
803 1292 m 0
 716 1292 631 1256 573 1183 c 1
 515 1107 481 1014 481 778 c 0
 481 635 489 554 510 490 c 1
 973 1236 l 1
 925 1272 859 1292 803 1292 c 0
820 270 m 0
 937 270 1047 325 1110 423 c 1
 1118 526 1120 590 1120 784 c 0
 1120 919 1108 1030 1090 1086 c 1
 625 338 l 1
 680 293 744 270 820 270 c 0
EndSplineSet
EndChar

StartChar: P
Encoding: 80 80 44
Width: 1469
VWidth: 0
GlyphClass: 1
Flags: HW
PickledData: "(dp1
S'com.fontlab.hintData'
p2
(dp3
S'vhints'
p4
((dp5
S'position'
p6
I147
sS'width'
p7
I385
s(dp8
g6
I952
sg7
I391
stp9
sS'hhints'
p10
((dp11
g6
I0
sg7
I21
s(dp12
g6
I499
sg7
I282
s(dp13
g6
I1197
sg7
I282
stp14
ss."
HStem: 0 22<156 564 156 156> 529 299<564 597 597 639 564 802 564 597> 1269 299<564 674 564 564>
VStem: 156 408<0 529 0 828 828 1269> 1009 414<998 1165>
LayerCount: 2
Fore
SplineSet
1424 1071 m 0
 1424 755 1191 529 802 529 c 2
 564 529 l 1
 564 0 l 1
 156 0 l 1
 156 1568 l 1
 829 1568 l 2
 1147 1568 1424 1432 1424 1071 c 0
1009 1066 m 0
 1009 1264 813 1269 674 1269 c 2
 564 1269 l 1
 564 828 l 1
 597 828 l 2
 681 828 764 826 835 838 c 1
 946 852 1009 929 1009 1066 c 0
EndSplineSet
EndChar

StartChar: Q
Encoding: 81 81 45
Width: 1604
VWidth: 0
GlyphClass: 1
Flags: HW
PickledData: "(dp1
S'com.fontlab.hintData'
p2
(dp3
S'vhints'
p4
((dp5
S'position'
p6
I70
sS'width'
p7
I394
s(dp8
g6
I1050
sg7
I393
stp9
sS'hhints'
p10
((dp11
g6
I-24
sg7
I288
s(dp12
g6
I1215
sg7
I288
stp13
ss."
HStem: -25 305<684 816> 1288 305<685 923>
VStem: 74 418 1113 417
LayerCount: 2
Fore
SplineSet
1114 784 m 0
 1114 1099 1041 1288 804 1288 c 0
 566 1288 492 1103 492 783 c 0
 492 465 564 280 804 280 c 0
 1045 280 1114 478 1114 784 c 0
1139 -473 m 1
 878 -23 l 1
 854 -25 828 -25 803 -25 c 0
 318 -25 75 268 75 784 c 0
 75 1303 319 1593 803 1593 c 0
 1287 1593 1530 1304 1530 784 c 0
 1530 443 1424 198 1211 72 c 1
 1434 -314 l 1
 1139 -473 l 1
EndSplineSet
EndChar

StartChar: R
Encoding: 82 82 46
Width: 1571
VWidth: 0
GlyphClass: 1
Flags: HW
PickledData: "(dp1
S'com.fontlab.hintData'
p2
(dp3
S'vhints'
p4
((dp5
S'position'
p6
I147
sS'width'
p7
I383
s(dp8
g6
I968
sg7
I386
stp9
sS'hhints'
p10
((dp11
g6
I0
sg7
I21
s(dp12
g6
I562
sg7
I270
s(dp13
g6
I1205
sg7
I274
stp14
ss."
HStem: 0 22<156 562 156 156 1066 1498 1066 1066> 596 286<562 707 707 728 562 707> 1277 290<562 670 670 693 562 562>
VStem: 156 406<0 596 0 882 882 1277> 1026 409<1013 1154>
LayerCount: 2
Fore
SplineSet
1498 0 m 1
 1066 0 l 1
 728 596 l 1
 562 596 l 1
 562 0 l 1
 156 0 l 1
 156 1568 l 1
 670 1568 l 2
 973 1568 1435 1577 1435 1118 c 0
 1435 886 1341 747 1118 661 c 1
 1498 74 l 1
 1498 0 l 1
1026 1094 m 0
 1026 1215 974 1258 816 1273 c 0
 781 1276 739 1277 693 1277 c 2
 562 1277 l 1
 562 882 l 1
 707 882 l 2
 924 882 1026 932 1026 1094 c 0
EndSplineSet
EndChar

StartChar: S
Encoding: 83 83 47
Width: 1357
VWidth: 0
GlyphClass: 1
Flags: HW
PickledData: "(dp1
S'com.fontlab.hintData'
p2
(dp3
S'vhints'
p4
((dp5
S'position'
p6
I76
sS'width'
p7
I385
s(dp8
g6
I862
sg7
I389
stp9
sS'hhints'
p10
((dp11
g6
I-22
sg7
I281
s(dp12
g6
I1221
sg7
I281
stp13
ss."
HStem: -23 298<567 705 567 853> 1294 298<668 796>
VStem: 81 408<1091 1209 1091 1243> 914 412<369 524>
LayerCount: 2
Fore
SplineSet
1326 483 m 0
 1326 170 1056 -23 650 -23 c 0
 398 -23 204 36 45 131 c 1
 100 465 l 1
 120 457 142 449 163 442 c 1
 308 336 484 275 650 275 c 0
 760 275 914 306 914 431 c 0
 914 615 578 585 390 666 c 1
 171 753 81 894 81 1100 c 0
 81 1385 349 1592 719 1592 c 0
 918 1592 1117 1541 1268 1465 c 1
 1220 1133 l 1
 1200 1141 1177 1149 1155 1155 c 1
 1034 1240 878 1294 712 1294 c 0
 623 1294 489 1279 489 1140 c 0
 489 1042 558 1011 816 962 c 1
 1157 891 1326 745 1326 483 c 0
EndSplineSet
EndChar

StartChar: T
Encoding: 84 84 49
Width: 1295
VWidth: 0
GlyphClass: 1
Flags: HW
PickledData: "(dp1
S'com.fontlab.hintData'
p2
(dp3
S'vhints'
p4
((dp5
S'position'
p6
I420
sS'width'
p7
I384
stp8
sS'hhints'
p9
((dp10
g6
I0
sg7
I21
s(dp11
g6
I1198
sg7
I281
stp12
ss."
HStem: 0 22<445 852 445 445> 1270 298<-1 445 -1 1296 852 1296 852 852>
VStem: 445 407
LayerCount: 2
Fore
SplineSet
1296 1270 m 1
 852 1270 l 1
 852 0 l 1
 445 0 l 1
 445 1270 l 1
 -1 1270 l 1
 -1 1568 l 1
 1296 1568 l 1
 1296 1270 l 1
EndSplineSet
EndChar

StartChar: Thorn
Encoding: 222 222 50
Width: 1287
VWidth: 0
GlyphClass: 1
Flags: HW
PickledData: "(dp1
S'com.fontlab.hintData'
p2
(dp3
S'vhints'
p4
((dp5
S'position'
p6
I154
sS'width'
p7
I221
s(dp8
g6
I947
sg7
I221
stp9
sS'hhints'
p10
((dp11
g6
I0
sg7
I21
s(dp12
g6
I316
sg7
I209
s(dp13
g6
I997
sg7
I209
stp14
ss."
HStem: 0 22<163 163 163 398> 335 222<398 750 750 755 398 750> 1057 222<398 755 398 748>
VStem: 163 234<0 335 0 556 556 1057 1278 1545> 1004 234<748 865>
LayerCount: 2
Fore
SplineSet
163 0 m 1
 163 1545 l 1
 398 1545 l 1
 398 1278 l 1
 755 1278 l 2
 1072 1278 1238 1033 1238 807 c 0
 1238 581 1072 335 755 335 c 2
 398 335 l 1
 398 0 l 1
 163 0 l 1
398 1057 m 1
 398 556 l 1
 750 556 l 2
 908 556 1004 689 1004 807 c 0
 1004 924 908 1057 748 1057 c 2
 398 1057 l 1
EndSplineSet
EndChar

StartChar: U
Encoding: 85 85 51
Width: 1587
VWidth: 0
GlyphClass: 1
Flags: HW
PickledData: "(dp1
S'com.fontlab.hintData'
p2
(dp3
S'vhints'
p4
((dp5
S'position'
p6
I122
sS'width'
p7
I384
s(dp8
g6
I992
sg7
I384
stp9
sS'hhints'
p10
((dp11
g6
I-24
sg7
I291
s(dp12
g6
I1459
sg7
I20
stp13
ss."
HStem: -25 308<710 876 710 1004> 1547 21<130 537 537 537 1051 1458 1458 1458>
VStem: 129 407 1052 407
LayerCount: 2
Fore
SplineSet
1458 1568 m 1
 1458 536 l 2
 1458 187 1213 -25 794 -25 c 0
 392 -25 130 180 130 535 c 2
 130 1568 l 1
 537 1568 l 1
 537 569 l 2
 537 378 624 283 794 283 c 0
 956 283 1051 373 1051 570 c 2
 1051 1568 l 1
 1458 1568 l 1
EndSplineSet
EndChar

StartChar: V
Encoding: 86 86 56
Width: 1426
VWidth: 0
GlyphClass: 1
Flags: HW
PickledData: "(dp1
S'com.fontlab.hintData'
p2
(dp3
S'vhints'
p4
((dp5
S'position'
p6
I-23
sS'width'
p7
I399
s(dp8
g6
I606
sg7
I10
s(dp9
g6
I978
sg7
I391
stp10
sS'hhints'
p11
((dp12
g6
I0
sg7
I21
s(dp13
g6
I1459
sg7
I20
stp14
ss."
HStem: 0 22<520 906 520 520> 1547 21<-24 399 399 399 1037 1451 1451 1451>
VStem: -24 423<1568 1568> 642 11 1037 414<1568 1568>
LayerCount: 2
Fore
SplineSet
1451 1568 m 1
 906 0 l 1
 520 0 l 1
 -24 1568 l 1
 399 1568 l 1
 483 1299 568 1030 653 761 c 1
 650 769 645 779 642 787 c 1
 660 732 676 675 693 620 c 2
 717 547 l 1
 719 547 l 1
 780 761 l 1
 1037 1568 l 1
 1451 1568 l 1
EndSplineSet
EndChar

StartChar: W
Encoding: 87 87 57
Width: 2197
VWidth: 0
GlyphClass: 1
Flags: HW
PickledData: "(dp1
S'com.fontlab.hintData'
p2
(dp3
S'vhints'
p4
((dp5
S'position'
p6
I1667
sS'width'
p7
I394
stp8
sS'hhints'
p9
((dp10
g6
I0
sg7
I21
s(dp11
g6
I1459
sg7
I20
stp12
ss."
HStem: 0 22<420 843 420 420 1353 1776 1353 1353> 1547 21<13 439 439 439 914 1293 1293 1293 1767 2185 2185 2185>
VStem: 1767 418<1568 1568>
LayerCount: 2
Fore
SplineSet
2185 1568 m 1
 1776 0 l 1
 1353 0 l 1
 1271 298 1152 758 1095 934 c 1
 843 0 l 1
 420 0 l 1
 13 1568 l 1
 439 1568 l 1
 490 1313 541 1058 593 801 c 2
 640 564 l 1
 642 564 l 1
 718 845 l 2
 783 1086 849 1326 914 1568 c 1
 1293 1568 l 1
 1494 792 l 2
 1510 728 1534 620 1552 567 c 1
 1622 895 1695 1236 1767 1568 c 1
 2185 1568 l 1
EndSplineSet
EndChar

StartChar: X
Encoding: 88 88 58
Width: 1432
VWidth: 0
GlyphClass: 1
Flags: HW
PickledData: "(dp1
S'com.fontlab.hintData'
p2
(dp3
S'vhints'
p4
((dp5
S'position'
p6
I-14
sS'width'
p7
I443
stp8
sS'hhints'
p9
((dp10
g6
I0
sg7
I21
s(dp11
g6
I1459
sg7
I20
stp12
ss."
HStem: 0 22<-41 413 -41 -41 1001 1473 1001 1001> 1547 21<-15 454 454 454 991 1446 1446 1446>
VStem: -15 470
LayerCount: 2
Fore
SplineSet
1446 1568 m 1
 962 809 l 1
 1473 0 l 1
 1001 0 l 1
 808 328 l 1
 775 381 741 437 709 489 c 1
 668 422 625 355 585 288 c 2
 413 0 l 1
 -41 0 l 1
 468 797 l 1
 -15 1568 l 1
 454 1568 l 1
 542 1417 631 1267 719 1115 c 1
 754 1172 786 1224 823 1285 c 1
 821 1285 l 1
 991 1568 l 1
 1446 1568 l 1
EndSplineSet
EndChar

StartChar: Y
Encoding: 89 89 59
Width: 1418
VWidth: 0
GlyphClass: 1
Flags: HW
PickledData: "(dp1
S'com.fontlab.hintData'
p2
(dp3
S'vhints'
p4
((dp5
S'position'
p6
I483
sS'width'
p7
I381
stp8
sS'hhints'
p9
((dp10
g6
I0
sg7
I21
s(dp11
g6
I1459
sg7
I20
stp12
ss."
HStem: 0 22<512 916 512 512> 1547 21<-34 427 427 427 1004 1452 1452 1452>
VStem: 512 404<0 632 632 632>
LayerCount: 2
Fore
SplineSet
1452 1568 m 1
 916 644 l 1
 916 0 l 1
 512 0 l 1
 512 632 l 1
 -34 1568 l 1
 427 1568 l 1
 525 1377 621 1188 722 1000 c 1
 816 1192 911 1378 1004 1568 c 1
 1452 1568 l 1
EndSplineSet
EndChar

StartChar: Z
Encoding: 90 90 62
Width: 1290
VWidth: 0
GlyphClass: 1
Flags: HW
PickledData: "(dp1
S'com.fontlab.hintData'
p2
(dp3
S'hhints'
p4
((dp5
S'position'
p6
I0
sS'width'
p7
I286
s(dp8
g6
I1198
sg7
I281
stp9
ss."
HStem: 0 303<548 1258 548 1258> 1270 298<80 721 80 1223>
LayerCount: 2
Fore
SplineSet
1258 0 m 1
 43 0 l 1
 43 288 l 1
 721 1270 l 1
 80 1270 l 1
 80 1568 l 1
 1223 1568 l 1
 1223 1280 l 1
 548 303 l 1
 1258 303 l 1
 1258 0 l 1
EndSplineSet
EndChar

StartChar: a
Encoding: 97 97 64
Width: 1276
VWidth: 0
GlyphClass: 1
Flags: HW
PickledData: "(dp1
S'com.fontlab.hintData'
p2
(dp3
S'vhints'
p4
((dp5
S'position'
p6
I61
sS'width'
p7
I357
s(dp8
g6
I751
sg7
I358
stp9
sS'hhints'
p10
((dp11
g6
I-20
sg7
I247
s(dp12
g6
I0
sg7
I21
s(dp13
g6
I504
sg7
I192
s(dp14
g6
I864
sg7
I258
stp15
ss."
HStem: -21 262<322 650> 0 22<796 1176 796 796> 534 204<796 796> 916 273<513 664>
VStem: 65 378<332 447 332 512> 796 379<0 169 169 169 409 534 738 794 0 803>
LayerCount: 2
Fore
SplineSet
65 336 m 0
 65 689 395 738 796 738 c 1
 796 869 759 916 569 916 c 0
 456 916 326 885 213 840 c 1
 151 1095 l 1
 226 1149 410 1189 586 1189 c 0
 990 1189 1176 1066 1176 794 c 2
 1176 0 l 1
 796 0 l 1
 796 169 l 1
 794 169 l 1
 734 62 608 -21 432 -21 c 0
 212 -21 65 135 65 336 c 0
796 534 m 1
 582 517 443 521 443 373 c 0
 443 290 498 241 596 241 c 0
 704 241 796 284 796 534 c 1
EndSplineSet
EndChar

StartChar: acute
Encoding: 180 180 67
Width: 950
VWidth: 0
GlyphClass: 1
Flags: HW
PickledData: "(dp1
S'com.fontlab.hintData'
p2
(dp3
S'vhints'
p4
((dp5
S'position'
p6
I214
sS'width'
p7
I565
stp8
sS'hhints'
p9
((dp10
g6
I1239
sg7
I366
stp11
ss."
HStem: 1313 388<454 491 227 826>
VStem: 227 599<1313 1701>
LayerCount: 2
Fore
SplineSet
826 1701 m 1
 491 1313 l 1
 227 1313 l 1
 454 1701 l 1
 826 1701 l 1
EndSplineSet
EndChar

StartChar: ae
Encoding: 230 230 69
Width: 1989
VWidth: 0
GlyphClass: 1
Flags: HW
PickledData: "(dp1
S'com.fontlab.hintData'
p2
(dp3
S'vhints'
p4
((dp5
S'position'
p6
I33
sS'width'
p7
I357
stp8
sS'hhints'
p9
((dp10
g6
I-24
sg7
I245
s(dp11
g6
I460
sg7
I215
s(dp12
g6
I875
sg7
I249
s(dp13
g6
I893
sg7
I233
stp14
ss."
HStem: -25 260<527 599> 488 228<1153 1562 1151 1942 1153 1153> 928 264<472 615> 947 247<1317 1424>
VStem: 35 378<324 432 324 442>
LayerCount: 2
Fore
SplineSet
1942 488 m 1
 1153 488 l 1
 1167 306 1305 246 1483 246 c 0
 1601 246 1700 301 1748 334 c 1
 1787 334 1831 349 1865 372 c 1
 1923 102 l 1
 1825 37 1701 -29 1430 -29 c 0
 1166 -29 1061 9 921 143 c 1
 827 33 685 -25 514 -25 c 0
 201 -25 35 106 35 337 c 0
 35 547 163 675 392 708 c 1
 463 715 537 721 611 726 c 1
 663 738 715 750 770 761 c 1
 770 867 723 928 508 928 c 0
 425 928 314 899 227 858 c 1
 212 854 197 848 184 841 c 1
 121 1095 l 1
 196 1148 386 1191 558 1191 c 0
 756 1191 904 1144 1002 1070 c 1
 1085 1135 1246 1194 1386 1194 c 0
 1742 1194 1942 992 1942 652 c 2
 1942 488 l 1
810 352 m 1
 789 411 783 462 780 508 c 1
 578 495 413 498 413 366 c 0
 413 282 462 234 593 234 c 0
 712 234 787 267 810 352 c 1
1562 716 m 1
 1560 871 1486 947 1362 947 c 0
 1228 947 1150 858 1151 716 c 1
 1562 716 l 1
EndSplineSet
EndChar

StartChar: afii61289
Encoding: 8467 8467 70
Width: 952
VWidth: 0
GlyphClass: 1
Flags: HW
PickledData: "(dp1
S'com.fontlab.hintData'
p2
(dp3
S'vhints'
p4
((dp5
S'position'
p6
I193
sS'width'
p7
I192
s(dp8
g6
I617
sg7
I121
stp9
sS'hhints'
p10
((dp11
g6
I-4
sg7
I162
s(dp12
g6
I1434
sg7
I151
stp13
ss."
HStem: -4 172<541 621> 1520 160<509 583>
VStem: 205 204<768 1146> 654 128<1237 1387>
LayerCount: 2
Fore
SplineSet
408 1146 m 2
 408 768 l 1
 549 950 654 1148 654 1326 c 0
 654 1448 625 1520 542 1520 c 0
 477 1520 408 1433 408 1146 c 2
832 356 m 1
 919 267 l 1
 828 76 695 -4 546 -4 c 0
 305 -4 215 173 207 379 c 1
 207 406 l 1
 174 380 137 346 102 315 c 1
 48 435 l 1
 106 489 159 532 205 584 c 1
 205 1160 l 2
 205 1533 363 1680 533 1680 c 0
 703 1680 782 1527 782 1318 c 0
 782 1061 634 808 408 560 c 1
 408 458 l 1
 410 254 489 167 591 167 c 0
 697 167 780 265 832 356 c 1
EndSplineSet
EndChar

StartChar: ampersand
Encoding: 38 38 72
Width: 1690
VWidth: 0
GlyphClass: 1
Flags: HW
PickledData: "(dp1
S'com.fontlab.hintData'
p2
(dp3
S'vhints'
p4
((dp5
S'position'
p6
I78
sS'width'
p7
I374
s(dp8
g6
I181
sg7
I363
s(dp9
g6
I769
sg7
I359
stp10
sS'hhints'
p11
((dp12
g6
I-24
sg7
I26
s(dp13
g6
I1278
sg7
I225
stp14
ss."
HStem: -25 28 1355 238<670 705>
VStem: 83 396<428 536 428 569> 192 385<1192 1281 1192 1311> 815 381<1178 1275>
LayerCount: 2
Fore
SplineSet
815 1212 m 0
 815 1339 724 1355 687 1355 c 0
 654 1355 577 1334 577 1227 c 0
 577 1157 640 1087 708 1020 c 1
 786 1085 815 1144 815 1212 c 0
957 307 m 1
 823 437 688 571 556 703 c 1
 501 655 479 565 479 508 c 0
 479 348 605 259 696 251 c 0
 806 241 875 259 957 307 c 1
1570 803 m 1
 1566 764 1560 723 1554 682 c 1
 1533 564 1498 449 1390 348 c 1
 1444 297 1499 245 1553 193 c 0
 1626 123 1693 41 1784 -2 c 1
 1438 -8 l 1
 1385 -12 1330 -17 1277 -20 c 1
 1234 26 1190 70 1144 113 c 1
 1000 23 849 -25 679 -25 c 0
 306 -25 83 183 83 462 c 0
 83 675 215 809 369 893 c 1
 275 980 192 1074 192 1223 c 0
 192 1399 329 1593 704 1593 c 0
 1029 1593 1196 1439 1196 1247 c 0
 1196 1087 1102 948 864 864 c 1
 963 761 1063 659 1164 558 c 1
 1166 659 1187 740 1200 832 c 1
 1570 803 l 1
EndSplineSet
EndChar

StartChar: approxequal
Encoding: 8776 8776 73
Width: 1431
VWidth: 0
GlyphClass: 1
Flags: HW
PickledData: "(dp1
S'com.fontlab.hintData'
p2
(dp3
S'vhints'
p4
((dp5
S'position'
p6
I159
sS'width'
p7
I166
s(dp8
g6
I1025
sg7
I166
stp9
sS'hhints'
p10
((dp11
g6
I372
sg7
I173
s(dp12
g6
I780
sg7
I174
stp13
ss."
HStem: 394 183<458 526> 827 184<458 526>
VStem: 169 176<229 252> 1086 176<556 582>
LayerCount: 2
Fore
SplineSet
1262 556 m 1
 1237 365 1121 234 941 234 c 0
 868 234 784 264 678 323 c 0
 602 366 547 394 505 394 c 0
 412 394 364 329 344 229 c 1
 169 252 l 1
 195 450 315 578 495 578 c 0
 583 578 666 543 744 498 c 0
 799 466 844 439 887 431 c 0
 927 423 957 429 980 444 c 1
 1037 452 1078 505 1086 582 c 1
 1262 556 l 1
1262 991 m 1
 1237 800 1120 669 942 669 c 0
 867 669 783 699 678 759 c 0
 604 801 548 827 505 827 c 0
 413 827 364 764 344 666 c 1
 169 690 l 1
 195 886 315 1011 496 1011 c 0
 583 1011 667 978 744 932 c 0
 798 900 842 875 884 867 c 1
 920 859 949 859 971 869 c 1
 1032 879 1075 936 1086 1017 c 1
 1262 991 l 1
EndSplineSet
EndChar

StartChar: asciicircum
Encoding: 94 94 75
Width: 1684
VWidth: 0
GlyphClass: 1
Flags: HW
PickledData: "(dp1
S'com.fontlab.hintData'
p2
(dp3
S'vhints'
p4
((dp5
S'position'
p6
I1132
sS'width'
p7
I307
stp8
sS'hhints'
p9
((dp10
g6
I1459
sg7
I20
stp11
ss."
HStem: 1547 21<696 957 957 957>
VStem: 1200 325<677 677>
LayerCount: 2
Fore
SplineSet
1525 677 m 1
 1200 677 l 1
 827 1285 l 1
 484 675 l 1
 159 675 l 1
 696 1568 l 1
 957 1568 l 1
 1525 677 l 1
EndSplineSet
EndChar

StartChar: asciitilde
Encoding: 126 126 76
Width: 1684
VWidth: 0
GlyphClass: 1
Flags: HW
PickledData: "(dp1
S'com.fontlab.hintData'
p2
(dp3
S'vhints'
p4
((dp5
S'position'
p6
I127
sS'width'
p7
I229
s(dp8
g6
I1236
sg7
I231
stp9
sS'hhints'
p10
((dp11
g6
I329
sg7
I255
s(dp12
g6
I654
sg7
I242
stp13
ss."
HStem: 349 270<1027 1209 1027 1266> 693 257
VStem: 135 243<346 394> 1310 245<902 952>
LayerCount: 2
Fore
SplineSet
548 671 m 0
 451 671 402 552 377 346 c 1
 135 394 l 1
 152 768 300 950 542 950 c 0
 771 950 919 619 1134 619 c 0
 1283 619 1287 785 1310 952 c 1
 1555 902 l 1
 1538 536 1394 349 1137 349 c 0
 850 349 670 671 548 671 c 0
EndSplineSet
EndChar

StartChar: asterisk
Encoding: 42 42 77
Width: 1238
VWidth: 0
GlyphClass: 1
Flags: HW
PickledData: "(dp1
S'com.fontlab.hintData'
p2
(dp3
S'vhints'
p4
((dp5
S'position'
p6
I452
sS'width'
p7
I218
stp8
ss."
VStem: 479 231<756 807 756 832>
LayerCount: 2
Fore
SplineSet
710 756 m 1
 694 698 631 667 570 667 c 1
 524 677 479 716 479 784 c 0
 479 878 529 992 544 1085 c 1
 540 1081 533 1077 526 1071 c 0
 444 993 342 856 248 849 c 1
 195 863 149 915 137 973 c 1
 147 1108 374 1117 501 1171 c 1
 371 1226 143 1237 137 1371 c 1
 149 1427 194 1479 247 1494 c 1
 271 1492 296 1482 319 1467 c 0
 397 1419 473 1313 546 1255 c 1
 534 1362 480 1482 480 1588 c 1
 496 1646 557 1676 618 1676 c 1
 664 1666 709 1626 709 1559 c 0
 709 1464 659 1351 642 1256 c 1
 647 1260 654 1264 661 1270 c 0
 743 1347 841 1487 940 1494 c 1
 993 1479 1040 1427 1052 1371 c 1
 1046 1239 812 1226 687 1171 c 1
 813 1114 1042 1110 1052 973 c 1
 1040 915 992 863 940 849 c 1
 916 851 892 859 869 873 c 0
 792 920 713 1025 644 1084 c 1
 662 983 710 858 710 756 c 1
EndSplineSet
EndChar

StartChar: at
Encoding: 64 64 78
Width: 1934
VWidth: 0
GlyphClass: 1
Flags: HW
PickledData: "(dp1
S'com.fontlab.hintData'
p2
(dp3
S'vhints'
p4
((dp5
S'position'
p6
I122
sS'width'
p7
I188
s(dp8
g6
I493
sg7
I202
s(dp9
g6
I1601
sg7
I183
stp10
sS'hhints'
p11
((dp12
g6
I-142
sg7
I171
s(dp13
g6
I189
sg7
I150
s(dp14
g6
I214
sg7
I153
s(dp15
g6
I976
sg7
I168
s(dp16
g6
I1089
sg7
I20
s(dp17
g6
I1317
sg7
I174
stp18
ss."
HStem: -151 181<833 1123 833 1127> 200 159<1442 1567 1442 1579> 227 162<890 956> 1035 178<942 1065 854 1066> 1154 21<1260 1459 1459 1459> 1396 184<829 1240>
VStem: 129 199<505 900 505 961> 523 214<569 760 569 800> 1697 194<683 954>
LayerCount: 2
Fore
SplineSet
1697 770 m 0
 1697 1139 1434 1396 1046 1396 c 0
 611 1396 329 1095 329 705 c 0
 329 304 623 31 1042 31 c 0
 1203 31 1363 69 1497 142 c 1
 1549 12 l 1
 1404 -93 1213 -151 1042 -151 c 0
 504 -151 129 203 129 707 c 0
 129 1216 515 1580 1041 1580 c 0
 1540 1580 1891 1248 1891 789 c 0
 1891 426 1711 200 1447 200 c 0
 1325 200 1242 239 1205 339 c 1
 1146 267 1008 227 904 227 c 0
 671 227 523 425 523 642 c 0
 523 958 722 1213 987 1213 c 0
 1144 1213 1198 1144 1250 1109 c 1
 1260 1176 l 1
 1459 1176 l 1
 1386 543 l 2
 1383 517 1381 491 1381 469 c 0
 1381 403 1401 359 1483 359 c 0
 1652 359 1697 596 1697 770 c 0
737 657 m 0
 737 480 829 389 952 389 c 0
 1022 389 1097 408 1171 445 c 1
 1220 925 l 1
 1174 986 1104 1035 1027 1035 c 0
 857 1035 737 863 737 657 c 0
EndSplineSet
EndChar

StartChar: b
Encoding: 98 98 80
Width: 1345
VWidth: 0
GlyphClass: 1
Flags: HW
PickledData: "(dp1
S'com.fontlab.hintData'
p2
(dp3
S'vhints'
p4
((dp5
S'position'
p6
I126
sS'width'
p7
I359
s(dp8
g6
I842
sg7
I366
stp9
sS'hhints'
p10
((dp11
g6
I-22
sg7
I276
s(dp12
g6
I0
sg7
I21
s(dp13
g6
I848
sg7
I274
s(dp14
g6
I1501
sg7
I20
stp15
ss."
HStem: -23 293<626 971> 0 22<134 515 134 134> 899 290<646 1017> 1591 21<134 514 514 514>
VStem: 134 381<93 93 93 294 294 829 1048 1612> 893 388<493 691>
LayerCount: 2
Fore
SplineSet
858 1189 m 0
 1176 1189 1280 956 1280 591 c 0
 1280 240 1129 -23 814 -23 c 0
 679 -23 602 17 514 93 c 1
 515 0 l 1
 134 0 l 1
 134 1612 l 1
 514 1612 l 1
 514 1048 l 1
 620 1133 716 1189 858 1189 c 0
893 588 m 0
 893 793 846 899 685 899 c 0
 608 899 559 874 514 829 c 1
 514 294 l 1
 543 277 601 269 651 269 c 0
 841 269 893 398 893 588 c 0
EndSplineSet
EndChar

StartChar: backslash
Encoding: 92 92 81
Width: 1193
VWidth: 0
GlyphClass: 1
Flags: HW
PickledData: "(dp1
S'com.fontlab.hintData'
p2
(dp3
S'vhints'
p4
((dp5
S'position'
p6
I177
sS'width'
p7
I287
s(dp8
g6
I721
sg7
I285
stp9
sS'hhints'
p10
((dp11
g6
I1507
sg7
I20
stp12
ss."
HStem: 1597 21<188 492 492 492>
VStem: 188 304<1619 1619> 764 302<-231 -231>
LayerCount: 2
Fore
SplineSet
1066 -231 m 1
 764 -231 l 1
 188 1619 l 1
 492 1619 l 1
 1066 -231 l 1
EndSplineSet
EndChar

StartChar: bar
Encoding: 124 124 82
Width: 1239
VWidth: 0
GlyphClass: 1
Flags: HW
PickledData: "(dp1
S'com.fontlab.hintData'
p2
(dp3
S'vhints'
p4
((dp5
S'position'
p6
I444
sS'width'
p7
I280
stp8
ss."
VStem: 471 297<-459 1642>
LayerCount: 2
Fore
SplineSet
767 -459 m 1
 471 -459 l 1
 471 1642 l 1
 767 1642 l 1
 767 -459 l 1
EndSplineSet
EndChar

StartChar: braceleft
Encoding: 123 123 83
Width: 1143
VWidth: 0
GlyphClass: 1
Flags: HW
PickledData: "(dp1
S'com.fontlab.hintData'
p2
(dp3
S'vhints'
p4
((dp5
S'position'
p6
I353
sS'width'
p7
I322
stp8
sS'hhints'
p9
((dp10
g6
I-327
sg7
I211
s(dp11
g6
I485
sg7
I226
s(dp12
g6
I1312
sg7
I211
stp13
ss."
HStem: -347 224<965 987 879 1056 965 965> 514 240<16 146> 1391 224<893 984 984 1056>
VStem: 374 341<47 157 157 193 193 243 30 310 1074 1081 1081 1144>
LayerCount: 2
Fore
SplineSet
374 193 m 2
 374 428 275 514 16 514 c 1
 16 754 l 1
 276 754 374 831 374 1074 c 2
 374 1266 l 2
 374 1572 596 1614 893 1614 c 2
 1056 1614 l 1
 1056 1391 l 1
 984 1391 l 2
 800 1391 716 1359 716 1144 c 2
 716 1081 l 2
 716 821 613 701 429 643 c 1
 429 624 l 1
 581 576 716 466 716 243 c 2
 716 157 l 2
 716 -96 783 -123 975 -123 c 0
 999 -123 1028 -122 1056 -122 c 1
 1056 -347 l 1
 965 -347 l 2
 945 -347 925 -347 905 -347 c 0
 578 -347 374 -293 374 47 c 2
 374 193 l 2
EndSplineSet
EndChar

StartChar: braceright
Encoding: 125 125 84
Width: 1143
VWidth: 0
GlyphClass: 1
Flags: HW
PickledData: "(dp1
S'com.fontlab.hintData'
p2
(dp3
S'vhints'
p4
((dp5
S'position'
p6
I405
sS'width'
p7
I321
stp8
sS'hhints'
p9
((dp10
g6
I-327
sg7
I212
s(dp11
g6
I485
sg7
I226
s(dp12
g6
I1312
sg7
I211
stp13
ss."
HStem: -347 225<87 217 87 268 87 217> 514 240<993 1128 993 1128> 1391 224<87 135 87 208>
VStem: 429 340<1030 1102 1102 1108 1108 1206 984 1255>
LayerCount: 2
Fore
SplineSet
770 1108 m 2
 770 860 858 754 1128 754 c 1
 1128 514 l 1
 780 514 765 382 770 17 c 0
 774 -302 562 -350 268 -347 c 1
 87 -347 l 1
 87 -122 l 1
 348 -122 429 -116 429 157 c 2
 429 238 l 2
 429 462 561 575 713 624 c 1
 713 643 l 1
 560 692 429 800 429 1030 c 2
 429 1102 l 2
 429 1407 328 1391 87 1391 c 1
 87 1614 l 1
 182 1614 276 1615 374 1616 c 0
 644 1619 770 1478 770 1206 c 2
 770 1108 l 2
EndSplineSet
EndChar

StartChar: bracketleft
Encoding: 91 91 85
Width: 891
VWidth: 0
GlyphClass: 1
Flags: HW
PickledData: "(dp1
S'com.fontlab.hintData'
p2
(dp3
S'vhints'
p4
((dp5
S'position'
p6
I145
sS'width'
p7
I596
s(dp8
g6
I145
sg7
I309
stp9
sS'hhints'
p10
((dp11
g6
I-327
sg7
I225
s(dp12
g6
I1298
sg7
I225
stp13
ss."
HStem: -347 238<481 785 481 785> 1376 238<481 785 481 481>
VStem: 154 632<-347 -108 1376 1614> 154 328<-108 1376 -108 1614 -108 1614>
LayerCount: 2
Fore
SplineSet
785 -347 m 1
 154 -347 l 1
 154 1614 l 1
 785 1614 l 1
 785 1376 l 1
 481 1376 l 1
 481 -108 l 1
 785 -108 l 1
 785 -347 l 1
EndSplineSet
EndChar

StartChar: bracketright
Encoding: 93 93 86
Width: 891
VWidth: 0
GlyphClass: 1
Flags: HW
PickledData: "(dp1
S'com.fontlab.hintData'
p2
(dp3
S'vhints'
p4
((dp5
S'position'
p6
I99
sS'width'
p7
I597
s(dp8
g6
I387
sg7
I309
stp9
sS'hhints'
p10
((dp11
g6
I-327
sg7
I225
s(dp12
g6
I1298
sg7
I225
stp13
ss."
HStem: -347 238<105 410 105 738 105 410> 1376 238<105 410 105 738>
VStem: 105 633<-347 -108 -108 -108 1376 1614> 410 328<-108 1376 1376 1376>
LayerCount: 2
Fore
SplineSet
738 -347 m 1
 105 -347 l 1
 105 -108 l 1
 410 -108 l 1
 410 1376 l 1
 105 1376 l 1
 105 1614 l 1
 738 1614 l 1
 738 -347 l 1
EndSplineSet
EndChar

StartChar: breve
Encoding: 728 728 87
Width: 947
VWidth: 0
GlyphClass: 1
Flags: HW
PickledData: "(dp1
S'com.fontlab.hintData'
p2
(dp3
S'vhints'
p4
((dp5
S'position'
p6
I82
sS'width'
p7
I191
s(dp8
g6
I628
sg7
I193
stp9
sS'hhints'
p10
((dp11
g6
I1220
sg7
I174
stp12
ss."
HStem: 1293 184<409 541 409 596>
VStem: 87 202<1662 1662> 666 205<1662 1662>
LayerCount: 2
Fore
SplineSet
870 1662 m 1
 866 1421 714 1293 478 1293 c 0
 221 1293 91 1421 87 1662 c 1
 289 1662 l 1
 299 1557 339 1478 478 1478 c 0
 603 1478 658 1552 666 1662 c 1
 870 1662 l 1
EndSplineSet
EndChar

StartChar: brokenbar
Encoding: 166 166 88
Width: 482
VWidth: 0
GlyphClass: 1
Flags: HW
PickledData: "(dp1
S'com.fontlab.hintData'
p2
(dp3
S'vhints'
p4
((dp5
S'position'
p6
I147
sS'width'
p7
I160
stp8
ss."
VStem: 156 170<-379 379 -379 379 706 1465>
LayerCount: 2
Fore
SplineSet
156 706 m 1
 156 1465 l 1
 325 1465 l 1
 325 706 l 1
 156 706 l 1
156 -379 m 1
 156 379 l 1
 325 379 l 1
 325 -379 l 1
 156 -379 l 1
EndSplineSet
EndChar

StartChar: bullet
Encoding: 8226 8226 89
Width: 1397
VWidth: 0
GlyphClass: 1
Flags: HW
PickledData: "(dp1
S'com.fontlab.hintData'
p2
(dp3
S'vhints'
p4
((dp5
S'position'
p6
I158
sS'width'
p7
I1001
stp8
sS'hhints'
p9
((dp10
g6
I217
sg7
I954
stp11
ss."
HStem: 230 1011<554 842>
VStem: 167 1061<598 874>
LayerCount: 2
Fore
SplineSet
1229 737 m 0
 1229 459 985 230 697 230 c 0
 409 230 167 460 167 737 c 0
 167 1013 411 1241 697 1241 c 0
 987 1241 1229 1013 1229 737 c 0
EndSplineSet
EndChar

StartChar: c
Encoding: 99 99 90
Width: 1084
VWidth: 0
GlyphClass: 1
Flags: HW
PickledData: "(dp1
S'com.fontlab.hintData'
p2
(dp3
S'vhints'
p4
((dp5
S'position'
p6
I44
sS'width'
p7
I366
stp8
sS'hhints'
p9
((dp10
g6
I-25
sg7
I260
s(dp11
g6
I866
sg7
I256
stp12
ss."
HStem: -26 276<640 765> 918 271<650 744 519 781>
VStem: 47 388<455 699 455 803>
LayerCount: 2
Fore
SplineSet
718 249 m 0
 857 249 962 295 1052 369 c 1
 1110 90 l 1
 989 24 846 -26 685 -26 c 0
 341 -26 47 156 47 579 c 0
 47 1028 363 1189 674 1189 c 0
 813 1189 959 1156 1108 1072 c 1
 1049 792 l 1
 949 870 830 918 731 918 c 0
 569 918 435 821 435 578 c 0
 435 333 562 249 718 249 c 0
EndSplineSet
EndChar

StartChar: caron
Encoding: 711 711 91
Width: 947
VWidth: 0
GlyphClass: 1
Flags: HW
PickledData: "(dp1
S'com.fontlab.hintData'
p2
(dp3
S'hhints'
p4
((dp5
S'position'
p6
I1245
sS'width'
p7
I165
stp8
ss."
HStem: 1320 175<474 474 474 599 347 474>
LayerCount: 2
Fore
SplineSet
951 1701 m 1
 599 1320 l 1
 347 1320 l 1
 -6 1701 l 1
 286 1701 l 1
 474 1495 l 1
 660 1701 l 1
 951 1701 l 1
EndSplineSet
EndChar

StartChar: cedilla
Encoding: 184 184 93
Width: 1054
VWidth: 0
GlyphClass: 1
Flags: HW
PickledData: "(dp1
S'com.fontlab.hintData'
p2
(dp3
S'vhints'
p4
((dp5
S'position'
p6
I577
sS'width'
p7
I180
stp8
sS'hhints'
p9
((dp10
g6
I-547
sg7
I139
stp11
ss."
HStem: -580 147<434 506 434 559>
VStem: 612 191<-336 -332 -296 -293 -336 -281>
LayerCount: 2
Fore
SplineSet
455 -580 m 0
 398 -580 295 -559 238 -531 c 1
 270 -385 l 1
 295 -391 323 -396 349 -396 c 1
 379 -414 411 -432 457 -432 c 0
 555 -432 612 -380 612 -316 c 0
 612 -246 533 -198 439 -219 c 1
 422 -214 404 -210 385 -207 c 1
 458 2 l 1
 576 2 l 1
 530 -109 l 1
 576 -110 619 -113 654 -124 c 0
 749 -150 796 -217 802 -293 c 0
 802 -300 803 -308 803 -314 c 0
 802 -321 802 -329 802 -336 c 0
 786 -468 664 -580 455 -580 c 0
EndSplineSet
EndChar

StartChar: cent
Encoding: 162 162 94
Width: 1319
VWidth: 0
GlyphClass: 1
Flags: HW
PickledData: "(dp1
S'com.fontlab.hintData'
p2
(dp3
S'vhints'
p4
((dp5
S'position'
p6
I44
sS'width'
p7
I366
s(dp8
g6
I604
sg7
I154
stp9
sS'hhints'
p10
((dp11
g6
I-25
sg7
I260
s(dp12
g6
I866
sg7
I256
stp13
ss."
HStem: -26 276 918 271
VStem: 47 388 640 163<-328 1473 -328 1473>
LayerCount: 2
Fore
SplineSet
803 1473 m 1
 803 -328 l 1
 640 -328 l 1
 640 1473 l 1
 803 1473 l 1
EndSplineSet
Refer: 90 99 N 1 0 0 1 0 0 2
EndChar

StartChar: circumflex
Encoding: 710 710 95
Width: 947
VWidth: 0
GlyphClass: 1
Flags: HW
PickledData: "(dp1
S'com.fontlab.hintData'
p2
(dp3
S'hhints'
p4
((dp5
S'position'
p6
I1430
sS'width'
p7
I175
stp8
ss."
HStem: 1516 186<473 473>
LayerCount: 2
Fore
SplineSet
933 1315 m 1
 638 1315 l 1
 473 1516 l 1
 307 1315 l 1
 17 1315 l 1
 341 1701 l 1
 607 1701 l 1
 933 1315 l 1
EndSplineSet
EndChar

StartChar: colon
Encoding: 58 58 96
Width: 673
VWidth: 0
GlyphClass: 1
Flags: HW
PickledData: "(dp1
S'com.fontlab.hintData'
p2
(dp3
S'vhints'
p4
((dp5
S'position'
p6
I101
sS'width'
p7
I434
stp8
sS'hhints'
p9
((dp10
g6
I-24
sg7
I437
s(dp11
g6
I660
sg7
I437
stp12
ss."
HStem: -25 463 700 463
VStem: 107 460
LayerCount: 2
Fore
SplineSet
108 227 m 0
 108 352 209 454 334 454 c 0
 459 454 561 352 561 227 c 0
 561 102 459 0 334 0 c 0
 209 0 108 102 108 227 c 0
108 935 m 0
 108 1060 209 1161 334 1161 c 0
 459 1161 561 1060 561 935 c 0
 561 810 459 708 334 708 c 0
 209 708 108 810 108 935 c 0
EndSplineSet
EndChar

StartChar: comma
Encoding: 44 44 97
Width: 620
VWidth: 0
GlyphClass: 1
Flags: HW
PickledData: "(dp1
S'com.fontlab.hintData'
p2
(dp3
S'vhints'
p4
((dp5
S'position'
p6
I111
sS'width'
p7
I420
stp8
sS'hhints'
p9
((dp10
g6
I-250
sg7
I609
stp11
ss."
HStem: -265 646<184 311 118 563>
VStem: 118 445
LayerCount: 2
Fore
SplineSet
563 381 m 1
 311 -265 l 1
 118 -265 l 1
 184 381 l 1
 563 381 l 1
EndSplineSet
EndChar

StartChar: copyright
Encoding: 169 169 98
Width: 1957
VWidth: 0
GlyphClass: 1
Flags: HW
PickledData: "(dp1
S'com.fontlab.hintData'
p2
(dp3
S'vhints'
p4
((dp5
S'position'
p6
I65
sS'width'
p7
I211
s(dp8
g6
I501
sg7
I237
s(dp9
g6
I1213
sg7
I64
s(dp10
g6
I1573
sg7
I210
stp11
sS'hhints'
p12
((dp13
g6
I-142
sg7
I193
s(dp14
g6
I234
sg7
I166
s(dp15
g6
I972
sg7
I171
s(dp16
g6
I1310
sg7
I193
stp17
ss."
HStem: -151 205<799 1164 799 1230> 248 176 1030 181<949 1072 876 1094> 1389 205<791 1161>
VStem: 69 224<526 910 526 961> 531 251<638 819 638 874> 1286 68<567 567> 1667 223<529 917>
LayerCount: 2
Fore
SplineSet
979 -151 m 0
 497 -151 69 216 69 722 c 0
 69 1200 478 1593 979 1593 c 0
 1468 1593 1890 1206 1890 722 c 0
 1890 243 1480 -151 979 -151 c 0
1667 722 m 0
 1667 1112 1342 1389 979 1389 c 0
 603 1389 293 1098 293 722 c 0
 293 330 619 54 979 54 c 0
 1348 54 1667 336 1667 722 c 0
1209 290 m 1
 1160 277 1078 245 980 248 c 1
 732 266 531 431 531 727 c 0
 531 1022 736 1212 1014 1212 c 0
 1128 1212 1234 1175 1319 1117 c 1
 1338 1049 1350 975 1354 893 c 1
 1332 892 1308 891 1286 891 c 1
 1253 949 1160 1030 1028 1030 c 0
 869 1030 782 910 782 727 c 0
 782 548 878 424 1029 424 c 0
 1173 424 1270 514 1286 567 c 1
 1354 567 l 1
 1339 436 1282 338 1209 290 c 1
EndSplineSet
EndChar

StartChar: currency
Encoding: 164 164 99
Width: 1043
VWidth: 0
GlyphClass: 1
Flags: HW
PickledData: "(dp1
S'com.fontlab.hintData'
p2
(dp3
S'vhints'
p4
((dp5
S'position'
p6
I53
sS'width'
p7
I160
s(dp8
g6
I775
sg7
I160
stp9
sS'hhints'
p10
((dp11
g6
I289
sg7
I147
s(dp12
g6
I1024
sg7
I147
stp13
ss."
HStem: 306 156<471 578> 1085 156<471 578 471 614>
VStem: 56 170<721 827> 822 170<720 827 720 870>
LayerCount: 2
Fore
SplineSet
226 774 m 0
 226 582 347 462 525 462 c 0
 703 462 822 582 822 774 c 0
 822 966 703 1085 525 1085 c 0
 347 1085 226 966 226 774 c 0
33 398 m 1
 139 506 l 1
 91 564 56 668 56 774 c 0
 56 880 89 981 139 1044 c 1
 33 1150 l 1
 147 1261 l 1
 254 1158 l 1
 314 1206 418 1241 525 1241 c 0
 631 1241 726 1208 791 1160 c 1
 898 1261 l 1
 1010 1150 l 1
 906 1044 l 1
 954 981 991 880 991 774 c 0
 991 666 954 564 906 504 c 1
 1010 398 l 1
 898 284 l 1
 791 391 l 1
 726 341 631 306 525 306 c 0
 418 306 314 345 254 391 c 1
 147 284 l 1
 33 398 l 1
EndSplineSet
EndChar

StartChar: d
Encoding: 100 100 100
Width: 1359
VWidth: 0
GlyphClass: 1
Flags: HW
PickledData: "(dp1
S'com.fontlab.hintData'
p2
(dp3
S'vhints'
p4
((dp5
S'position'
p6
I70
sS'width'
p7
I365
s(dp8
g6
I793
sg7
I359
stp9
sS'hhints'
p10
((dp11
g6
I-22
sg7
I259
s(dp12
g6
I0
sg7
I21
s(dp13
g6
I860
sg7
I262
s(dp14
g6
I1501
sg7
I20
stp15
ss."
HStem: -23 275<385 722> 0 22<841 1221 841 841> 912 278<570 607 376 666> 1591 21<841 1221 1221 1221>
VStem: 74 387<480 672 480 778> 841 381<0 87 87 87 275 851 851 851 1079 1612 0 1612>
LayerCount: 2
Fore
SplineSet
74 594 m 0
 74 962 207 1189 545 1189 c 0
 669 1189 749 1144 841 1079 c 1
 841 1612 l 1
 1221 1612 l 1
 1221 0 l 1
 841 0 l 1
 841 87 l 1
 752 15 676 -23 541 -23 c 0
 229 -23 74 237 74 594 c 0
841 275 m 1
 841 851 l 1
 758 892 692 912 640 912 c 0
 499 912 461 771 461 572 c 0
 461 386 530 251 702 251 c 0
 742 251 789 259 841 275 c 1
EndSplineSet
EndChar

StartChar: dagger
Encoding: 8224 8224 101
Width: 1329
VWidth: 0
GlyphClass: 1
Flags: HW
PickledData: "(dp1
S'com.fontlab.hintData'
p2
(dp3
S'vhints'
p4
((dp5
S'position'
p6
I489
sS'width'
p7
I273
stp8
sS'hhints'
p9
((dp10
g6
I871
sg7
I219
s(dp11
g6
I1503
sg7
I20
stp12
ss."
HStem: 923 232<136 518 136 523> 1593 21<523 811 811 811>
VStem: 518 289<-56 920 -56 923 -56 923>
LayerCount: 2
Fore
SplineSet
1194 920 m 1
 808 920 l 1
 808 -56 l 1
 518 -56 l 1
 518 923 l 1
 136 923 l 1
 136 1155 l 1
 523 1155 l 1
 523 1614 l 1
 811 1614 l 1
 811 1153 l 1
 1194 1153 l 1
 1194 920 l 1
EndSplineSet
EndChar

StartChar: daggerdbl
Encoding: 8225 8225 102
Width: 1329
VWidth: 0
GlyphClass: 1
Flags: HW
PickledData: "(dp1
S'com.fontlab.hintData'
p2
(dp3
S'vhints'
p4
((dp5
S'position'
p6
I490
sS'width'
p7
I272
stp8
sS'hhints'
p9
((dp10
g6
I356
sg7
I220
s(dp11
g6
I912
sg7
I219
s(dp12
g6
I1503
sg7
I20
stp13
ss."
HStem: 377 233<136 519 136 525> 967 232<136 523 136 525 136 523> 1593 21<523 811 811 811>
VStem: 519 288<-53 375 -53 377 -53 377>
LayerCount: 2
Fore
SplineSet
1194 375 m 1
 808 375 l 1
 808 -53 l 1
 519 -53 l 1
 519 377 l 1
 136 377 l 1
 136 611 l 1
 525 611 l 1
 525 967 l 1
 136 967 l 1
 136 1199 l 1
 523 1199 l 1
 523 1614 l 1
 811 1614 l 1
 811 1196 l 1
 1194 1196 l 1
 1194 964 l 1
 806 964 l 1
 806 607 l 1
 1194 607 l 1
 1194 375 l 1
EndSplineSet
EndChar

StartChar: degree
Encoding: 176 176 103
Width: 1072
VWidth: 0
GlyphClass: 1
Flags: HW
PickledData: "(dp1
S'com.fontlab.hintData'
p2
(dp3
S'vhints'
p4
((dp5
S'position'
p6
I159
sS'width'
p7
I126
s(dp8
g6
I728
sg7
I127
stp9
sS'hhints'
p10
((dp11
g6
I809
sg7
I113
s(dp12
g6
I1354
sg7
I112
stp13
ss."
HStem: 858 120<473 603 473 639> 1435 119<472 603>
VStem: 169 134<1142 1268 1142 1304> 772 135<1143 1268>
LayerCount: 2
Fore
SplineSet
772 1206 m 0
 772 1330 667 1435 537 1435 c 0
 407 1435 302 1330 302 1206 c 0
 302 1077 408 977 537 977 c 0
 668 977 772 1080 772 1206 c 0
906 1206 m 0
 906 1011 741 858 537 858 c 0
 333 858 169 1012 169 1206 c 0
 169 1401 336 1554 537 1554 c 0
 741 1554 906 1400 906 1206 c 0
EndSplineSet
EndChar

StartChar: dieresis
Encoding: 168 168 104
Width: 941
VWidth: 0
GlyphClass: 1
Flags: HW
PickledData: "(dp1
S'com.fontlab.hintData'
p2
(dp3
S'vhints'
p4
((dp5
S'position'
p6
I184
sS'width'
p7
I515
stp8
sS'hhints'
p9
((dp10
g6
I1246
sg7
I279
stp11
ss."
HStem: 1321 296<423 514 512 512 504 741>
VStem: 195 546<1321 1616 1321 1619 1321 1619>
LayerCount: 2
Fore
SplineSet
741 1321 m 1
 686 1323 633 1325 580 1325 c 0
 558 1325 535 1325 512 1324 c 1
 512 1321 l 1
 496 1322 481 1323 466 1323 c 0
 452 1323 438 1322 423 1321 c 1
 423 1324 l 1
 397 1325 369 1325 343 1325 c 0
 293 1325 246 1324 195 1321 c 1
 195 1619 l 1
 252 1617 309 1615 364 1615 c 2
 418 1615 l 1
 423 1615 l 1
 423 1619 l 1
 451 1618 478 1616 504 1616 c 2
 514 1616 l 1
 514 1616 l 1
 536 1616 558 1615 579 1615 c 0
 635 1615 687 1615 741 1616 c 1
 741 1321 l 1
EndSplineSet
EndChar

StartChar: divide
Encoding: 247 247 105
Width: 1684
VWidth: 0
GlyphClass: 1
Flags: HW
PickledData: "(dp1
S'com.fontlab.hintData'
p2
(dp3
S'vhints'
p4
((dp5
S'position'
p6
I580
sS'width'
p7
I428
stp8
sS'hhints'
p9
((dp10
g6
I0
sg7
I428
s(dp11
g6
I526
sg7
I250
s(dp12
g6
I878
sg7
I428
stp13
ss."
HStem: 0 454<779 904> 558 265<171 1514 171 1514> 931 454
VStem: 615 454
LayerCount: 2
Fore
SplineSet
614 227 m 0
 614 352 716 454 841 454 c 0
 966 454 1068 352 1068 227 c 0
 1068 102 966 0 841 0 c 0
 716 0 614 102 614 227 c 0
614 1157 m 0
 614 1282 716 1384 841 1384 c 0
 966 1384 1068 1282 1068 1157 c 0
 1068 1032 966 930 841 930 c 0
 716 930 614 1032 614 1157 c 0
1514 558 m 1
 171 558 l 1
 171 823 l 1
 1514 823 l 1
 1514 558 l 1
EndSplineSet
EndChar

StartChar: dollar
Encoding: 36 36 106
Width: 1318
VWidth: 0
GlyphClass: 1
Flags: HW
PickledData: "(dp1
S'com.fontlab.hintData'
p2
(dp3
S'vhints'
p4
((dp5
S'position'
p6
I76
sS'width'
p7
I359
s(dp8
g6
I538
sg7
I162
s(dp9
g6
I823
sg7
I364
stp10
sS'hhints'
p11
((dp12
g6
I-7
sg7
I272
s(dp13
g6
I1128
sg7
I269
stp14
ss."
HStem: -7 288<570 575> 1196 285<570 583>
VStem: 81 381<1031 1104 1031 1171> 570 172<-337 -7 -7 -7 1482 1684> 872 386<391 466>
LayerCount: 2
Fore
SplineSet
1258 463 m 0
 1258 221 1058 16 742 -4 c 1
 742 -337 l 1
 570 -337 l 1
 570 -7 l 1
 424 -6 190 55 84 130 c 1
 139 410 l 1
 155 404 171 396 188 390 c 1
 246 348 438 287 575 281 c 1
 575 598 l 1
 341 651 81 734 81 1059 c 0
 81 1284 266 1448 570 1481 c 1
 570 1684 l 1
 742 1684 l 1
 742 1482 l 1
 869 1479 1064 1433 1155 1377 c 1
 1110 1097 l 1
 1091 1104 1074 1110 1055 1115 c 1
 968 1166 859 1191 737 1197 c 1
 737 909 l 1
 1096 838 1258 722 1258 463 c 0
872 435 m 0
 872 499 834 558 730 576 c 1
 730 282 l 1
 815 297 872 347 872 435 c 0
583 932 m 1
 583 1196 l 1
 520 1190 461 1147 461 1061 c 0
 461 1002 472 961 583 932 c 1
EndSplineSet
EndChar

StartChar: dotaccent
Encoding: 729 729 107
Width: 952
VWidth: 0
GlyphClass: 1
Flags: HW
PickledData: "(dp1
S'com.fontlab.hintData'
p2
(dp3
S'vhints'
p4
((dp5
S'position'
p6
I266
sS'width'
p7
I368
stp8
sS'hhints'
p9
((dp10
g6
I1250
sg7
I274
stp11
ss."
HStem: 1325 290<423 553>
VStem: 282 390<1321 1370 1321 1619 1321 1619>
LayerCount: 2
Fore
SplineSet
672 1321 m 1
 597 1323 525 1325 452 1325 c 0
 395 1325 341 1324 282 1321 c 1
 282 1619 l 1
 356 1617 429 1615 500 1615 c 2
 553 1615 l 2
 593 1615 633 1615 673 1616 c 1
 672 1517 672 1420 672 1321 c 1
EndSplineSet
EndChar

StartChar: dotlessi
Encoding: 305 305 108
Width: 650
VWidth: 0
GlyphClass: 1
Flags: HW
PickledData: "(dp1
S'com.fontlab.hintData'
p2
(dp3
S'vhints'
p4
((dp5
S'position'
p6
I128
sS'width'
p7
I358
stp8
sS'hhints'
p9
((dp10
g6
I0
sg7
I21
s(dp11
g6
I1078
sg7
I20
stp12
ss."
HStem: 0 22<136 515 136 136> 1143 21<136 515 515 515>
VStem: 136 379<0 1164>
LayerCount: 2
Fore
SplineSet
515 0 m 1
 136 0 l 1
 136 1164 l 1
 515 1164 l 1
 515 0 l 1
EndSplineSet
EndChar

StartChar: e
Encoding: 101 101 109
Width: 1279
VWidth: 0
GlyphClass: 1
Flags: HW
PickledData: "(dp1
S'com.fontlab.hintData'
p2
(dp3
S'vhints'
p4
((dp5
S'position'
p6
I51
sS'width'
p7
I359
stp8
sS'hhints'
p9
((dp10
g6
I-25
sg7
I257
s(dp11
g6
I466
sg7
I215
s(dp12
g6
I893
sg7
I229
stp13
ss."
HStem: -26 272<674 834 674 847> 494 228<435 845 435 1214 435 845> 947 243<580 705>
VStem: 54 381<494 494 494 722 494 778>
LayerCount: 2
Fore
SplineSet
1214 494 m 1
 435 494 l 1
 450 303 585 246 763 246 c 0
 905 246 1059 309 1136 373 c 1
 1195 102 l 1
 1105 38 966 -26 728 -26 c 0
 323 -26 54 156 54 577 c 0
 54 980 301 1189 670 1189 c 0
 1013 1189 1214 996 1214 652 c 2
 1214 494 l 1
845 722 m 1
 839 870 767 947 643 947 c 0
 517 947 439 868 435 722 c 1
 845 722 l 1
EndSplineSet
EndChar

StartChar: eight
Encoding: 56 56 114
Width: 1517
VWidth: 0
GlyphClass: 1
Flags: HW
PickledData: "(dp1
S'com.fontlab.hintData'
p2
(dp3
S'vhints'
p4
((dp5
S'position'
p6
I136
sS'width'
p7
I370
s(dp8
g6
I173
sg7
I374
s(dp9
g6
I892
sg7
I362
s(dp10
g6
I922
sg7
I374
stp11
sS'hhints'
p12
((dp13
g6
I-26
sg7
I267
s(dp14
g6
I1240
sg7
I265
stp15
ss."
HStem: -28 283<705 813 705 950> 1314 281<711 817>
VStem: 144 392<410 519> 183 396<1102 1207 1096 1274> 946 384 977 396<372 464>
LayerCount: 2
Fore
SplineSet
1374 445 m 0
 1374 172 1143 -28 758 -28 c 0
 348 -28 144 173 144 435 c 0
 144 604 236 713 408 791 c 1
 239 879 183 1046 183 1160 c 0
 183 1389 388 1595 761 1595 c 0
 1129 1595 1311 1432 1329 1223 c 1
 1333 1107 1269 919 1100 842 c 1
 1289 758 1374 620 1374 445 c 0
977 434 m 0
 977 494 973 655 668 688 c 1
 604 656 536 576 536 477 c 0
 536 342 637 255 774 255 c 0
 852 255 977 310 977 434 c 0
946 1142 m 0
 946 1248 871 1314 762 1314 c 0
 660 1314 580 1252 580 1162 c 0
 580 1031 657 1007 844 946 c 1
 898 988 946 1046 946 1142 c 0
EndSplineSet
EndChar

StartChar: ellipsis
Encoding: 8230 8230 115
Width: 2375
VWidth: 0
GlyphClass: 1
Flags: HW
PickledData: "(dp1
S'com.fontlab.hintData'
p2
(dp3
S'vhints'
p4
((dp5
S'position'
p6
I201
sS'width'
p7
I343
s(dp8
g6
I945
sg7
I348
s(dp9
g6
I1697
sg7
I344
stp10
sS'hhints'
p11
((dp12
g6
I-3
sg7
I376
stp13
ss."
HStem: -3 399
VStem: 213 364<198 199> 1002 369 1799 365<105 265>
LayerCount: 2
Fore
SplineSet
2169 0 m 1
 1795 0 l 1
 1796 43 1799 85 1799 125 c 0
 1799 148 1798 171 1798 193 c 0
 1798 261 1796 327 1795 395 c 1
 2169 395 l 1
 2165 341 2163 291 2163 240 c 0
 2163 159 2168 82 2169 0 c 1
583 0 m 1
 210 0 l 1
 212 55 213 108 213 159 c 0
 213 239 212 314 210 395 c 1
 583 395 l 1
 580 341 577 287 577 237 c 0
 577 157 580 81 583 0 c 1
1371 -3 m 1
 1248 -1 1124 0 1002 0 c 1
 1005 137 1007 268 1007 402 c 1
 1129 399 1254 395 1375 395 c 1
 1373 260 1371 128 1371 -3 c 1
EndSplineSet
EndChar

StartChar: emdash
Encoding: 8212 8212 116
Width: 2069
VWidth: 0
GlyphClass: 1
Flags: HW
PickledData: "(dp1
S'com.fontlab.hintData'
p2
(dp3
S'hhints'
p4
((dp5
S'position'
p6
I497
sS'width'
p7
I262
stp8
ss."
HStem: 527 278<-50 2120 -50 2120>
LayerCount: 2
Fore
SplineSet
2120 527 m 1
 -50 527 l 1
 -50 805 l 1
 2120 805 l 1
 2120 527 l 1
EndSplineSet
EndChar

StartChar: endash
Encoding: 8211 8211 117
Width: 1340
VWidth: 0
GlyphClass: 1
Flags: HW
PickledData: "(dp1
S'com.fontlab.hintData'
p2
(dp3
S'hhints'
p4
((dp5
S'position'
p6
I497
sS'width'
p7
I262
stp8
ss."
HStem: 527 278<-50 1391 -50 1391>
LayerCount: 2
Fore
SplineSet
1391 527 m 1
 -50 527 l 1
 -50 805 l 1
 1391 805 l 1
 1391 527 l 1
EndSplineSet
EndChar

StartChar: equal
Encoding: 61 61 118
Width: 1685
VWidth: 0
GlyphClass: 1
Flags: HW
PickledData: "(dp1
S'com.fontlab.hintData'
p2
(dp3
S'hhints'
p4
((dp5
S'position'
p6
I242
sS'width'
p7
I249
s(dp8
g6
I730
sg7
I249
stp9
ss."
HStem: 257 264<192 1496 192 1496> 774 264<192 1496 192 1496>
LayerCount: 2
Fore
SplineSet
1496 774 m 1
 192 774 l 1
 192 1038 l 1
 1496 1038 l 1
 1496 774 l 1
1496 257 m 1
 192 257 l 1
 192 520 l 1
 1496 520 l 1
 1496 257 l 1
EndSplineSet
EndChar

StartChar: estimated
Encoding: 8494 8494 119
Width: 1896
VWidth: 0
GlyphClass: 1
Flags: HW
PickledData: "(dp1
S'com.fontlab.hintData'
p2
(dp3
S'vhints'
p4
((dp5
S'position'
p6
I70
sS'width'
p7
I303
s(dp8
g6
I1415
sg7
I303
s(dp9
g6
I1427
sg7
I117
stp10
sS'hhints'
p11
((dp12
g6
I-10
sg7
I41
s(dp13
g6
I709
sg7
I39
s(dp14
g6
I1425
sg7
I45
stp15
ss."
HStem: -11 43<843 1061 843 1086> 752 41<403 1491 406 1491 1491 1495 406 1821> 1510 48<844 1052>
VStem: 74 321<554 742 805 808 808 989> 1500 321<752 1237> 1513 124<293 293>
LayerCount: 2
Fore
SplineSet
1500 808 m 2
 1500 1237 l 2
 1500 1255 1494 1274 1481 1287 c 0
 1342 1422 1157 1510 948 1510 c 0
 741 1510 551 1419 414 1280 c 0
 401 1267 395 1248 395 1226 c 2
 395 808 l 2
 395 802 400 793 406 793 c 2
 1491 793 l 2
 1497 793 1500 802 1500 808 c 2
1821 752 m 1
 406 752 l 2
 400 752 395 749 395 742 c 2
 395 315 l 2
 395 296 401 278 412 265 c 1
 549 124 739 33 948 33 c 0
 1174 33 1374 135 1513 293 c 1
 1637 293 l 1
 1483 109 1228 -11 946 -11 c 0
 465 -11 74 339 74 771 c 0
 74 1208 465 1558 946 1558 c 0
 1431 1558 1821 1208 1821 771 c 2
 1821 752 l 1
EndSplineSet
EndChar

StartChar: eth
Encoding: 240 240 120
Width: 1085
VWidth: 0
GlyphClass: 1
Flags: HW
PickledData: "(dp1
S'com.fontlab.hintData'
p2
(dp3
S'vhints'
p4
((dp5
S'position'
p6
I84
sS'width'
p7
I209
s(dp8
g6
I732
sg7
I209
stp9
sS'hhints'
p10
((dp11
g6
I-12
sg7
I209
s(dp12
g6
I842
sg7
I209
s(dp13
g6
I1106
sg7
I21
stp14
ss."
HStem: -13 222<506 582 506 630> 893 222<506 568 448 582> 1172 22<408 408>
VStem: 89 222<471 631 471 669> 776 222<470 630>
LayerCount: 2
Fore
SplineSet
408 1172 m 1
 325 1292 l 1
 506 1385 l 1
 452 1419 389 1448 313 1474 c 1
 382 1637 l 1
 512 1598 618 1545 700 1485 c 1
 925 1602 l 1
 1008 1483 l 1
 813 1381 l 1
 983 1174 997 1033 997 586 c 0
 997 315 983 242 878 128 c 1
 818 60 716 -13 544 -13 c 0
 372 -13 269 60 209 128 c 0
 124 221 89 313 89 551 c 0
 89 787 124 879 209 973 c 0
 269 1040 372 1114 525 1114 c 0
 611 1114 695 1089 761 1015 c 1
 765 1021 l 1
 743 1129 694 1220 629 1285 c 1
 408 1172 l 1
776 549 m 0
 776 710 763 754 722 812 c 0
 689 858 620 893 544 893 c 0
 468 893 398 858 365 812 c 0
 324 754 311 710 311 551 c 0
 311 391 324 347 365 288 c 0
 398 242 468 209 544 209 c 0
 620 209 689 242 722 288 c 0
 763 347 776 391 776 549 c 0
EndSplineSet
EndChar

StartChar: exclam
Encoding: 33 33 121
Width: 677
VWidth: 0
GlyphClass: 1
Flags: HW
PickledData: "(dp1
S'com.fontlab.hintData'
p2
(dp3
S'vhints'
p4
((dp5
S'position'
p6
I156
sS'width'
p7
I363
s(dp8
g6
I218
sg7
I235
stp9
sS'hhints'
p10
((dp11
g6
I-39
sg7
I325
s(dp12
g6
I1459
sg7
I20
stp13
ss."
HStem: -41 344 1547 21<153 559 559 559>
VStem: 165 385 231 249<434 434>
LayerCount: 2
Fore
SplineSet
559 1568 m 1
 480 434 l 1
 231 434 l 1
 153 1568 l 1
 559 1568 l 1
562 -41 m 1
 163 -41 l 1
 163 43 164 124 165 207 c 1
 161 237 157 265 153 295 c 1
 285 297 418 300 550 303 c 1
 553 189 558 75 562 -41 c 1
EndSplineSet
EndChar

StartChar: exclamdown
Encoding: 161 161 122
Width: 677
VWidth: 0
GlyphClass: 1
Flags: HW
PickledData: "(dp1
S'com.fontlab.hintData'
p2
(dp3
S'vhints'
p4
((dp5
S'position'
p6
I112
sS'width'
p7
I384
s(dp8
g6
I141
sg7
I327
stp9
sS'hhints'
p10
((dp11
g6
I1080
sg7
I257
stp12
ss."
HStem: 1145 272<283 422>
VStem: 119 407<-152 -152> 149 347<985 985>
LayerCount: 2
Fore
SplineSet
526 -152 m 1
 119 -152 l 1
 149 985 l 1
 496 985 l 1
 526 -152 l 1
550 1142 m 1
 470 1144 392 1145 314 1145 c 0
 253 1145 193 1145 129 1142 c 1
 129 1419 l 1
 209 1417 287 1417 364 1417 c 2
 422 1417 l 2
 465 1417 506 1418 551 1418 c 1
 550 1325 550 1234 550 1142 c 1
EndSplineSet
EndChar

StartChar: f
Encoding: 102 102 123
Width: 800
VWidth: 0
GlyphClass: 1
Flags: HW
PickledData: "(dp1
S'com.fontlab.hintData'
p2
(dp3
S'vhints'
p4
((dp5
S'position'
p6
I160
sS'width'
p7
I358
stp8
sS'hhints'
p9
((dp10
g6
I0
sg7
I21
s(dp11
g6
I862
sg7
I236
s(dp12
g6
I1273
sg7
I255
stp13
ss."
HStem: 0 22<170 549 170 170> 914 250<25 170 25 170 549 802 549 549> 1349 270<635 650 458 703>
VStem: 170 379<0 914 0 914 0 1207 0 1349>
LayerCount: 2
Fore
SplineSet
835 1336 m 1
 775 1342 724 1349 682 1349 c 0
 589 1349 540 1315 540 1164 c 1
 802 1164 l 1
 802 914 l 1
 549 914 l 1
 549 0 l 1
 170 0 l 1
 170 914 l 1
 25 914 l 1
 25 1164 l 1
 170 1164 l 1
 170 1207 l 2
 170 1490 307 1620 608 1620 c 0
 691 1620 774 1613 835 1606 c 1
 835 1336 l 1
EndSplineSet
EndChar

StartChar: f_i
Encoding: 64257 64257 124
Width: 1126
VWidth: 0
GlyphClass: 1
Flags: HW
PickledData: "(dp1
S'com.fontlab.hintData'
p2
(dp3
S'vhints'
p4
((dp5
S'position'
p6
I168
sS'width'
p7
I209
s(dp8
g6
I714
sg7
I209
stp9
sS'hhints'
p10
((dp11
g6
I0
sg7
I21
s(dp12
g6
I879
sg7
I159
s(dp13
g6
I1249
sg7
I209
stp14
ss."
HStem: 0 22<178 178 178 400 757 757 757 978> 932 169<67 178 67 178 400 622> 1324 222<479 757 757 978>
VStem: 178 222<0 932 0 932 1100 1247> 757 222<0 1100 0 1100 1324 1545>
LayerCount: 2
Fore
SplineSet
757 1324 m 1
 757 1545 l 1
 978 1545 l 1
 978 1324 l 1
 757 1324 l 1
757 0 m 1
 757 1100 l 1
 978 1100 l 1
 978 0 l 1
 757 0 l 1
178 0 m 1
 178 932 l 1
 67 932 l 1
 67 1100 l 1
 178 1100 l 1
 178 1247 l 2
 178 1453 307 1545 479 1545 c 2
 622 1545 l 1
 622 1338 l 1
 495 1338 l 2
 423 1338 400 1314 400 1247 c 2
 400 1100 l 1
 622 1100 l 1
 622 932 l 1
 400 932 l 1
 400 0 l 1
 178 0 l 1
EndSplineSet
EndChar

StartChar: f_l
Encoding: 64258 64258 125
Width: 1167
VWidth: 0
GlyphClass: 1
Flags: HW
PickledData: "(dp1
S'com.fontlab.hintData'
p2
(dp3
S'vhints'
p4
((dp5
S'position'
p6
I168
sS'width'
p7
I209
s(dp8
g6
I714
sg7
I209
stp9
sS'hhints'
p10
((dp11
g6
I0
sg7
I197
s(dp12
g6
I879
sg7
I159
s(dp13
g6
I1262
sg7
I196
stp14
ss."
HStem: 0 209<958 1136 1060 1136 1060 1136> 932 169<67 178 67 178 400 622> 1338 208<479 495 495 622>
VStem: 178 222<0 932 0 932 1100 1247> 757 222<267 284 284 1545>
LayerCount: 2
Fore
SplineSet
757 267 m 2
 757 1545 l 1
 978 1545 l 1
 978 284 l 2
 978 234 1006 209 1060 209 c 2
 1136 209 l 1
 1136 0 l 1
 1039 0 l 2
 878 0 757 70 757 267 c 2
178 0 m 1
 178 932 l 1
 67 932 l 1
 67 1100 l 1
 178 1100 l 1
 178 1247 l 2
 178 1453 307 1545 479 1545 c 2
 622 1545 l 1
 622 1338 l 1
 495 1338 l 2
 423 1338 400 1314 400 1247 c 2
 400 1100 l 1
 622 1100 l 1
 622 932 l 1
 400 932 l 1
 400 0 l 1
 178 0 l 1
EndSplineSet
EndChar

StartChar: five
Encoding: 53 53 126
Width: 1318
VWidth: 0
GlyphClass: 1
Flags: HW
PickledData: "(dp1
S'com.fontlab.hintData'
p2
(dp3
S'vhints'
p4
((dp5
S'position'
p6
I116
sS'width'
p7
I73
s(dp8
g6
I142
sg7
I358
s(dp9
g6
I789
sg7
I380
stp10
sS'hhints'
p11
((dp12
g6
I-24
sg7
I295
s(dp13
g6
I713
sg7
I276
s(dp14
g6
I1196
sg7
I283
stp15
ss."
HStem: -25 313<512 667 484 820> 756 293<488 865> 1268 300<530 1191 530 530>
VStem: 123 77<127 436 436 436> 151 379<1015 1268 1015 1568 1015 1568> 836 403<456 617>
LayerCount: 2
Fore
SplineSet
573 287 m 0
 761 287 836 377 836 534 c 0
 836 699 684 756 540 756 c 0
 437 756 341 724 267 683 c 1
 151 691 l 1
 151 1568 l 1
 1191 1568 l 1
 1191 1268 l 1
 530 1268 l 1
 530 1015 l 1
 589 1036 661 1048 708 1048 c 0
 1023 1048 1239 907 1239 540 c 0
 1239 170 1014 -25 626 -25 c 0
 397 -25 225 34 123 127 c 1
 123 436 l 1
 200 436 l 1
 197 405 395 287 573 287 c 0
EndSplineSet
EndChar

StartChar: florin
Encoding: 402 402 127
Width: 1321
VWidth: 0
GlyphClass: 1
Flags: HW
PickledData: "(dp1
S'com.fontlab.hintData'
p2
(dp3
S'hhints'
p4
((dp5
S'position'
p6
I-256
sS'width'
p7
I274
s(dp8
g6
I674
sg7
I213
s(dp9
g6
I1229
sg7
I275
stp10
ss."
HStem: -271 290<216 286 180 377> 714 226<311 467 301 500 886 1124> 1303 292<1014 1094 946 1118>
LayerCount: 2
Fore
SplineSet
1243 1285 m 1
 1221 1287 1149 1303 1088 1303 c 0
 942 1303 920 1201 906 1100 c 1
 886 940 l 1
 1133 940 l 1
 1124 714 l 1
 849 714 l 1
 767 194 l 2
 714 -149 509 -271 245 -271 c 0
 188 -271 87 -262 39 -251 c 1
 53 40 l 1
 86 40 144 19 216 19 c 0
 356 19 403 221 414 363 c 1
 467 714 l 1
 301 714 l 1
 311 940 l 1
 500 940 l 1
 532 1147 l 2
 591 1528 825 1594 1066 1594 c 0
 1121 1594 1195 1589 1256 1577 c 1
 1243 1285 l 1
EndSplineSet
EndChar

StartChar: four
Encoding: 52 52 128
Width: 1320
VWidth: 0
GlyphClass: 1
Flags: HW
PickledData: "(dp1
S'com.fontlab.hintData'
p2
(dp3
S'vhints'
p4
((dp5
S'position'
p6
I634
sS'width'
p7
I209
stp8
sS'hhints'
p9
((dp10
g6
I0
sg7
I21
s(dp11
g6
I217
sg7
I197
stp12
ss."
HStem: 0 22<672 894 672 672> 230 209<26 26 267 672 894 1017>
VStem: 672 222<0 230 0 230 439 884>
LayerCount: 2
Fore
SplineSet
26 230 m 1
 26 439 l 1
 544 1545 l 1
 791 1545 l 1
 267 439 l 1
 672 439 l 1
 672 884 l 1
 894 884 l 1
 894 439 l 1
 1017 439 l 1
 1017 230 l 1
 894 230 l 1
 894 0 l 1
 672 0 l 1
 672 230 l 1
 26 230 l 1
EndSplineSet
EndChar

StartChar: fraction
Encoding: 8260 8260 129
Width: 817
VWidth: 0
GlyphClass: 1
Flags: HW
PickledData: "(dp1
S'com.fontlab.hintData'
p2
(dp3
S'hhints'
p4
((dp5
S'position'
p6
I-13
sS'width'
p7
I21
s(dp8
g6
I1472
sg7
I20
stp9
ss."
HStem: -14 22<-194 100 -194 -194> 1560 21<706 999 999 999>
LayerCount: 2
Fore
SplineSet
999 1582 m 1
 100 -14 l 1
 -194 -14 l 1
 706 1582 l 1
 999 1582 l 1
EndSplineSet
EndChar

StartChar: g
Encoding: 103 103 130
Width: 1339
VWidth: 0
GlyphClass: 1
Flags: HW
PickledData: "(dp1
S'com.fontlab.hintData'
p2
(dp3
S'vhints'
p4
((dp5
S'position'
p6
I57
sS'width'
p7
I365
s(dp8
g6
I772
sg7
I367
stp9
sS'hhints'
p10
((dp11
g6
I-426
sg7
I267
s(dp12
g6
I7
sg7
I257
s(dp13
g6
I857
sg7
I265
s(dp14
g6
I1078
sg7
I20
stp15
ss."
HStem: -452 283<506 652 482 756> 7 272<578 588> 908 281<361 696> 1143 21<816 1207 1207 1207>
VStem: 60 387<496 703 496 781> 818 389<336 880 880 880 1029 1029>
LayerCount: 2
Fore
SplineSet
447 613 m 0
 447 379 496 280 659 280 c 0
 720 280 775 305 818 336 c 1
 818 880 l 1
 769 900 716 908 676 908 c 0
 533 908 447 793 447 613 c 0
60 606 m 0
 60 956 209 1189 514 1189 c 0
 636 1189 735 1147 818 1029 c 1
 816 1164 l 1
 1207 1164 l 1
 1207 99 l 2
 1207 -319 922 -452 590 -452 c 0
 420 -452 260 -407 152 -351 c 1
 214 -86 l 1
 302 -126 428 -169 535 -169 c 0
 769 -169 827 -84 827 124 c 1
 755 57 638 7 538 7 c 0
 180 7 60 207 60 606 c 0
EndSplineSet
EndChar

StartChar: germandbls
Encoding: 223 223 131
Width: 1388
VWidth: 0
GlyphClass: 1
Flags: HW
PickledData: "(dp1
S'com.fontlab.hintData'
p2
(dp3
S'vhints'
p4
((dp5
S'position'
p6
I124
sS'width'
p7
I359
s(dp8
g6
I820
sg7
I350
s(dp9
g6
I884
sg7
I358
stp10
sS'hhints'
p11
((dp12
g6
I0
sg7
I15
s(dp13
g6
I698
sg7
I273
s(dp14
g6
I1279
sg7
I253
stp15
ss."
HStem: 0 16 740 289<673 728 673 777> 1356 268
VStem: 131 381<0 1093 1093 1119 0 1264> 869 371<1156 1253> 937 379
LayerCount: 2
Fore
SplineSet
1317 428 m 0
 1317 125 1113 -6 789 -6 c 0
 768 -6 725 -2 677 -1 c 1
 677 288 l 1
 703 288 742 279 796 279 c 1
 790 282 781 283 775 283 c 1
 863 283 908 328 926 448 c 0
 931 477 935 511 937 551 c 0
 942 700 881 740 673 740 c 1
 673 1029 l 1
 782 1029 869 1056 869 1199 c 0
 869 1308 818 1358 694 1356 c 0
 520 1353 512 1250 512 1119 c 2
 512 0 l 1
 131 0 l 1
 131 1093 l 2
 131 1434 320 1624 701 1624 c 0
 1050 1624 1240 1464 1240 1242 c 0
 1240 1069 1123 941 974 917 c 1
 1014 899 1032 867 1032 824 c 1
 1203 758 1317 610 1317 428 c 0
EndSplineSet
EndChar

StartChar: grave
Encoding: 96 96 132
Width: 949
VWidth: 0
GlyphClass: 1
Flags: HW
PickledData: "(dp1
S'com.fontlab.hintData'
p2
(dp3
S'vhints'
p4
((dp5
S'position'
p6
I147
sS'width'
p7
I566
stp8
sS'hhints'
p9
((dp10
g6
I1239
sg7
I366
stp11
ss."
HStem: 1313 388<491 527 156 756 491 491>
VStem: 156 600<1313 1701>
LayerCount: 2
Fore
SplineSet
756 1313 m 1
 491 1313 l 1
 156 1701 l 1
 527 1701 l 1
 756 1313 l 1
EndSplineSet
EndChar

StartChar: greater
Encoding: 62 62 133
Width: 1685
VWidth: 0
GlyphClass: 1
Flags: HW
PickledData: "(dp1
S'com.fontlab.hintData'
p2
(dp3
S'hhints'
p4
((dp5
S'position'
p6
I-15
sS'width'
p7
I21
stp8
ss."
HStem: -16 22<171 171>
LayerCount: 2
Fore
SplineSet
1542 529 m 1
 171 -16 l 1
 171 264 l 1
 1149 647 l 1
 171 1028 l 1
 171 1308 l 1
 1542 762 l 1
 1542 529 l 1
EndSplineSet
EndChar

StartChar: greaterequal
Encoding: 8805 8805 134
Width: 1368
VWidth: 0
GlyphClass: 1
Flags: HW
PickledData: "(dp1
S'com.fontlab.hintData'
p2
(dp3
S'hhints'
p4
((dp5
S'position'
p6
I1
sS'width'
p7
I177
stp8
ss."
HStem: 1 188<197 1172 197 1172>
LayerCount: 2
Fore
SplineSet
1160 684 m 1
 214 248 l 1
 214 464 l 1
 933 765 l 1
 933 770 l 1
 214 1083 l 1
 214 1301 l 1
 1160 851 l 1
 1160 684 l 1
1172 1 m 1
 197 1 l 1
 197 189 l 1
 1172 189 l 1
 1172 1 l 1
EndSplineSet
EndChar

StartChar: guillemotleft
Encoding: 171 171 135
Width: 1455
VWidth: 0
GlyphClass: 1
Flags: HW
PickledData: "(dp1
S'com.fontlab.hintData'
p2
(dp3
S'hhints'
p4
((dp5
S'position'
p6
I158
sS'width'
p7
I213
stp8
ss."
HStem: 167 226<699 704>
LayerCount: 2
Fore
SplineSet
704 167 m 1
 461 360 l 1
 357 447 251 535 147 622 c 1
 165 705 l 1
 693 1144 l 1
 704 923 l 1
 374 655 l 1
 699 393 l 1
 704 167 l 1
1181 182 m 1
 993 322 816 475 636 623 c 1
 654 704 l 1
 650 702 646 698 643 696 c 2
 1169 1130 l 1
 1181 914 l 1
 858 655 l 1
 1174 403 l 1
 1181 182 l 1
EndSplineSet
EndChar

StartChar: guillemotright
Encoding: 187 187 136
Width: 1456
VWidth: 0
GlyphClass: 1
Flags: HW
PickledData: "(dp1
S'com.fontlab.hintData'
p2
(dp3
S'hhints'
p4
((dp5
S'position'
p6
I855
sS'width'
p7
I208
stp8
ss."
HStem: 906 220<93 101>
LayerCount: 2
Fore
SplineSet
640 625 m 1
 526 531 411 435 297 340 c 1
 92 184 l 1
 94 404 l 1
 417 655 l 1
 312 739 207 823 101 906 c 1
 93 1127 l 1
 255 1004 412 875 569 747 c 0
 610 714 618 708 622 704 c 1
 640 625 l 1
1259 625 m 1
 1076 472 891 321 711 165 c 1
 696 387 l 1
 1029 655 l 1
 921 743 811 833 703 920 c 1
 704 1147 l 1
 759 1100 814 1056 869 1011 c 2
 1160 773 l 2
 1182 755 1209 730 1238 708 c 1
 1259 625 l 1
EndSplineSet
EndChar

StartChar: guilsinglleft
Encoding: 8249 8249 137
Width: 844
VWidth: 0
GlyphClass: 1
Flags: HW
PickledData: "(dp1
S'com.fontlab.hintData'
p2
(dp3
S'vhints'
p4
((dp5
S'position'
p6
I106
sS'width'
p7
I534
stp8
sS'hhints'
p9
((dp10
g6
I822
sg7
I296
stp11
ss."
HStem: 871 314<684 686>
VStem: 112 566<151 619>
LayerCount: 2
Fore
SplineSet
678 151 m 1
 491 309 302 463 112 619 c 1
 132 740 l 1
 123 734 l 1
 686 1185 l 1
 684 871 l 1
 425 668 l 1
 577 547 l 2
 613 519 647 489 682 463 c 1
 680 359 678 256 678 151 c 1
EndSplineSet
EndChar

StartChar: guilsinglright
Encoding: 8250 8250 138
Width: 844
VWidth: 0
GlyphClass: 1
Flags: HW
PickledData: "(dp1
S'com.fontlab.hintData'
p2
(dp3
S'vhints'
p4
((dp5
S'position'
p6
I157
sS'width'
p7
I533
stp8
sS'hhints'
p9
((dp10
g6
I1096
sg7
I20
stp11
ss."
HStem: 1162 21<166 166>
VStem: 166 565<151 617 463 617>
LayerCount: 2
Fore
SplineSet
731 617 m 1
 614 522 499 427 382 333 c 1
 166 151 l 1
 166 463 l 1
 421 667 l 1
 334 734 249 802 163 871 c 1
 166 1183 l 1
 382 1002 l 1
 492 913 603 817 719 731 c 1
 731 617 l 1
EndSplineSet
EndChar

StartChar: h
Encoding: 104 104 139
Width: 1371
VWidth: 0
GlyphClass: 1
Flags: HW
PickledData: "(dp1
S'com.typemytype.robofont.layerData'
p2
(dp3
sS'com.fontlab.hintData'
p4
(dp5
S'vhints'
p6
((dp7
S'position'
p8
I126
sS'width'
p9
I358
s(dp10
g8
I814
sg9
I361
stp11
sS'hhints'
p12
((dp13
g8
I0
sg9
I21
s(dp14
g8
I832
sg9
I290
s(dp15
g8
I1500
sg9
I20
stp16
ss."
HStem: 0 22<134 513 134 134 863 1246 863 863> 882 307<643 973> 1590 21<134 513 513 513>
VStem: 134 379<0 785 975 1611> 863 383<0 625 625 715>
LayerCount: 2
Fore
SplineSet
513 1611 m 1
 513 975 l 1
 540 1011 l 1
 629 1124 726 1189 861 1189 c 0
 1086 1189 1246 1041 1246 764 c 2
 1246 0 l 1
 863 0 l 1
 863 625 l 2
 863 804 825 882 689 882 c 0
 598 882 513 856 513 785 c 2
 513 0 l 1
 134 0 l 1
 134 1611 l 1
 513 1611 l 1
EndSplineSet
EndChar

StartChar: hungarumlaut
Encoding: 733 733 140
Width: 945
VWidth: 0
GlyphClass: 1
Flags: HW
PickledData: "(dp1
S'com.fontlab.hintData'
p2
(dp3
S'vhints'
p4
((dp5
S'position'
p6
I187
sS'width'
p7
I630
stp8
sS'hhints'
p9
((dp10
g6
I1239
sg7
I366
stp11
ss."
HStem: 1313 388<198 525 198 525 390 435 435 525 525 568>
VStem: 198 668<1313 1701>
LayerCount: 2
Fore
SplineSet
435 1313 m 1
 332 1313 l 1
 198 1313 l 1
 390 1701 l 1
 525 1701 l 1
 732 1701 l 1
 866 1701 l 1
 568 1313 l 1
 435 1313 l 1
EndSplineSet
EndChar

StartChar: hyphen
Encoding: 45 45 141
Width: 944
VWidth: 0
GlyphClass: 1
Flags: HW
PickledData: "(dp1
S'com.fontlab.hintData'
p2
(dp3
S'hhints'
p4
((dp5
S'position'
p6
I489
sS'width'
p7
I279
stp8
ss."
HStem: 518 296<107 836 107 836>
LayerCount: 2
Fore
SplineSet
836 518 m 1
 107 518 l 1
 107 814 l 1
 836 814 l 1
 836 518 l 1
EndSplineSet
EndChar

StartChar: i
Encoding: 105 105 142
Width: 650
VWidth: 0
GlyphClass: 1
Flags: HW
PickledData: "(dp1
S'com.fontlab.hintData'
p2
(dp3
S'vhints'
p4
((dp5
S'position'
p6
I99
sS'width'
p7
I414
s(dp8
g6
I128
sg7
I358
stp9
sS'hhints'
p10
((dp11
g6
I0
sg7
I21
s(dp12
g6
I1078
sg7
I20
s(dp13
g6
I1242
sg7
I397
stp14
ss."
HStem: 0 22<136 136 136 515> 1143 21<136 516 516 516> 1317 421
VStem: 105 439 136 379
LayerCount: 2
Fore
SplineSet
325 1676.96679688 m 4
 471 1676.96679688 545 1570.96679688 545 1465.96679688 c 4
 545 1360.96679688 472 1255.96679688 325 1255.96679688 c 4
 179 1255.96679688 105 1361.96679688 105 1466.96679688 c 4
 105 1571.96679688 178 1676.96679688 325 1676.96679688 c 4
136 0 m 1
 136 1103.96679688 l 5
 516 1103.96679688 l 5
 515 0 l 1
 136 0 l 1
EndSplineSet
EndChar

StartChar: infinity
Encoding: 8734 8734 147
Width: 1690
VWidth: 0
GlyphClass: 1
Flags: HW
PickledData: "(dp1
S'com.fontlab.hintData'
p2
(dp3
S'vhints'
p4
((dp5
S'position'
p6
I78
sS'width'
p7
I190
s(dp8
g6
I1330
sg7
I191
stp9
sS'hhints'
p10
((dp11
g6
I222
sg7
I177
s(dp12
g6
I789
sg7
I174
stp13
ss."
HStem: 235 188<423 534 423 537> 836 184<419 532>
VStem: 83 201<569 687 569 739> 1410 202<567 682>
LayerCount: 2
Fore
SplineSet
848 484 m 1
 741 328 618 235 457 235 c 0
 244 235 83 397 83 631 c 0
 83 847 248 1021 461 1021 c 0
 622 1021 747 928 850 767 c 1
 951 912 1075 1014 1241 1014 c 0
 1458 1013 1612 856 1612 623 c 0
 1612 399 1443 229 1236 229 c 0
 1088 229 962 308 848 484 c 1
753 625 m 1
 672 754 587 836 477 836 c 0
 360 836 284 747 284 628 c 0
 284 510 364 423 481 423 c 0
 586 423 673 503 753 625 c 1
944 623 m 1
 1038 482 1119 416 1219 416 c 0
 1333 416 1410 512 1410 621 c 0
 1410 743 1330 830 1216 830 c 0
 1110 830 1018 737 944 623 c 1
EndSplineSet
EndChar

StartChar: integral
Encoding: 8747 8747 148
Width: 1076
VWidth: 0
GlyphClass: 1
Flags: HW
PickledData: "(dp1
S'com.fontlab.hintData'
p2
(dp3
S'vhints'
p4
((dp5
S'position'
p6
I379
sS'width'
p7
I268
stp8
sS'hhints'
p9
((dp10
g6
I-436
sg7
I213
s(dp11
g6
I1411
sg7
I208
stp12
ss."
HStem: -462 226<255 295 229 404> 1496 220<794 827 669 852>
VStem: 402 284<118 228>
LayerCount: 2
Fore
SplineSet
938 1471 m 1
 904 1486 869 1496 834 1496 c 0
 753 1496 707 1451 697 1364 c 1
 681 1301 676 1217 676 1109 c 0
 676 792 686 478 686 152 c 0
 686 85 685 21 684 -43 c 1
 674 -320 521 -462 287 -462 c 0
 222 -462 167 -451 128 -437 c 1
 140 -212 l 1
 175 -227 212 -236 247 -236 c 0
 343 -236 402 -180 402 20 c 0
 402 436 392 840 392 1247 c 0
 392 1550 543 1716 796 1716 c 0
 857 1716 911 1708 948 1695 c 1
 938 1471 l 1
EndSplineSet
EndChar

StartChar: j
Encoding: 106 106 149
Width: 752
VWidth: 0
GlyphClass: 1
Flags: HW
PickledData: "(dp1
S'com.fontlab.hintData'
p2
(dp3
S'vhints'
p4
((dp5
S'position'
p6
I190
sS'width'
p7
I414
s(dp8
g6
I216
sg7
I360
stp9
sS'hhints'
p10
((dp11
g6
I-419
sg7
I264
s(dp12
g6
I1078
sg7
I20
s(dp13
g6
I1242
sg7
I397
stp14
ss."
HStem: -444 280<26 297> 1143 21<229 611 611 611> 1317 421
VStem: 201 439 229 382<110 1164>
LayerCount: 2
Fore
SplineSet
421 1676.96679688 m 4
 567 1676.96679688 641 1570.96679688 641 1465.96679688 c 4
 641 1360.96679688 568 1255.96679688 421 1255.96679688 c 4
 275 1255.96679688 202 1361.96679688 202 1466.96679688 c 4
 202 1571.96679688 274 1676.96679688 421 1676.96679688 c 4
167 -444 m 0
 50 -444 -35 -432 -71 -428 c 1
 -71 -156 l 1
 -30 -160 8 -164 43 -164 c 0
 157 -164 229 -119 229 110 c 2
 229 1103.96679688 l 5
 611 1103.96679688 l 5
 611 -61 l 2
 611 -308 427 -444 167 -444 c 0
EndSplineSet
EndChar

StartChar: k
Encoding: 107 107 150
Width: 1308
VWidth: 0
GlyphClass: 1
Flags: HW
PickledData: "(dp1
S'com.fontlab.hintData'
p2
(dp3
S'vhints'
p4
((dp5
S'position'
p6
I123
sS'width'
p7
I360
stp8
sS'hhints'
p9
((dp10
g6
I0
sg7
I21
s(dp11
g6
I1501
sg7
I20
stp12
ss."
HStem: 0 22<130 512 130 130 877 1273 877 877> 1591 21<130 512 512 512>
VStem: 130 382<0 406 0 712 712 1612>
LayerCount: 2
Fore
SplineSet
1273 0 m 1
 877 0 l 1
 595 516 l 1
 512 406 l 1
 512 0 l 1
 130 0 l 1
 130 1612 l 1
 512 1612 l 1
 512 712 l 1
 513 712 l 1
 845 1162 l 1
 1252 1162 l 1
 1252 1112 l 1
 907 688 l 1
 1274 88 l 1
 1273 0 l 1
EndSplineSet
EndChar

StartChar: l
Encoding: 108 108 151
Width: 707
VWidth: 0
GlyphClass: 1
Flags: HW
PickledData: "(dp1
S'com.fontlab.hintData'
p2
(dp3
S'vhints'
p4
((dp5
S'position'
p6
I126
sS'width'
p7
I358
stp8
sS'hhints'
p9
((dp10
g6
I0
sg7
I241
s(dp11
g6
I1500
sg7
I20
stp12
ss."
HStem: 0 255<355 668 591 668 591 668> 1590 21<134 513 513 513>
VStem: 134 379<400 1611>
LayerCount: 2
Fore
SplineSet
513 1611 m 1
 513 400 l 2
 513 336 515 255 668 255 c 1
 668 0 l 1
 576 0 l 2
 134 0 134 196 134 400 c 2
 134 1611 l 1
 513 1611 l 1
EndSplineSet
EndChar

StartChar: less
Encoding: 60 60 152
Width: 1685
VWidth: 0
GlyphClass: 1
Flags: HW
PickledData: "(dp1
S'com.fontlab.hintData'
p2
(dp3
S'hhints'
p4
((dp5
S'position'
p6
I-15
sS'width'
p7
I21
stp8
ss."
HStem: -16 22<1516 1516>
LayerCount: 2
Fore
SplineSet
1516 -16 m 1
 143 530 l 1
 143 763 l 1
 1516 1308 l 1
 1516 1028 l 1
 809 755 l 1
 706 722 604 689 501 655 c 1
 595 619 691 583 785 548 c 1
 1516 264 l 1
 1516 -16 l 1
EndSplineSet
EndChar

StartChar: lessequal
Encoding: 8804 8804 153
Width: 1431
VWidth: 0
GlyphClass: 1
Flags: HW
PickledData: "(dp1
S'com.fontlab.hintData'
p2
(dp3
S'hhints'
p4
((dp5
S'position'
p6
I1
sS'width'
p7
I177
stp8
ss."
HStem: 1 188<207 1225 207 1225>
LayerCount: 2
Fore
SplineSet
1211 248 m 1
 224 684 l 1
 224 852 l 1
 1211 1301 l 1
 1211 1083 l 1
 464 772 l 1
 464 767 l 1
 1211 464 l 1
 1211 248 l 1
1225 1 m 1
 207 1 l 1
 207 189 l 1
 1225 189 l 1
 1225 1 l 1
EndSplineSet
EndChar

StartChar: logicalnot
Encoding: 172 172 154
Width: 1684
VWidth: 0
GlyphClass: 1
Flags: HW
PickledData: "(dp1
S'com.fontlab.hintData'
p2
(dp3
S'vhints'
p4
((dp5
S'position'
p6
I1147
sS'width'
p7
I275
stp8
sS'hhints'
p9
((dp10
g6
I577
sg7
I250
stp11
ss."
HStem: 612 265<171 1216 171 1507>
VStem: 1216 292<111 612 612 612>
LayerCount: 2
Fore
SplineSet
1507 111 m 1
 1216 111 l 1
 1216 612 l 1
 171 612 l 1
 171 877 l 1
 1507 877 l 1
 1507 111 l 1
EndSplineSet
EndChar

StartChar: lozenge
Encoding: 9674 9674 155
Width: 1277
VWidth: 0
GlyphClass: 1
Flags: HW
LayerCount: 2
Fore
SplineSet
1186 759 m 1
 706 -34 l 1
 561 -34 l 1
 88 758 l 1
 565 1552 l 1
 710 1552 l 1
 1186 759 l 1
953 757 m 1
 847 939 722 1139 639 1319 c 1
 617 1293 590 1227 569 1189 c 2
 323 761 l 1
 569 325 l 1
 591 283 615 236 635 199 c 1
 705 305 866 620 953 757 c 1
EndSplineSet
EndChar

StartChar: lslash
Encoding: 322 322 156
Width: 559
VWidth: 0
GlyphClass: 1
Flags: HW
PickledData: "(dp1
S'com.fontlab.hintData'
p2
(dp3
S'vhints'
p4
((dp5
S'position'
p6
I135
sS'width'
p7
I209
stp8
sS'hhints'
p9
((dp10
g6
I0
sg7
I197
stp11
ss."
HStem: 0 209<345 525 437 525 437 525>
VStem: 143 222<267 284 284 671 671 671 831 841 1001 1545>
LayerCount: 2
Fore
SplineSet
143 267 m 2
 143 671 l 1
 0 558 l 1
 0 719 l 1
 143 831 l 1
 143 1545 l 1
 365 1545 l 1
 365 1001 l 1
 508 1114 l 1
 508 953 l 1
 365 841 l 1
 365 284 l 2
 365 234 394 209 437 209 c 2
 525 209 l 1
 525 0 l 1
 425 0 l 2
 265 0 143 70 143 267 c 2
EndSplineSet
EndChar

StartChar: m
Encoding: 109 109 157
Width: 2065
VWidth: 0
GlyphClass: 1
Flags: HW
PickledData: "(dp1
S'com.fontlab.hintData'
p2
(dp3
S'vhints'
p4
((dp5
S'position'
p6
I130
sS'width'
p7
I358
s(dp8
g6
I795
sg7
I358
s(dp9
g6
I1467
sg7
I358
stp10
sS'hhints'
p11
((dp12
g6
I0
sg7
I21
s(dp13
g6
I828
sg7
I294
s(dp14
g6
I828
sg7
I79
s(dp15
g6
I1078
sg7
I20
stp16
ss."
HStem: 0 22<138 517 138 138 843 1222 843 843 1555 1934 1555 1555> 878 312<634 943> 878 84 1143 21<138 517 517 517>
VStem: 138 379<0 774 0 961 961 1164> 843 379<0 628 628 721> 1555 379<0 599 599 703>
LayerCount: 2
Fore
SplineSet
1555 0 m 1
 1555 599 l 2
 1555 808 1516 878 1377 878 c 0
 1312 878 1222 817 1222 774 c 2
 1222 0 l 1
 843 0 l 1
 843 628 l 2
 843 815 797 878 669 878 c 0
 600 878 517 840 517 774 c 2
 517 0 l 1
 138 0 l 1
 138 1164 l 1
 517 1164 l 1
 517 961 l 1
 518 961 533 990 534 990 c 0
 604 1111 737 1189 879 1189 c 0
 1008 1189 1122 1126 1183 987 c 1
 1284 1123 1427 1189 1564 1189 c 0
 1765 1189 1935 1063 1934 765 c 1
 1934 0 l 1
 1555 0 l 1
EndSplineSet
EndChar

StartChar: macron
Encoding: 175 175 158
Width: 521
VWidth: 0
GlyphClass: 1
Flags: HW
PickledData: "(dp1
S'com.fontlab.hintData'
p2
(dp3
S'vhints'
p4
((dp5
S'position'
p6
I-49
sS'width'
p7
I590
stp8
sS'hhints'
p9
((dp10
g6
I1243
sg7
I135
stp11
ss."
HStem: 1318 143<-52 573 -52 573>
VStem: -52 625<1318 1461 1318 1461>
LayerCount: 2
Fore
SplineSet
-52 1318 m 1
 -52 1461 l 1
 573 1461 l 1
 573 1318 l 1
 -52 1318 l 1
EndSplineSet
EndChar

StartChar: minus
Encoding: 8722 8722 159
Width: 1303
VWidth: 0
GlyphClass: 1
Flags: HW
PickledData: "(dp1
S'com.fontlab.hintData'
p2
(dp3
S'hhints'
p4
((dp5
S'position'
p6
I438
sS'width'
p7
I160
stp8
ss."
HStem: 464 170<102 1203 102 1203>
LayerCount: 2
Fore
SplineSet
102 464 m 1
 102 634 l 1
 1203 634 l 1
 1203 464 l 1
 102 464 l 1
EndSplineSet
EndChar

StartChar: mu
Encoding: 181 181 160
Width: 1166
VWidth: 0
GlyphClass: 1
Flags: HW
PickledData: "(dp1
S'com.fontlab.hintData'
p2
(dp3
S'vhints'
p4
((dp5
S'position'
p6
I135
sS'width'
p7
I209
s(dp8
g6
I757
sg7
I209
stp9
sS'hhints'
p10
((dp11
g6
I-420
sg7
I21
s(dp12
g6
I-12
sg7
I209
stp13
ss."
HStem: -445 22<143 143 143 365> -13 222<522 571>
VStem: 143 222<-445 19 372 446 446 1102> 802 222<0 118 118 118 446 1102 0 1102>
LayerCount: 2
Fore
SplineSet
143 -445 m 1
 143 1102 l 1
 365 1102 l 1
 365 446 l 2
 365 297 459 209 585 209 c 0
 709 209 802 297 802 446 c 2
 802 1102 l 1
 1024 1102 l 1
 1024 0 l 1
 802 0 l 1
 802 118 l 1
 798 118 l 1
 728 31 629 -13 513 -13 c 0
 463 -13 413 -2 365 19 c 1
 365 -445 l 1
 143 -445 l 1
EndSplineSet
EndChar

StartChar: multiply
Encoding: 215 215 161
Width: 1303
VWidth: 0
GlyphClass: 1
Flags: HW
LayerCount: 2
Fore
SplineSet
145 165 m 1
 535 550 l 1
 145 938 l 1
 265 1059 l 1
 652 670 l 1
 1038 1059 l 1
 1160 938 l 1
 770 550 l 1
 1160 165 l 1
 1038 46 l 1
 652 436 l 1
 265 46 l 1
 145 165 l 1
EndSplineSet
EndChar

StartChar: n
Encoding: 110 110 162
Width: 1371
VWidth: 0
GlyphClass: 1
Flags: W
PickledData: "(dp1
S'com.typemytype.robofont.layerData'
p2
(dp3
sS'com.fontlab.hintData'
p4
(dp5
S'vhints'
p6
((dp7
S'position'
p8
I126
sS'width'
p9
I358
s(dp10
g8
I817
sg9
I358
stp11
sS'hhints'
p12
((dp13
g8
I0
sg9
I21
s(dp14
g8
I828
sg9
I294
s(dp15
g8
I1078
sg9
I20
stp16
ss."
HStem: 0 21G<134 513 866 1246> 817.967 311<643.5 961> 1083.97 20G<134 513>
VStem: 134 379<0 790.143 892.967 1103.97> 866 380<0 757.114>
LayerCount: 2
Fore
SplineSet
866 0 m 1xd8
 866 525.966796875 l 2
 866 717.966796875 836 817.966796875 679 817.966796875 c 0xd8
 608 817.966796875 513 795.966796875 513 712.966796875 c 2
 513 0 l 1
 134 0 l 1
 134 1103.96679688 l 1
 513 1103.96679688 l 1xb8
 513 892.966796875 l 1
 595 1029.96679688 705 1128.96679688 867 1128.96679688 c 0
 1055 1128.96679688 1246 996.966796875 1246 719.966796875 c 2
 1246 0 l 1
 866 0 l 1xd8
EndSplineSet
EndChar

StartChar: nine
Encoding: 57 57 163
Width: 1319
VWidth: 0
GlyphClass: 1
Flags: HW
PickledData: "(dp1
S'com.fontlab.hintData'
p2
(dp3
S'vhints'
p4
((dp5
S'position'
p6
I60
sS'width'
p7
I379
s(dp8
g6
I787
sg7
I376
stp9
sS'hhints'
p10
((dp11
g6
I0
sg7
I21
s(dp12
g6
I520
sg7
I260
s(dp13
g6
I1242
sg7
I260
stp14
ss."
HStem: 0 22 551 276<482 726> 1317 276<611 704>
VStem: 64 402<969 1160 969 1209> 834 399
LayerCount: 2
Fore
SplineSet
1201 713 m 1
 1113 346 887 79 467 5 c 1
 406 -2 275 8 268 0 c 1
 249 86 229 169 206 252 c 1
 249 259 l 1
 281 256 329 249 431 261 c 1
 576 317 714 414 767 629 c 1
 682 582 624 551 504 551 c 0
 462 551 424 558 391 566 c 1
 356 572 324 582 292 596 c 1
 160 661 64 800 64 1041 c 0
 64 1378 298 1592 648 1592 c 0
 1011 1592 1240 1369 1233 930 c 0
 1232 854 1222 779 1201 713 c 1
834 989 m 0
 834 1213 764 1317 643 1317 c 0
 578 1317 465 1256 465 1063 c 0
 465 875 573 827 685 827 c 0
 767 827 814 857 818 873 c 1
 826 885 834 931 834 989 c 0
EndSplineSet
EndChar

StartChar: notequal
Encoding: 8800 8800 164
Width: 1431
VWidth: 0
GlyphClass: 1
Flags: HW
PickledData: "(dp1
S'com.fontlab.hintData'
p2
(dp3
S'hhints'
p4
((dp5
S'position'
p6
I288
sS'width'
p7
I174
s(dp8
g6
I705
sg7
I175
stp9
ss."
HStem: 305 184<206 443 206 537 755 1225 206 662> 747 186<206 668 206 762 206 888 980 1225>
LayerCount: 2
Fore
SplineSet
1225 305 m 1
 662 305 l 1
 527 43 l 1
 315 57 l 1
 443 305 l 1
 206 305 l 1
 206 490 l 1
 537 490 l 1
 668 747 l 1
 206 747 l 1
 206 933 l 1
 762 933 l 1
 902 1204 l 1
 1115 1190 l 1
 980 933 l 1
 1225 933 l 1
 1225 747 l 1
 888 747 l 1
 755 490 l 1
 1225 490 l 1
 1225 305 l 1
EndSplineSet
EndChar

StartChar: numbersign
Encoding: 35 35 166
Width: 1594
VWidth: 0
GlyphClass: 1
Flags: HW
PickledData: "(dp1
S'com.fontlab.hintData'
p2
(dp3
S'vhints'
p4
((dp5
S'position'
p6
I225
sS'width'
p7
I247
s(dp8
g6
I554
sg7
I249
s(dp9
g6
I715
sg7
I244
s(dp10
g6
I1043
sg7
I249
stp11
sS'hhints'
p12
((dp13
g6
I-2
sg7
I21
s(dp14
g6
I370
sg7
I222
s(dp15
g6
I897
sg7
I222
s(dp16
g6
I1459
sg7
I20
stp17
ss."
HStem: -2 22<238 500 238 238 758 1017 758 758> 392 235<73 323 73 376 73 842 73 585 1155 1415> 951 235<182 452 182 505 1287 1522> 1547 21<587 851 851 851 1106 1370 1370 1370>
VStem: 238 262<-2 -2> 587 264<1568 1568> 758 259<-2 -2> 1106 264<1568 1568>
LayerCount: 2
Fore
SplineSet
1522 951 m 1
 1232 951 l 1
 1155 628 l 1
 1415 628 l 1
 1415 392 l 1
 1102 392 l 1
 1017 -2 l 1
 758 -2 l 1
 842 392 l 1
 585 392 l 1
 500 -2 l 1
 238 -2 l 1
 323 392 l 1
 73 392 l 1
 73 628 l 1
 376 628 l 1
 452 951 l 1
 182 951 l 1
 182 1186 l 1
 505 1186 l 1
 587 1568 l 1
 851 1568 l 1
 770 1186 l 1
 1023 1186 l 1
 1106 1568 l 1
 1370 1568 l 1
 1287 1186 l 1
 1522 1186 l 1
 1522 951 l 1
973 953 m 1
 714 953 l 1
 638 625 l 1
 898 625 l 1
 973 953 l 1
EndSplineSet
EndChar

StartChar: o
Encoding: 111 111 167
Width: 1309
VWidth: 0
GlyphClass: 1
Flags: HW
PickledData: "(dp1
S'com.fontlab.hintData'
p2
(dp3
S'vhints'
p4
((dp5
S'position'
p6
I50
sS'width'
p7
I365
s(dp8
g6
I818
sg7
I367
stp9
sS'hhints'
p10
((dp11
g6
I-28
sg7
I260
s(dp12
g6
I867
sg7
I255
stp13
ss."
HStem: -30 276<594 726 594 852> 919 270<596 714>
VStem: 53 387<438 723 438 780> 867 389<455 718>
LayerCount: 2
Fore
SplineSet
654 -30 m 0
 259 -30 53 188 53 582 c 0
 53 977 258 1189 654 1189 c 0
 1049 1189 1256 975 1256 581 c 0
 1256 189 1050 -30 654 -30 c 0
867 579 m 0
 867 858 775 919 654 919 c 0
 538 919 440 866 440 580 c 0
 440 297 531 246 657 246 c 0
 794 246 867 332 867 579 c 0
EndSplineSet
EndChar

StartChar: oe
Encoding: 339 339 171
Width: 2099
VWidth: 0
GlyphClass: 1
Flags: HW
PickledData: "(dp1
S'com.fontlab.hintData'
p2
(dp3
S'vhints'
p4
((dp5
S'position'
p6
I51
sS'width'
p7
I365
s(dp8
g6
I824
sg7
I364
stp9
sS'hhints'
p10
((dp11
g6
I-25
sg7
I257
s(dp12
g6
I466
sg7
I215
s(dp13
g6
I871
sg7
I255
s(dp14
g6
I893
sg7
I233
stp15
ss."
HStem: -26 272<1498 1649 1498 1676> 494 228<1259 1674 1257 2051 1259 1259> 923 270<600 732> 947 247<1413 1534>
VStem: 54 387<462 701> 873 386<494 494 494 703>
LayerCount: 2
Fore
SplineSet
2051 494 m 1
 1259 494 l 1
 1273 307 1406 246 1590 246 c 0
 1709 246 1811 302 1858 334 c 1
 1898 334 1940 349 1974 372 c 1
 2032 102 l 1
 1941 39 1800 -26 1553 -26 c 0
 1357 -26 1160 38 1079 128 c 1
 985 36 842 -30 660 -30 c 0
 486 -30 354 21 262 90 c 0
 125 191 54 341 54 582 c 0
 54 820 123 970 260 1073 c 0
 353 1142 484 1194 659 1194 c 0
 830 1194 983 1121 1077 1046 c 1
 1160 1130 1332 1194 1495 1194 c 0
 1846 1194 2051 998 2051 652 c 2
 2051 494 l 1
873 579 m 0
 873 828 808 923 657 923 c 0
 544 923 441 880 441 580 c 0
 441 335 505 241 660 241 c 0
 813 241 873 350 873 579 c 0
1674 722 m 1
 1668 868 1597 947 1471 947 c 0
 1337 947 1259 860 1257 722 c 1
 1674 722 l 1
EndSplineSet
EndChar

StartChar: ogonek
Encoding: 731 731 172
Width: 951
VWidth: 0
GlyphClass: 1
Flags: HW
PickledData: "(dp1
S'com.fontlab.hintData'
p2
(dp3
S'vhints'
p4
((dp5
S'position'
p6
I270
sS'width'
p7
I176
stp8
sS'hhints'
p9
((dp10
g6
I-432
sg7
I143
stp11
ss."
HStem: -458 152<568 575>
VStem: 286 187
LayerCount: 2
Fore
SplineSet
606 -306 m 0
 669 -306 715 -286 740 -276 c 1
 752 -423 l 1
 693 -444 632 -455 575 -458 c 0
 562 -458 547 -458 534 -457 c 1
 402 -457 304 -377 286 -264 c 1
 283 -231 284 -201 290 -171 c 1
 303 -97 343 -41 383 6 c 1
 544 6 l 1
 504 -45 478 -104 473 -157 c 1
 470 -251 519 -306 606 -306 c 0
EndSplineSet
EndChar

StartChar: one
Encoding: 49 49 174
Width: 1319
VWidth: 0
GlyphClass: 1
Flags: HW
PickledData: "(dp1
S'com.fontlab.hintData'
p2
(dp3
S'vhints'
p4
((dp5
S'position'
p6
I469
sS'width'
p7
I371
stp8
sS'hhints'
p9
((dp10
g6
I0
sg7
I275
s(dp11
g6
I1462
sg7
I20
stp12
ss."
HStem: 0 292<497 497 890 1113 268 497> 1550 21
VStem: 497 393<292 1184 1184 1184>
LayerCount: 2
Fore
SplineSet
1113 0 m 1
 268 0 l 1
 268 293 l 1
 497 292 l 1
 497 1184 l 1
 189 1131 l 1
 189 1374 l 1
 373 1393 492 1443 524 1571 c 1
 646 1570 768 1570 890 1569 c 1
 890 292 l 1
 1113 292 l 1
 1113 0 l 1
EndSplineSet
EndChar

StartChar: one.superior
Encoding: 185 185 175
Width: 677
VWidth: 0
GlyphClass: 1
Flags: HW
PickledData: "(dp1
S'com.fontlab.hintData'
p2
(dp3
S'vhints'
p4
((dp5
S'position'
p6
I240
sS'width'
p7
I172
stp8
ss."
VStem: 254 182<623 1367 1367 1367 623 1550>
LayerCount: 2
Fore
SplineSet
254 623 m 1
 254 1367 l 1
 110 1272 l 1
 110 1454 l 1
 254 1550 l 1
 437 1550 l 1
 437 623 l 1
 254 623 l 1
EndSplineSet
EndChar

StartChar: onehalf
Encoding: 189 189 176
Width: 1566
VWidth: 0
GlyphClass: 1
Flags: HW
PickledData: "(dp1
S'com.fontlab.hintData'
p2
(dp3
S'vhints'
p4
((dp5
S'position'
p6
I147
sS'width'
p7
I136
s(dp8
g6
I240
sg7
I172
s(dp9
g6
I841
sg7
I172
s(dp10
g6
I1031
sg7
I135
s(dp11
g6
I1240
sg7
I172
stp12
sS'hhints'
p13
((dp14
g6
I0
sg7
I147
s(dp15
g6
I735
sg7
I148
s(dp16
g6
I1473
sg7
I20
stp17
ss."
HStem: 0 156<885 885 1106 1497> 779 157<1158 1232> 1561 21<1093 1236 1236 1236>
VStem: 156 144<-37 -37> 254 182<623 1367 1367 1367 623 1550> 891 182<644 731> 1093 143<1583 1583> 1314 182<648 701>
LayerCount: 2
Fore
SplineSet
254 623 m 1
 254 1367 l 1
 110 1272 l 1
 110 1454 l 1
 254 1550 l 1
 437 1550 l 1
 437 623 l 1
 254 623 l 1
885 0 m 1
 885 156 l 1
 1267 564 l 2
 1298 597 1314 628 1314 669 c 0
 1314 734 1269 779 1195 779 c 0
 1122 779 1080 727 1074 644 c 1
 891 644 l 1
 891 818 1019 936 1188 936 c 0
 1370 936 1497 816 1497 669 c 0
 1497 608 1482 553 1428 495 c 2
 1106 156 l 1
 1497 156 l 1
 1497 0 l 1
 885 0 l 1
156 -37 m 1
 1093 1583 l 1
 1236 1583 l 1
 300 -37 l 1
 156 -37 l 1
EndSplineSet
EndChar

StartChar: onequarter
Encoding: 188 188 177
Width: 1566
VWidth: 0
GlyphClass: 1
Flags: HW
PickledData: "(dp1
S'com.fontlab.hintData'
p2
(dp3
S'vhints'
p4
((dp5
S'position'
p6
I199
sS'width'
p7
I135
s(dp8
g6
I240
sg7
I172
s(dp9
g6
I1083
sg7
I136
s(dp10
g6
I1173
sg7
I172
stp11
sS'hhints'
p12
((dp13
g6
I0
sg7
I21
s(dp14
g6
I127
sg7
I147
s(dp15
g6
I1473
sg7
I20
stp16
ss."
HStem: 0 22<1243 1426 1243 1243> 135 156<817 817 1006 1243 1426 1498> 1561 21<1148 1292 1292 1292>
VStem: 211 143<-37 -37> 254 182<623 1367 1367 1367 623 1550> 1148 144<1583 1583> 1243 182<0 135 0 135 290 530>
LayerCount: 2
Fore
SplineSet
254 623 m 1
 254 1367 l 1
 110 1272 l 1
 110 1454 l 1
 254 1550 l 1
 437 1550 l 1
 437 623 l 1
 254 623 l 1
817 135 m 1
 817 290 l 1
 1154 922 l 1
 1338 922 l 1
 1006 290 l 1
 1243 290 l 1
 1243 530 l 1
 1426 530 l 1
 1426 290 l 1
 1498 290 l 1
 1498 135 l 1
 1426 135 l 1
 1426 0 l 1
 1243 0 l 1
 1243 135 l 1
 817 135 l 1
211 -37 m 1
 1148 1583 l 1
 1292 1583 l 1
 354 -37 l 1
 211 -37 l 1
EndSplineSet
EndChar

StartChar: ordfeminine
Encoding: 170 170 178
Width: 985
VWidth: 0
GlyphClass: 1
Flags: HW
PickledData: "(dp1
S'com.fontlab.hintData'
p2
(dp3
S'vhints'
p4
((dp5
S'position'
p6
I31
sS'width'
p7
I282
s(dp8
g6
I560
sg7
I278
stp9
sS'hhints'
p10
((dp11
g6
I1039
sg7
I169
s(dp12
g6
I1317
sg7
I186
stp13
ss."
HStem: 1101 179<594 594> 1396 197<365 454>
VStem: 33 299<965 1044 965 1105> 594 295<735 822 822 822 974 1101 1101 1101 1280 1308>
LayerCount: 2
Fore
SplineSet
888 735 m 1
 594 735 l 1
 594 822 l 1
 591 822 l 1
 526 757 420 718 317 718 c 0
 171 718 33 792 33 971 c 0
 33 1239 302 1249 594 1280 c 1
 594 1369 525 1396 383 1396 c 0
 267 1396 148 1345 143 1333 c 1
 103 1529 l 1
 158 1566 297 1593 434 1593 c 0
 729 1593 888 1520 888 1308 c 2
 888 735 l 1
594 974 m 1
 594 1101 l 1
 457 1093 332 1091 332 996 c 0
 332 932 385 907 444 907 c 0
 504 907 572 934 594 974 c 1
EndSplineSet
EndChar

StartChar: ordmasculine
Encoding: 186 186 179
Width: 1049
VWidth: 0
GlyphClass: 1
Flags: HW
PickledData: "(dp1
S'com.fontlab.hintData'
p2
(dp3
S'vhints'
p4
((dp5
S'position'
p6
I73
sS'width'
p7
I282
s(dp8
g6
I660
sg7
I280
stp9
sS'hhints'
p10
((dp11
g6
I669
sg7
I186
s(dp12
g6
I1313
sg7
I190
stp13
ss."
HStem: 709 197<487 584 487 681> 1392 201<497 590>
VStem: 77 299<1064 1253 1064 1298> 700 297<1008 1048>
LayerCount: 2
Fore
SplineSet
996 1151 m 0
 996 864 825 709 536 709 c 0
 246 709 77 865 77 1152 c 0
 77 1444 250 1593 537 1593 c 0
 826 1593 996 1443 996 1151 c 0
696 1149 m 0
 696 1323 643 1392 537 1392 c 0
 455 1392 376 1356 376 1150 c 0
 376 978 432 906 543 906 c 0
 626 906 700 932 700 1048 c 1
 699 1082 696 1114 696 1149 c 0
EndSplineSet
EndChar

StartChar: oslash
Encoding: 248 248 180
Width: 1309
VWidth: 0
GlyphClass: 1
Flags: HW
PickledData: "(dp1
S'com.fontlab.hintData'
p2
(dp3
S'vhints'
p4
((dp5
S'position'
p6
I51
sS'width'
p7
I358
s(dp8
g6
I823
sg7
I363
stp9
sS'hhints'
p10
((dp11
g6
I-28
sg7
I250
s(dp12
g6
I871
sg7
I255
stp13
ss."
HStem: -30 265 923 270<601 675>
VStem: 54 379<533 689> 872 385<548 617>
LayerCount: 2
Fore
SplineSet
1257 581 m 0
 1257 370 1206 236 1101 131 c 0
 1006 36 860 -30 655 -30 c 0
 552 -30 456 -6 383 23 c 1
 264 -160 l 1
 84 -139 l 1
 246 102 l 1
 110 210 54 373 54 582 c 0
 54 796 106 932 211 1036 c 0
 307 1130 454 1194 656 1194 c 0
 763 1194 849 1173 929 1141 c 1
 1031 1296 l 1
 1212 1275 l 1
 1065 1062 l 1
 1194 954 1257 818 1257 581 c 0
764 895 m 1
 731 914 695 923 654 923 c 0
 548 923 434 888 434 577 c 0
 434 490 440 438 448 398 c 1
 764 895 l 1
872 579 m 0
 872 655 866 729 861 763 c 1
 547 267 l 1
 581 246 622 236 668 236 c 1
 665 236 661 236 658 235 c 1
 765 234 866 262 871 414 c 0
 873 463 872 518 872 579 c 0
EndSplineSet
EndChar

StartChar: p
Encoding: 112 112 182
Width: 1339
VWidth: 0
GlyphClass: 1
Flags: HW
PickledData: "(dp1
S'com.fontlab.hintData'
p2
(dp3
S'vhints'
p4
((dp5
S'position'
p6
I126
sS'width'
p7
I360
s(dp8
g6
I842
sg7
I366
stp9
sS'hhints'
p10
((dp11
g6
I-414
sg7
I21
s(dp12
g6
I-23
sg7
I260
s(dp13
g6
I847
sg7
I275
s(dp14
g6
I1078
sg7
I20
stp15
ss."
HStem: -439 22<134 515 134 134> -24 276<743 748 620 958> 898 292<646 1022> 1143 21<134 515 515 515>
VStem: 134 382<-439 60 -439 278 278 830 995 1164> 893 388<484 685>
LayerCount: 2
Fore
SplineSet
802 -24 m 0
 683 -24 604 3 515 60 c 1
 515 -439 l 1
 134 -439 l 1
 134 1164 l 1
 515 1164 l 1
 515 995 l 1
 580 1111 719 1189 865 1189 c 0
 1179 1189 1280 949 1280 590 c 0
 1280 230 1114 -24 802 -24 c 0
893 586 m 0
 893 784 849 898 683 898 c 0
 609 898 557 873 515 830 c 1
 515 278 l 1
 536 263 584 251 656 251 c 0
 840 251 893 381 893 586 c 0
EndSplineSet
EndChar

StartChar: paragraph
Encoding: 182 182 183
Width: 1418
VWidth: 0
GlyphClass: 1
Flags: HW
PickledData: "(dp1
S'com.fontlab.hintData'
p2
(dp3
S'vhints'
p4
((dp5
S'position'
p6
I60
sS'width'
p7
I781
s(dp8
g6
I623
sg7
I218
s(dp9
g6
I975
sg7
I208
stp10
sS'hhints'
p11
((dp12
g6
I1302
sg7
I177
stp13
ss."
HStem: 1380 188<891 1034 891 891>
VStem: 64 828<977 1250> 660 231<-400 657 657 657> 1034 220<-400 1230>
LayerCount: 2
Fore
SplineSet
1254 -400 m 1
 1034 -400 l 1
 1034 1380 l 1
 891 1380 l 1
 891 -400 l 1
 660 -400 l 1
 660 657 l 1
 269 664 64 838 64 1115 c 0
 64 1384 265 1568 681 1568 c 2
 1251 1568 l 1
 1251 1308 l 1
 1254 1230 l 1
 1254 -400 l 1
EndSplineSet
EndChar

StartChar: parenleft
Encoding: 40 40 184
Width: 891
VWidth: 0
GlyphClass: 1
Flags: HW
PickledData: "(dp1
S'com.fontlab.hintData'
p2
(dp3
S'vhints'
p4
((dp5
S'position'
p6
I98
sS'width'
p7
I328
stp8
sS'hhints'
p9
((dp10
g6
I1503
sg7
I20
stp11
ss."
HStem: 1593 21<497 837 837 837>
VStem: 104 348<430 828 430 841>
LayerCount: 2
Fore
SplineSet
837 -360 m 1
 497 -360 l 1
 261 -92 104 221 104 626 c 0
 104 1054 260 1345 497 1614 c 1
 837 1614 l 1
 831 1592 825 1571 820 1549 c 1
 636 1338 452 1029 452 626 c 0
 452 234 626 -81 820 -295 c 1
 825 -317 831 -339 837 -360 c 1
EndSplineSet
EndChar

StartChar: parenright
Encoding: 41 41 185
Width: 891
VWidth: 0
GlyphClass: 1
Flags: HW
PickledData: "(dp1
S'com.fontlab.hintData'
p2
(dp3
S'vhints'
p4
((dp5
S'position'
p6
I415
sS'width'
p7
I328
stp8
sS'hhints'
p9
((dp10
g6
I1503
sg7
I20
stp11
ss."
HStem: 1593 21<54 393 393 393>
VStem: 440 348<428 827>
LayerCount: 2
Fore
SplineSet
788 626 m 0
 788 225 630 -90 393 -360 c 1
 54 -360 l 1
 60 -339 66 -317 70 -295 c 1
 264 -79 440 230 440 626 c 0
 440 1028 253 1341 70 1549 c 1
 66 1572 60 1592 54 1614 c 1
 393 1614 l 1
 631 1345 788 1054 788 626 c 0
EndSplineSet
EndChar

StartChar: partialdiff
Encoding: 8706 8706 186
Width: 1241
VWidth: 0
GlyphClass: 1
Flags: HW
PickledData: "(dp1
S'com.fontlab.hintData'
p2
(dp3
S'vhints'
p4
((dp5
S'position'
p6
I58
sS'width'
p7
I289
s(dp8
g6
I826
sg7
I286
stp9
sS'hhints'
p10
((dp11
g6
I-17
sg7
I218
s(dp12
g6
I813
sg7
I203
stp13
ss."
HStem: -18 231<487 620 487 701> 862 215<567 653 436 696>
VStem: 61 306<379 558 379 626> 876 303
LayerCount: 2
Fore
SplineSet
869 923 m 1
 873 923 l 1
 874 943 876 966 876 977 c 0
 876 1217 785 1372 621 1398 c 1
 489 1422 383 1377 298 1325 c 1
 322 1554 l 1
 411 1605 529 1645 682 1635 c 0
 986 1617 1163 1418 1179 1022 c 0
 1182 951 1179 877 1169 801 c 1
 1118 301 893 -18 509 -18 c 0
 226 -18 61 181 61 448 c 0
 61 803 286 1077 585 1077 c 0
 722 1077 818 1006 869 923 c 1
841 691 m 1
 815 789 748 862 646 862 c 0
 489 862 368 661 368 455 c 0
 368 304 431 213 543 213 c 0
 697 213 811 430 841 691 c 1
EndSplineSet
EndChar

StartChar: percent
Encoding: 37 37 187
Width: 2265
VWidth: 0
GlyphClass: 1
Flags: HW
PickledData: "(dp1
S'com.fontlab.hintData'
p2
(dp3
S'vhints'
p4
((dp5
S'position'
p6
I96
sS'width'
p7
I244
s(dp8
g6
I628
sg7
I241
s(dp9
g6
I1262
sg7
I245
s(dp10
g6
I1793
sg7
I241
stp11
sS'hhints'
p12
((dp13
g6
I-4
sg7
I201
s(dp14
g6
I643
sg7
I198
s(dp15
g6
I1285
sg7
I199
stp16
ss."
HStem: -4 213<1698 1800 1698 1884> 682 210<1750 1799> 1362 211<513 513>
VStem: 102 259<1062 1179 1062 1234> 666 255<1075 1192> 1338 260<377 494 377 553> 1901 255<388 507>
LayerCount: 2
Fore
SplineSet
856 0 m 1
 584 0 l 1
 1407 1568 l 1
 1680 1568 l 1
 856 0 l 1
1750 891 m 1
 2025 891 2156 674 2156 454 c 0
 2156 227 2017 -4 1750 -4 c 0
 1475 -4 1338 218 1338 441 c 0
 1338 665 1475 888 1750 891 c 1
1747 682 m 1
 1651 679 1597 555 1597 435 c 0
 1597 321 1646 209 1750 209 c 0
 1850 209 1901 328 1901 448 c 0
 1901 565 1851 682 1747 682 c 1
514 1573 m 1
 789 1572 921 1354 921 1134 c 0
 921 907 780 677 513 677 c 0
 238 677 102 900 102 1123 c 0
 102 1347 238 1570 514 1573 c 1
514 890 m 0
 612 890 666 1014 666 1135 c 0
 666 1249 617 1362 513 1362 c 0
 413 1362 360 1239 360 1119 c 0
 360 1003 409 890 514 890 c 0
EndSplineSet
EndChar

StartChar: period
Encoding: 46 46 188
Width: 766
VWidth: 0
GlyphClass: 1
Flags: HW
PickledData: "(dp1
S'com.fontlab.hintData'
p2
(dp3
S'vhints'
p4
((dp5
S'position'
p6
I145
sS'width'
p7
I433
stp8
sS'hhints'
p9
((dp10
g6
I-24
sg7
I437
stp11
ss."
HStem: -25 463<360 406>
VStem: 154 459<183 226 154 254>
LayerCount: 2
Fore
SplineSet
406 -25 m 1
 262 -25 169 53 154 183 c 1
 154 325 230 423 360 438 c 1
 504 438 597 354 613 226 c 1
 613 82 535 -10 406 -25 c 1
EndSplineSet
EndChar

StartChar: periodcentered
Encoding: 183 183 189
Width: 521
VWidth: 0
GlyphClass: 1
Flags: HW
PickledData: "(dp1
S'com.fontlab.hintData'
p2
(dp3
S'vhints'
p4
((dp5
S'position'
p6
I109
sS'width'
p7
I274
stp8
sS'hhints'
p9
((dp10
g6
I461
sg7
I274
stp11
ss."
HStem: 489 290<220 301>
VStem: 116 290<594 674>
LayerCount: 2
Fore
SplineSet
116 634 m 0
 116 715 180 779 261 779 c 0
 342 779 406 715 406 634 c 0
 406 553 342 489 261 489 c 0
 180 489 116 553 116 634 c 0
EndSplineSet
EndChar

StartChar: perthousand
Encoding: 8240 8240 190
Width: 2919
VWidth: 0
GlyphClass: 1
Flags: HW
PickledData: "(dp1
S'com.fontlab.hintData'
p2
(dp3
S'vhints'
p4
((dp5
S'position'
p6
I96
sS'width'
p7
I241
s(dp8
g6
I544
sg7
I236
s(dp9
g6
I1144
sg7
I241
s(dp10
g6
I1592
sg7
I236
s(dp11
g6
I1966
sg7
I241
s(dp12
g6
I2413
sg7
I236
stp13
sS'hhints'
p14
((dp15
g6
I-4
sg7
I179
s(dp16
g6
I575
sg7
I176
s(dp17
g6
I728
sg7
I179
s(dp18
g6
I1307
sg7
I176
stp19
ss."
HStem: -4 190<1526 1622 1526 1702 2397 2494> 610 187<1527 1626 2398 2497> 772 190<415 511 415 590> 1385 187<416 515>
VStem: 102 255<1107 1234 1107 1293> 577 250<1181 1243> 1213 255<331 458 331 517> 1688 250<405 467> 2084 255<331 458 331 517> 2558 250<405 467>
LayerCount: 2
Fore
SplineSet
739 0 m 1
 465 0 l 1
 1289 1568 l 1
 1561 1568 l 1
 739 0 l 1
466 772 m 0
 236 772 102 891 102 1145 c 0
 102 1441 221 1572 466 1572 c 0
 696 1572 827 1451 827 1201 c 0
 827 906 714 772 466 772 c 0
466 961 m 0
 556 961 575 1027 577 1181 c 1
 577 1306 562 1385 466 1385 c 0
 365 1385 357 1303 357 1166 c 0
 357 1048 363 961 466 961 c 0
1577 -4 m 0
 1347 -4 1213 115 1213 369 c 0
 1213 665 1332 796 1577 796 c 0
 1807 796 1938 675 1938 425 c 0
 1938 129 1826 -4 1577 -4 c 0
1577 186 m 0
 1667 186 1687 251 1688 405 c 0
 1688 530 1675 610 1577 610 c 0
 1477 610 1468 527 1468 390 c 0
 1468 271 1474 186 1577 186 c 0
2449 -4 m 0
 2219 -4 2084 115 2084 369 c 0
 2084 665 2204 796 2449 796 c 0
 2679 796 2808 675 2808 425 c 0
 2808 129 2698 -4 2449 -4 c 0
2449 186 m 0
 2539 186 2556 251 2558 405 c 1
 2558 530 2547 610 2449 610 c 0
 2348 610 2339 527 2339 390 c 0
 2339 272 2346 186 2449 186 c 0
EndSplineSet
EndChar

StartChar: pi
Encoding: 960 960 191
Width: 1365
VWidth: 0
GlyphClass: 1
Flags: HW
PickledData: "(dp1
S'com.fontlab.hintData'
p2
(dp3
S'vhints'
p4
((dp5
S'position'
p6
I240
sS'width'
p7
I271
s(dp8
g6
I768
sg7
I273
stp9
sS'hhints'
p10
((dp11
g6
I0
sg7
I21
s(dp12
g6
I829
sg7
I214
stp13
ss."
HStem: 0 22<176 467 176 176> 879 227<209 1309 542 814 542 542 1103 1304 1103 1103>
VStem: 254 287<879 879> 814 289<367 405 405 879>
LayerCount: 2
Fore
SplineSet
1304 879 m 1
 1103 879 l 1
 1103 405 l 2
 1103 328 1123 282 1162 269 c 1
 1182 211 1207 186 1235 173 c 1
 1162 10 l 1
 1122 2 1081 1 1036 11 c 1
 887 36 814 158 814 367 c 2
 814 879 l 1
 542 879 l 1
 540 721 534 537 524 359 c 0
 517 207 497 83 467 0 c 1
 176 0 l 1
 209 95 229 224 237 373 c 0
 247 546 253 723 254 879 c 1
 163 879 91 856 22 814 c 1
 12 1040 l 1
 87 1094 198 1106 370 1106 c 2
 1309 1106 l 1
 1304 879 l 1
EndSplineSet
EndChar

StartChar: plus
Encoding: 43 43 192
Width: 1684
VWidth: 0
GlyphClass: 1
Flags: HW
PickledData: "(dp1
S'com.fontlab.hintData'
p2
(dp3
S'vhints'
p4
((dp5
S'position'
p6
I662
sS'width'
p7
I266
stp8
sS'hhints'
p9
((dp10
g6
I485
sg7
I250
stp11
ss."
HStem: 514 265<171 702 171 702 984 1514>
VStem: 702 282<10 514 10 514 779 1282>
LayerCount: 2
Fore
SplineSet
1514 514 m 1
 984 514 l 1
 984 10 l 1
 702 10 l 1
 702 514 l 1
 171 514 l 1
 171 779 l 1
 702 779 l 1
 702 1282 l 1
 984 1282 l 1
 984 779 l 1
 1514 779 l 1
 1514 514 l 1
EndSplineSet
EndChar

StartChar: plusminus
Encoding: 177 177 193
Width: 1684
VWidth: 0
GlyphClass: 1
Flags: HW
PickledData: "(dp1
S'com.fontlab.hintData'
p2
(dp3
S'vhints'
p4
((dp5
S'position'
p6
I619
sS'width'
p7
I195
stp8
sS'hhints'
p9
((dp10
g6
I0
sg7
I187
s(dp11
g6
I653
sg7
I187
stp12
ss."
HStem: 0 198<208 1308 208 1308> 692 198<211 656 211 656 863 1309>
VStem: 656 207<316 692 316 692 890 1269>
LayerCount: 2
Fore
SplineSet
1309 692 m 1
 863 692 l 1
 863 316 l 1
 656 316 l 1
 656 692 l 1
 211 692 l 1
 211 890 l 1
 656 890 l 1
 656 1269 l 1
 863 1269 l 1
 863 890 l 1
 1309 890 l 1
 1309 692 l 1
1308 0 m 1
 208 0 l 1
 208 198 l 1
 1308 198 l 1
 1308 0 l 1
EndSplineSet
EndChar

StartChar: product
Encoding: 8719 8719 194
Width: 1659
VWidth: 0
GlyphClass: 1
Flags: HW
PickledData: "(dp1
S'com.fontlab.hintData'
p2
(dp3
S'vhints'
p4
((dp5
S'position'
p6
I129
sS'width'
p7
I357
s(dp8
g6
I195
sg7
I291
s(dp9
g6
I1091
sg7
I291
stp10
sS'hhints'
p11
((dp12
g6
I1185
sg7
I248
stp13
ss."
HStem: 1256 263<515 1156 515 515>
VStem: 137 378<1231 1256 -394 1519 -394 1519> 207 308<-394 975 975 975> 1156 308<-394 975>
LayerCount: 2
Fore
SplineSet
1465 -394 m 1
 1156 -394 l 1
 1156 1256 l 1
 515 1256 l 1
 515 -394 l 1
 207 -394 l 1
 207 975 l 1
 184 1061 160 1146 137 1231 c 1
 137 1519 l 1
 1535 1519 l 1
 1535 1445 l 1
 1465 975 l 1
 1465 -394 l 1
EndSplineSet
EndChar

StartChar: q
Encoding: 113 113 195
Width: 1339
VWidth: 0
GlyphClass: 1
Flags: HW
PickledData: "(dp1
S'com.fontlab.hintData'
p2
(dp3
S'vhints'
p4
((dp5
S'position'
p6
I1777
sS'width'
p7
I365
s(dp8
g6
I1060
sg7
I359
stp9
sS'hhints'
p10
((dp11
g6
I-414
sg7
I21
s(dp12
g6
I-26
sg7
I276
s(dp13
g6
I854
sg7
I268
s(dp14
g6
I1078
sg7
I20
stp15
ss."
HStem: -439 22<826 1206 1206 1206> -28 293 905 284 1143 21<826 1206 826 826>
VStem: 1884 387 1124 381
LayerCount: 2
Fore
SplineSet
537 -24 m 0
 656 -24 737 13 826 92 c 1
 826 -439 l 1
 1206 -439 l 1
 1206 1164 l 1
 826 1164 l 1
 826 1027 l 1
 775 1124 665 1189 549 1189 c 0
 179 1189 59 949 59 590 c 0
 59 230 225 -24 537 -24 c 0
447 586 m 0
 447 784 491 898 657 898 c 0
 732 898 783 885 826 862 c 1
 826 310 l 1
 805 277 757 251 684 251 c 0
 500 251 447 381 447 586 c 0
EndSplineSet
EndChar

StartChar: question
Encoding: 63 63 196
Width: 1217
VWidth: 0
GlyphClass: 1
Flags: HW
PickledData: "(dp1
S'com.fontlab.hintData'
p2
(dp3
S'vhints'
p4
((dp5
S'position'
p6
I293
sS'width'
p7
I433
s(dp8
g6
I696
sg7
I373
stp9
sS'hhints'
p10
((dp11
g6
I-24
sg7
I437
s(dp12
g6
I1216
sg7
I286
stp13
ss."
HStem: -25 463<517 563> 1289 303
VStem: 311 459<183 226 154 254> 738 395
LayerCount: 2
Fore
SplineSet
563 -25 m 1
 419 -25 326 53 311 183 c 1
 311 325 387 423 517 438 c 1
 661 438 754 354 770 226 c 1
 770 82 692 -10 563 -25 c 1
738 1072 m 0
 738 1226 630 1288 521 1288 c 0
 383 1288 218 1199 163 1145 c 1
 163 1454 l 1
 229 1492 388 1592 585 1592 c 0
 918 1592 1133 1417 1133 1173 c 0
 1133 857 872 705 666 559 c 1
 448 559 l 1
 608 750 738 915 738 1072 c 0
EndSplineSet
EndChar

StartChar: questiondown
Encoding: 191 191 197
Width: 1217
VWidth: 0
GlyphClass: 1
Flags: HW
PickledData: "(dp1
S'com.fontlab.hintData'
p2
(dp3
S'vhints'
p4
((dp5
S'position'
p6
I80
sS'width'
p7
I383
s(dp8
g6
I460
sg7
I357
stp9
sS'hhints'
p10
((dp11
g6
I-167
sg7
I280
s(dp12
g6
I1080
sg7
I257
stp13
ss."
HStem: -177 297<655 744> 1145 272<662 690>
VStem: 85 406<244 381> 488 378<943 1009 943 1009 943 1009>
LayerCount: 2
Fore
SplineSet
1129 35 m 1
 1078 -71 856 -177 632 -177 c 0
 303 -177 85 -3 85 244 c 0
 85 519 298 680 488 806 c 1
 488 1009 l 1
 866 1009 l 1
 866 878 870 757 845 641 c 1
 703 588 491 468 491 307 c 0
 491 180 586 120 723 120 c 0
 848 120 1014 196 1071 296 c 0
 1072 296 1069 289 1077 283 c 1
 1095 283 1111 282 1129 282 c 1
 1129 35 l 1
886 1142 m 1
 806 1144 729 1145 651 1145 c 0
 590 1145 529 1145 466 1142 c 1
 466 1419 l 1
 546 1417 624 1417 702 1417 c 0
 765 1417 826 1418 887 1418 c 1
 887 1325 886 1234 886 1142 c 1
EndSplineSet
EndChar

StartChar: quotedbl
Encoding: 34 34 198
Width: 1000
VWidth: 0
GlyphClass: 1
Flags: HW
PickledData: "(dp1
S'com.fontlab.hintData'
p2
(dp3
S'vhints'
p4
((dp5
S'position'
p6
I166
sS'width'
p7
I218
s(dp8
g6
I560
sg7
I218
stp9
sS'hhints'
p10
((dp11
g6
I1011
sg7
I512
stp12
ss."
HStem: 1072 543<176 407 176 176 594 825 594 594>
VStem: 176 231<1072 1072> 594 231<1072 1072>
LayerCount: 2
Fore
SplineSet
874 1614 m 1
 825 1072 l 1
 594 1072 l 1
 545 1614 l 1
 874 1614 l 1
457 1614 m 1
 407 1072 l 1
 176 1072 l 1
 127 1614 l 1
 457 1614 l 1
EndSplineSet
EndChar

StartChar: quotedblbase
Encoding: 8222 8222 199
Width: 1001
VWidth: 0
GlyphClass: 1
Flags: HW
PickledData: "(dp1
S'com.fontlab.hintData'
p2
(dp3
S'hhints'
p4
((dp5
S'position'
p6
I-259
sS'width'
p7
I517
stp8
ss."
HStem: -275 548<80 547 528 528>
LayerCount: 2
Fore
SplineSet
994 273 m 1
 797 -215 l 1
 528 -275 l 1
 640 273 l 1
 994 273 l 1
547 273 m 1
 448 -12 l 1
 288 -260 l 1
 80 -275 l 1
 191 273 l 1
 547 273 l 1
EndSplineSet
EndChar

StartChar: quotedblleft
Encoding: 8220 8220 200
Width: 1001
VWidth: 0
GlyphClass: 1
Flags: HW
PickledData: "(dp1
S'com.fontlab.hintData'
p2
(dp3
S'hhints'
p4
((dp5
S'position'
p6
I1005
sS'width'
p7
I518
stp8
ss."
HStem: 1065 549<358 358 358 475 208 358 358 806 358 924 358 656>
LayerCount: 2
Fore
SplineSet
924 1065 m 1
 656 1065 l 1
 450 1556 l 1
 806 1614 l 1
 924 1065 l 1
475 1065 m 1
 208 1065 l 1
 1 1556 l 1
 358 1614 l 1
 475 1065 l 1
EndSplineSet
EndChar

StartChar: quotedblright
Encoding: 8221 8221 201
Width: 1000
VWidth: 0
GlyphClass: 1
Flags: HW
PickledData: "(dp1
S'com.fontlab.hintData'
p2
(dp3
S'hhints'
p4
((dp5
S'position'
p6
I1005
sS'width'
p7
I518
stp8
ss."
HStem: 1065 549<82 548 530 530>
LayerCount: 2
Fore
SplineSet
996 1614 m 1
 799 1124 l 1
 530 1065 l 1
 641 1614 l 1
 996 1614 l 1
548 1614 m 1
 351 1124 l 1
 82 1065 l 1
 193 1614 l 1
 548 1614 l 1
EndSplineSet
EndChar

StartChar: quoteleft
Encoding: 8216 8216 202
Width: 597
VWidth: 0
GlyphClass: 1
Flags: HW
PickledData: "(dp1
S'com.fontlab.hintData'
p2
(dp3
S'vhints'
p4
((dp5
S'position'
p6
I24
sS'width'
p7
I445
stp8
sS'hhints'
p9
((dp10
g6
I1005
sg7
I518
stp11
ss."
HStem: 1065 549<381 381 381 497 232 381>
VStem: 25 472
LayerCount: 2
Fore
SplineSet
497 1065 m 1
 232 1065 l 1
 25 1556 l 1
 381 1614 l 1
 497 1065 l 1
EndSplineSet
EndChar

StartChar: quoteright
Encoding: 8217 8217 203
Width: 597
VWidth: 0
GlyphClass: 1
Flags: HW
PickledData: "(dp1
S'com.fontlab.hintData'
p2
(dp3
S'vhints'
p4
((dp5
S'position'
p6
I97
sS'width'
p7
I438
stp8
sS'hhints'
p9
((dp10
g6
I1005
sg7
I518
stp11
ss."
HStem: 1065 549<103 567>
VStem: 103 464
LayerCount: 2
Fore
SplineSet
567 1614 m 1
 371 1124 l 1
 103 1065 l 1
 214 1614 l 1
 567 1614 l 1
EndSplineSet
EndChar

StartChar: quotesinglbase
Encoding: 8218 8218 204
Width: 597
VWidth: 0
GlyphClass: 1
Flags: HW
PickledData: "(dp1
S'com.fontlab.hintData'
p2
(dp3
S'vhints'
p4
((dp5
S'position'
p6
I96
sS'width'
p7
I438
stp8
sS'hhints'
p9
((dp10
g6
I-259
sg7
I517
stp11
ss."
HStem: -275 548<102 566>
VStem: 102 464
LayerCount: 2
Fore
SplineSet
566 273 m 1
 532 178 499 83 466 -12 c 1
 307 -260 l 1
 102 -275 l 1
 213 273 l 1
 566 273 l 1
EndSplineSet
EndChar

StartChar: quotesingle
Encoding: 39 39 205
Width: 597
VWidth: 0
GlyphClass: 1
Flags: HW
PickledData: "(dp1
S'com.fontlab.hintData'
p2
(dp3
S'vhints'
p4
((dp5
S'position'
p6
I170
sS'width'
p7
I218
stp8
sS'hhints'
p9
((dp10
g6
I881
sg7
I642
stp11
ss."
HStem: 934 681<180 411 180 180>
VStem: 180 231<934 934>
LayerCount: 2
Fore
SplineSet
463 1614 m 1
 411 934 l 1
 180 934 l 1
 135 1614 l 1
 463 1614 l 1
EndSplineSet
EndChar

StartChar: r
Encoding: 114 114 206
Width: 950
VWidth: 0
GlyphClass: 1
Flags: HW
PickledData: "(dp1
S'com.fontlab.hintData'
p2
(dp3
S'vhints'
p4
((dp5
S'position'
p6
I126
sS'width'
p7
I359
stp8
sS'hhints'
p9
((dp10
g6
I0
sg7
I21
s(dp11
g6
I796
sg7
I304
stp12
ss."
HStem: 0 22<134 514 134 134> 844 322<778 786>
VStem: 134 381<0 757 0 1014 1014 1164>
LayerCount: 2
Fore
SplineSet
906 809 m 1
 870 825 820 844 753 844 c 0
 684 844 566 828 514 757 c 1
 514 0 l 1
 134 0 l 1
 134 1164 l 1
 514 1164 l 1
 514 1014 l 1
 515 1014 l 1
 581 1087 706 1166 849 1166 c 0
 889 1166 936 1157 965 1142 c 1
 906 809 l 1
EndSplineSet
EndChar

StartChar: radical
Encoding: 8730 8730 207
Width: 1369
VWidth: 0
GlyphClass: 1
Flags: HW
PickledData: "(dp1
S'com.fontlab.hintData'
p2
(dp3
S'vhints'
p4
((dp5
S'position'
p6
I1016
sS'width'
p7
I184
stp8
ss."
VStem: 1077 195<1683 1683>
LayerCount: 2
Fore
SplineSet
1272 1683 m 1
 825 -112 l 1
 620 -112 l 1
 284 734 l 1
 102 713 l 1
 89 873 l 1
 454 919 l 1
 644 406 l 2
 666 343 693 258 717 210 c 1
 764 416 l 1
 867 838 974 1260 1077 1683 c 1
 1272 1683 l 1
EndSplineSet
EndChar

StartChar: registered
Encoding: 174 174 208
Width: 1957
VWidth: 0
GlyphClass: 1
Flags: HW
PickledData: "(dp1
S'com.fontlab.hintData'
p2
(dp3
S'vhints'
p4
((dp5
S'position'
p6
I65
sS'width'
p7
I211
s(dp8
g6
I501
sg7
I237
s(dp9
g6
I1213
sg7
I64
s(dp10
g6
I1573
sg7
I210
stp11
sS'hhints'
p12
((dp13
g6
I-142
sg7
I193
s(dp14
g6
I234
sg7
I166
s(dp15
g6
I972
sg7
I171
s(dp16
g6
I1310
sg7
I193
stp17
ss."
HStem: -151 205<799 1164 799 1230> 248 176 1030 181<949 1072 876 1094> 1389 205<791 1161>
VStem: 69 224<526 910 526 961> 531 251<638 819 638 874> 1286 68<567 567> 1667 223<529 917>
LayerCount: 2
Fore
SplineSet
979 -151 m 0
 497 -151 69 216 69 722 c 0
 69 1200 478 1593 979 1593 c 0
 1468 1593 1890 1206 1890 722 c 0
 1890 243 1480 -151 979 -151 c 0
1667 722 m 0
 1667 1112 1342 1389 979 1389 c 0
 603 1389 293 1098 293 722 c 0
 293 330 619 54 979 54 c 0
 1348 54 1667 336 1667 722 c 0
1209 290 m 1
 1160 277 1078 245 980 248 c 1
 732 266 531 431 531 727 c 0
 531 1022 736 1212 1014 1212 c 0
 1128 1212 1234 1175 1319 1117 c 1
 1338 1049 1350 975 1354 893 c 1
 1332 892 1308 891 1286 891 c 1
 1253 949 1160 1030 1028 1030 c 0
 869 1030 782 910 782 727 c 0
 782 548 878 424 1029 424 c 0
 1173 424 1270 514 1286 567 c 1
 1354 567 l 1
 1339 436 1282 338 1209 290 c 1
EndSplineSet
EndChar

StartChar: ring
Encoding: 730 730 209
Width: 951
VWidth: 0
GlyphClass: 1
Flags: HW
PickledData: "(dp1
S'com.fontlab.hintData'
p2
(dp3
S'vhints'
p4
((dp5
S'position'
p6
I206
sS'width'
p7
I93
s(dp8
g6
I601
sg7
I92
stp9
sS'hhints'
p10
((dp11
g6
I1111
sg7
I74
s(dp12
g6
I1497
sg7
I74
stp13
ss."
HStem: 1178 78<431 523 431 549> 1587 78<432 523>
VStem: 218 99<1374 1467 1374 1491> 637 98<1375 1465>
LayerCount: 2
Fore
SplineSet
637 1420 m 0
 637 1509 569 1587 477 1587 c 0
 388 1587 317 1513 317 1420 c 0
 317 1327 385 1256 477 1256 c 0
 569 1256 637 1330 637 1420 c 0
735 1421 m 0
 735 1282 620 1178 477 1178 c 0
 333 1178 218 1285 218 1423 c 0
 218 1560 335 1665 477 1665 c 0
 620 1665 735 1560 735 1421 c 0
EndSplineSet
EndChar

StartChar: s
Encoding: 115 115 210
Width: 1136
VWidth: 0
GlyphClass: 1
Flags: HW
PickledData: "(dp1
S'com.fontlab.hintData'
p2
(dp3
S'hhints'
p4
((dp5
S'position'
p6
I-25
sS'width'
p7
I245
s(dp8
g6
I877
sg7
I246
stp9
ss."
HStem: -26 260<435 567 413 699> 930 261<577 699 444 711>
LayerCount: 2
Fore
SplineSet
708 323 m 0
 708 413 545 420 446 439 c 0
 212 484 65 590 65 807 c 0
 65 1026 277 1190 611 1190 c 0
 788 1190 926 1153 1030 1101 c 1
 986 808 l 1
 909 861 790 930 632 930 c 0
 522 930 453 890 453 834 c 0
 453 778 486 761 693 730 c 1
 963 687 1100 586 1100 366 c 0
 1100 136 878 -26 519 -26 c 0
 350 -26 180 16 67 80 c 1
 116 385 l 1
 169 339 302 233 524 233 c 0
 611 233 708 256 708 323 c 0
EndSplineSet
EndChar

StartChar: section
Encoding: 167 167 212
Width: 1323
VWidth: 0
GlyphClass: 1
Flags: HW
PickledData: "(dp1
S'com.fontlab.hintData'
p2
(dp3
S'vhints'
p4
((dp5
S'position'
p6
I87
sS'width'
p7
I362
s(dp8
g6
I129
sg7
I406
s(dp9
g6
I725
sg7
I411
s(dp10
g6
I817
sg7
I352
stp11
sS'hhints'
p12
((dp13
g6
I-401
sg7
I264
s(dp14
g6
I-42
sg7
I20
s(dp15
g6
I1221
sg7
I281
stp16
ss."
HStem: -425 280 -45 21 1294 298
VStem: 92 384<557 641> 137 430<1155 1236 1155 1315> 768 436 866 373
LayerCount: 2
Fore
SplineSet
602 793 m 1
 524 768 476 700 476 602 c 0
 476 512 555 426 730 394 c 1
 817 417 866 504 866 615 c 0
 866 692 749 762 602 793 c 1
707 1294 m 0
 632 1294 567 1265 567 1206 c 0
 567 1103 672 1103 917 1010 c 1
 1124 933 1239 823 1239 624 c 0
 1239 473 1177 366 1021 276 c 1
 1097 242 1204 141 1204 -15 c 0
 1204 -264 964 -425 619 -425 c 0
 484 -425 244 -379 172 -320 c 1
 172 -24 l 1
 201 -24 221 -24 251 -23 c 1
 293 -75 496 -145 619 -145 c 0
 714 -145 768 -98 768 -25 c 0
 768 74 667 96 520 151 c 0
 277 242 92 313 92 561 c 0
 92 722 156 827 317 916 c 1
 185 991 137 1085 137 1214 c 0
 137 1418 362 1592 705 1592 c 0
 852 1592 1050 1555 1141 1495 c 1
 1141 1199 l 1
 1123 1198 1114 1198 1096 1198 c 1
 1024 1233 831 1294 707 1294 c 0
EndSplineSet
EndChar

StartChar: semicolon
Encoding: 59 59 213
Width: 673
VWidth: 0
GlyphClass: 1
Flags: HW
PickledData: "(dp1
S'com.fontlab.hintData'
p2
(dp3
S'vhints'
p4
((dp5
S'position'
p6
I143
sS'width'
p7
I348
stp8
ss."
VStem: 152 369
LayerCount: 2
Fore
SplineSet
108 935 m 0
 108 1060 209 1161 334 1161 c 0
 459 1161 561 1060 561 935 c 0
 561 810 459 708 334 708 c 0
 209 708 108 810 108 935 c 0
563 381 m 1
 311 -265 l 1
 118 -265 l 1
 184 381 l 1
 563 381 l 1
EndSplineSet
EndChar

StartChar: seven
Encoding: 55 55 214
Width: 1319
VWidth: 0
GlyphClass: 1
Flags: HW
PickledData: "(dp1
S'com.fontlab.hintData'
p2
(dp3
S'hhints'
p4
((dp5
S'position'
p6
I0
sS'width'
p7
I21
s(dp8
g6
I1119
sg7
I360
s(dp9
g6
I1196
sg7
I283
stp10
ss."
HStem: 0 22<157 608 157 157> 1186 382<114 352 114 1247> 1268 300<352 814 352 352>
LayerCount: 2
Fore
SplineSet
1247 1264 m 1
 608 0 l 1
 157 0 l 1
 814 1268 l 1
 352 1268 l 1
 352 1186 l 1
 114 1186 l 1
 114 1568 l 1
 1247 1568 l 1
 1247 1264 l 1
EndSplineSet
EndChar

StartChar: six
Encoding: 54 54 215
Width: 1318
VWidth: 0
GlyphClass: 1
Flags: HW
PickledData: "(dp1
S'com.fontlab.hintData'
p2
(dp3
S'vhints'
p4
((dp5
S'position'
p6
I88
sS'width'
p7
I358
s(dp8
g6
I813
sg7
I371
stp9
sS'hhints'
p10
((dp11
g6
I-24
sg7
I257
s(dp12
g6
I696
sg7
I262
s(dp13
g6
I1220
sg7
I258
stp14
ss."
HStem: -25 272<598 748 598 850> 738 278<576 953> 1293 273<1047 1111>
VStem: 93 379<434 572 434 899> 862 393<430 596>
LayerCount: 2
Fore
SplineSet
1255 525 m 0
 1255 182 1025 -25 675 -25 c 0
 320 -25 93 197 93 590 c 0
 93 1207 418 1531 1047 1567 c 1
 1111 1293 l 1
 816 1265 622 1191 551 939 c 1
 625 982 717 1015 818 1015 c 0
 1087 1015 1255 849 1255 525 c 0
473 506 m 0
 473 362 533 247 664 247 c 0
 833 247 862 349 862 511 c 0
 862 681 781 738 672 738 c 0
 479 738 473 640 473 506 c 0
EndSplineSet
EndChar

StartChar: slash
Encoding: 47 47 216
Width: 1193
VWidth: 0
GlyphClass: 1
Flags: HW
PickledData: "(dp1
S'com.fontlab.hintData'
p2
(dp3
S'vhints'
p4
((dp5
S'position'
p6
I131
sS'width'
p7
I285
s(dp8
g6
I673
sg7
I287
stp9
sS'hhints'
p10
((dp11
g6
I1507
sg7
I20
stp12
ss."
HStem: 1597 21<713 1018 1018 1018>
VStem: 139 302<-231 -231> 713 304<1619 1619>
LayerCount: 2
Fore
SplineSet
1018 1619 m 1
 441 -231 l 1
 139 -231 l 1
 713 1619 l 1
 1018 1619 l 1
EndSplineSet
EndChar

StartChar: sterling
Encoding: 163 163 218
Width: 1319
VWidth: 0
GlyphClass: 1
Flags: HW
PickledData: "(dp1
S'com.fontlab.hintData'
p2
(dp3
S'vhints'
p4
((dp5
S'position'
p6
I242
sS'width'
p7
I358
s(dp8
g6
I296
sg7
I351
stp9
sS'hhints'
p10
((dp11
g6
I-4
sg7
I279
s(dp12
g6
I11
sg7
I275
s(dp13
g6
I604
sg7
I205
s(dp14
g6
I1208
sg7
I294
stp15
ss."
HStem: -4 296<854 951 854 960> 12 292 640 217<124 283 124 302 124 283 685 1050 685 685> 1280 312
VStem: 257 379 314 372
LayerCount: 2
Fore
SplineSet
778 1591 m 0
 936 1591 1098 1542 1159 1483 c 1
 1176 1162 l 1
 1102 1151 l 1
 1041 1219 933 1280 828 1280 c 0
 731 1280 636 1204 636 1091 c 0
 636 1013 649 927 664 858 c 1
 1050 858 l 1
 1050 640 l 1
 685 640 l 1
 686 629 686 618 686 607 c 0
 686 501 644 391 603 303 c 1
 695 301 807 292 902 292 c 0
 1000 292 1105 299 1204 318 c 1
 1255 35 l 1
 1141 4 1016 -4 904 -4 c 0
 738 -4 512 12 340 12 c 0
 268 12 191 7 114 -4 c 1
 114 279 l 1
 183 285 238 290 279 298 c 1
 304 361 314 423 314 492 c 0
 314 538 309 586 302 640 c 1
 124 640 l 1
 124 858 l 1
 283 858 l 1
 266 939 257 1014 257 1085 c 0
 257 1390 421 1591 778 1591 c 0
EndSplineSet
EndChar

StartChar: summation
Encoding: 8721 8721 219
Width: 1331
VWidth: 0
GlyphClass: 1
Flags: HW
PickledData: "(dp1
S'com.fontlab.hintData'
p2
(dp3
S'hhints'
p4
((dp5
S'position'
p6
I-371
sS'width'
p7
I239
s(dp8
g6
I1201
sg7
I232
stp9
ss."
HStem: -393 253<470 1284 470 1284> 1273 246<507 1249 507 507>
LayerCount: 2
Fore
SplineSet
1284 -393 m 1
 55 -393 l 1
 55 -219 l 1
 665 570 l 1
 80 1337 l 1
 80 1519 l 1
 1249 1519 l 1
 1249 1273 l 1
 507 1273 l 1
 682 1049 848 817 1019 589 c 1
 470 -138 l 1
 470 -140 l 1
 1284 -140 l 1
 1284 -393 l 1
EndSplineSet
EndChar

StartChar: t
Encoding: 116 116 220
Width: 934
VWidth: 0
GlyphClass: 1
Flags: HW
PickledData: "(dp1
S'com.fontlab.hintData'
p2
(dp3
S'vhints'
p4
((dp5
S'position'
p6
I148
sS'width'
p7
I360
stp8
sS'hhints'
p9
((dp10
g6
I-14
sg7
I258
s(dp11
g6
I862
sg7
I236
stp12
ss."
HStem: -15 273<417 718> 914 250<19 157 19 157 538 827>
VStem: 157 382<370 405 405 914 1164 1451 1451 1451>
LayerCount: 2
Fore
SplineSet
157 370 m 2
 157 914 l 1
 19 914 l 1
 19 1164 l 1
 157 1164 l 1
 157 1451 l 1
 538 1529 l 1
 538 1164 l 1
 827 1164 l 1
 827 914 l 1
 538 914 l 1
 538 405 l 2
 538 287 610 259 696 259 c 0
 738 259 785 265 827 272 c 1
 827 6 l 1
 752 -9 682 -15 558 -15 c 0
 277 -15 157 103 157 370 c 2
EndSplineSet
EndChar

StartChar: thorn
Encoding: 254 254 221
Width: 1126
VWidth: 0
GlyphClass: 1
Flags: HW
PickledData: "(dp1
S'com.fontlab.hintData'
p2
(dp3
S'vhints'
p4
((dp5
S'position'
p6
I135
sS'width'
p7
I209
s(dp8
g6
I757
sg7
I209
stp9
sS'hhints'
p10
((dp11
g6
I-420
sg7
I21
s(dp12
g6
I-12
sg7
I209
s(dp13
g6
I842
sg7
I209
stp14
ss."
HStem: -445 22<143 143 143 365> -13 222<594 687 480 717> 893 222<594 687>
VStem: 143 222<-445 118 470 630 986 1545> 802 222<464 635>
LayerCount: 2
Fore
SplineSet
583 209 m 0
 791 209 802 379 802 549 c 0
 802 721 791 893 583 893 c 0
 376 893 365 710 365 549 c 0
 365 391 376 209 583 209 c 0
143 -445 m 1
 143 1545 l 1
 365 1545 l 1
 365 986 l 1
 435 1061 538 1114 650 1114 c 0
 785 1114 882 1053 946 970 c 0
 1006 893 1024 820 1024 549 c 0
 1024 280 1006 208 946 130 c 0
 882 47 785 -13 650 -13 c 0
 538 -13 448 40 365 118 c 1
 365 -445 l 1
 143 -445 l 1
EndSplineSet
EndChar

StartChar: three
Encoding: 51 51 222
Width: 1320
VWidth: 0
GlyphClass: 1
Flags: HW
PickledData: "(dp1
S'com.fontlab.hintData'
p2
(dp3
S'vhints'
p4
((dp5
S'position'
p6
I796
sS'width'
p7
I379
stp8
sS'hhints'
p9
((dp10
g6
I-24
sg7
I290
s(dp11
g6
I663
sg7
I229
s(dp12
g6
I1214
sg7
I289
stp13
ss."
HStem: -25 307 703 243<427 493 493 576 427 493> 1287 306<519 598>
VStem: 844 402<414 576 329 578>
LayerCount: 2
Fore
SplineSet
1246 477 m 0
 1246 180 1014 -25 607 -25 c 0
 367 -25 220 28 114 103 c 1
 114 435 l 1
 175 435 l 1
 256 355 374 287 526 282 c 1
 666 279 844 316 844 512 c 0
 844 644 766 703 576 703 c 2
 427 703 l 1
 427 946 l 1
 493 946 l 2
 671 946 792 976 792 1124 c 0
 792 1253 643 1287 553 1287 c 0
 419 1287 287 1222 193 1131 c 1
 114 1131 l 1
 114 1455 l 1
 214 1526 426 1593 612 1593 c 0
 987 1593 1174 1439 1189 1212 c 0
 1203 988 1088 880 951 819 c 1
 1088 777 1246 675 1246 477 c 0
EndSplineSet
EndChar

StartChar: three.superior
Encoding: 179 179 223
Width: 677
VWidth: 0
GlyphClass: 1
Flags: HW
PickledData: "(dp1
S'com.fontlab.hintData'
p2
(dp3
S'vhints'
p4
((dp5
S'position'
p6
I16
sS'width'
p7
I172
s(dp8
g6
I458
sg7
I172
stp9
sS'hhints'
p10
((dp11
g6
I580
sg7
I147
s(dp12
g6
I973
sg7
I135
s(dp13
g6
I1323
sg7
I147
stp14
ss."
HStem: 615 156<303 382 303 431> 1031 143<247 317 247 317 317 328> 1402 156<312 381>
VStem: 17 182<1291 1291> 485 182<857 937>
LayerCount: 2
Fore
SplineSet
247 1031 m 1
 247 1174 l 1
 317 1174 l 2
 412 1174 473 1220 473 1293 c 0
 473 1352 417 1402 346 1402 c 0
 278 1402 217 1365 199 1291 c 1
 17 1291 l 1
 29 1446 151 1558 325 1558 c 0
 538 1558 656 1429 656 1295 c 0
 656 1225 633 1155 546 1105 c 1
 635 1055 668 976 668 900 c 0
 668 727 532 615 330 615 c 0
 161 615 40 699 11 876 c 1
 193 876 l 1
 215 813 265 771 341 771 c 0
 423 771 485 819 485 896 c 0
 485 978 415 1031 328 1031 c 2
 247 1031 l 1
EndSplineSet
EndChar

StartChar: threequarters
Encoding: 190 190 224
Width: 1566
VWidth: 0
GlyphClass: 1
Flags: HW
PickledData: "(dp1
S'com.fontlab.hintData'
p2
(dp3
S'vhints'
p4
((dp5
S'position'
p6
I16
sS'width'
p7
I172
s(dp8
g6
I260
sg7
I135
s(dp9
g6
I457
sg7
I172
s(dp10
g6
I1144
sg7
I135
s(dp11
g6
I1172
sg7
I172
stp12
sS'hhints'
p13
((dp14
g6
I0
sg7
I21
s(dp15
g6
I127
sg7
I147
s(dp16
g6
I581
sg7
I147
s(dp17
g6
I973
sg7
I135
s(dp18
g6
I1323
sg7
I147
s(dp19
g6
I1473
sg7
I20
stp20
ss."
HStem: 0 22<1242 1425 1242 1242> 135 156<817 817 1006 1242 1425 1497> 616 156<303 382 303 431> 1031 143<247 317 247 317 317 328> 1402 156<312 381> 1561 21<1213 1356 1356 1356>
VStem: 17 182<1291 1291> 276 143<-37 -37> 484 182<859 937> 1213 143<1583 1583> 1242 182<0 135 0 135 290 531>
LayerCount: 2
Fore
SplineSet
247 1031 m 1
 247 1174 l 1
 317 1174 l 2
 412 1174 473 1220 473 1293 c 0
 473 1353 417 1402 346 1402 c 0
 278 1402 217 1365 199 1291 c 1
 17 1291 l 1
 29 1446 151 1558 325 1558 c 0
 538 1558 655 1429 655 1295 c 0
 655 1225 632 1155 545 1105 c 1
 634 1055 667 977 667 901 c 0
 667 729 532 616 330 616 c 0
 161 616 40 701 11 877 c 1
 193 877 l 1
 215 814 265 772 341 772 c 0
 423 772 484 821 484 897 c 0
 484 978 415 1031 328 1031 c 2
 247 1031 l 1
817 135 m 1
 817 290 l 1
 1153 924 l 1
 1337 924 l 1
 1006 290 l 1
 1242 290 l 1
 1242 531 l 1
 1425 531 l 1
 1425 290 l 1
 1497 290 l 1
 1497 135 l 1
 1425 135 l 1
 1425 0 l 1
 1242 0 l 1
 1242 135 l 1
 817 135 l 1
276 -37 m 1
 1213 1583 l 1
 1356 1583 l 1
 419 -37 l 1
 276 -37 l 1
EndSplineSet
EndChar

StartChar: tilde
Encoding: 732 732 225
Width: 947
VWidth: 0
GlyphClass: 1
Flags: HW
PickledData: "(dp1
S'com.fontlab.hintData'
p2
(dp3
S'vhints'
p4
((dp5
S'position'
p6
I676
sS'width'
p7
I211
stp8
sS'hhints'
p9
((dp10
g6
I1256
sg7
I200
stp11
ss."
HStem: 1331 212<607 650 607 730>
VStem: 717 224<1645 1645>
LayerCount: 2
Fore
SplineSet
940 1645 m 1
 923 1440 824 1331 636 1331 c 0
 537 1331 463 1387 386 1407 c 1
 358 1419 328 1423 299 1412 c 1
 247 1408 235 1377 232 1322 c 1
 10 1322 l 1
 22 1504 136 1636 316 1636 c 0
 387 1636 447 1601 506 1580 c 0
 543 1567 594 1543 620 1543 c 0
 680 1543 710 1573 717 1645 c 1
 940 1645 l 1
EndSplineSet
EndChar

StartChar: trademark
Encoding: 8482 8482 226
Width: 1983
VWidth: 0
GlyphClass: 1
Flags: HW
PickledData: "(dp1
S'com.fontlab.hintData'
p2
(dp3
S'vhints'
p4
((dp5
S'position'
p6
I285
sS'width'
p7
I202
s(dp8
g6
I824
sg7
I190
s(dp9
g6
I1583
sg7
I190
stp10
sS'hhints'
p11
((dp12
g6
I723
sg7
I756
s(dp13
g6
I1314
sg7
I165
stp14
ss."
HStem: 766 801<302 516 302 302 873 1075 69 873 1678 1879 1678 1678> 1393 175<69 302 69 749 516 749 516 516>
VStem: 302 214<766 1393 766 1393> 873 201<766 1386 766 1568 766 1568> 1678 201<766 1381 1381 1381>
LayerCount: 2
Fore
SplineSet
1879 766 m 1
 1678 766 l 1
 1678 1381 l 1
 1662 1381 l 1
 1451 880 l 1
 1308 880 l 1
 1095 1386 l 1
 1075 1386 l 1
 1075 766 l 1
 873 766 l 1
 873 1568 l 1
 1204 1568 l 1
 1381 1109 l 1
 1564 1568 l 1
 1879 1568 l 1
 1879 766 l 1
749 1393 m 1
 516 1393 l 1
 516 766 l 1
 302 766 l 1
 302 1393 l 1
 69 1393 l 1
 69 1568 l 1
 749 1568 l 1
 749 1393 l 1
EndSplineSet
EndChar

StartChar: two
Encoding: 50 50 227
Width: 1319
VWidth: 0
GlyphClass: 1
Flags: HW
PickledData: "(dp1
S'com.fontlab.hintData'
p2
(dp3
S'vhints'
p4
((dp5
S'position'
p6
I768
sS'width'
p7
I382
stp8
sS'hhints'
p9
((dp10
g6
I0
sg7
I284
s(dp11
g6
I1101
sg7
I21
s(dp12
g6
I1199
sg7
I303
stp13
ss."
HStem: 0 301<650 1269 650 1269> 1167 22<238 238> 1271 321<561 663>
VStem: 814 405<1070 1147>
LayerCount: 2
Fore
SplineSet
1269 0 m 1
 132 0 l 1
 132 249 l 1
 327 415 488 563 610 704 c 0
 712 823 814 961 814 1071 c 0
 814 1224 719 1271 606 1271 c 0
 466 1271 296 1199 238 1167 c 1
 158 1450 l 1
 238 1520 472 1592 651 1592 c 0
 1017 1592 1219 1406 1219 1116 c 0
 1219 1024 1190 921 1125 820 c 0
 1008 639 860 464 650 301 c 1
 1269 301 l 1
 1269 0 l 1
EndSplineSet
EndChar

StartChar: two.superior
Encoding: 178 178 228
Width: 677
VWidth: 0
GlyphClass: 1
Flags: HW
PickledData: "(dp1
S'com.fontlab.hintData'
p2
(dp3
S'vhints'
p4
((dp5
S'position'
p6
I37
sS'width'
p7
I172
s(dp8
g6
I436
sg7
I172
stp9
sS'hhints'
p10
((dp11
g6
I588
sg7
I147
s(dp12
g6
I1323
sg7
I147
stp13
ss."
HStem: 623 156<33 33 254 644> 1402 156<306 380>
VStem: 39 182<1268 1355> 462 182<1271 1324>
LayerCount: 2
Fore
SplineSet
33 623 m 1
 33 779 l 1
 414 1187 l 2
 445 1220 462 1251 462 1292 c 0
 462 1357 416 1402 343 1402 c 0
 269 1402 228 1351 222 1268 c 1
 39 1268 l 1
 39 1442 167 1558 336 1558 c 0
 518 1558 644 1439 644 1292 c 0
 644 1231 630 1176 576 1118 c 2
 254 779 l 1
 644 779 l 1
 644 623 l 1
 33 623 l 1
EndSplineSet
EndChar

StartChar: u
Encoding: 117 117 229
Width: 1371
VWidth: 0
GlyphClass: 1
Flags: HW
PickledData: "(dp1
S'com.fontlab.hintData'
p2
(dp3
S'vhints'
p4
((dp5
S'position'
p6
I119
sS'width'
p7
I362
s(dp8
g6
I810
sg7
I359
stp9
sS'hhints'
p10
((dp11
g6
I0
sg7
I21
s(dp12
g6
I1078
sg7
I20
stp13
ss."
HStem: 0 22<859 1239 859 859> 1143 21<126 510 510 510 859 1239 1239 1239>
VStem: 126 384<482 578 578 1164> 859 381<0 170 170 170 358 1164 0 1164>
LayerCount: 2
Fore
SplineSet
126 1164 m 1
 510 1164 l 1
 510 578 l 2
 510 386 537 287 693 287 c 0
 757 287 813 309 859 358 c 1
 859 1164 l 1
 1239 1164 l 1
 1239 0 l 1
 859 0 l 1
 859 170 l 1
 856 170 l 1
 783 43 647 -25 507 -25 c 0
 319 -25 126 107 126 384 c 2
 126 1164 l 1
EndSplineSet
EndChar

StartChar: underscore
Encoding: 95 95 234
Width: 1345
VWidth: 0
GlyphClass: 1
Flags: HW
PickledData: "(dp1
S'com.fontlab.hintData'
p2
(dp3
S'hhints'
p4
((dp5
S'position'
p6
I-325
sS'width'
p7
I188
stp8
ss."
HStem: -344 199<-15 1360 -15 1360>
LayerCount: 2
Fore
SplineSet
1360 -344 m 1
 -15 -344 l 1
 -15 -145 l 1
 1360 -145 l 1
 1360 -344 l 1
EndSplineSet
EndChar

StartChar: uni00AD
Encoding: 173 173 236
Width: 884
VWidth: 0
GlyphClass: 1
Flags: HW
PickledData: "(dp1
S'com.fontlab.hintData'
p2
(dp3
S'vhints'
p4
((dp5
S'position'
p6
I109
sS'width'
p7
I616
stp8
sS'hhints'
p9
((dp10
g6
I463
sg7
I209
stp11
ss."
HStem: 491 222<116 768 116 768>
VStem: 116 653<491 712 491 712>
LayerCount: 2
Fore
SplineSet
116 491 m 1
 116 712 l 1
 768 712 l 1
 768 491 l 1
 116 491 l 1
EndSplineSet
EndChar

StartChar: uni02C9
Encoding: 713 713 237
Width: 521
VWidth: 0
GlyphClass: 1
Flags: HW
PickledData: "(dp1
S'com.fontlab.hintData'
p2
(dp3
S'vhints'
p4
((dp5
S'position'
p6
I-49
sS'width'
p7
I590
stp8
sS'hhints'
p9
((dp10
g6
I1243
sg7
I135
stp11
ss."
HStem: 1318 143<-52 573 -52 573>
VStem: -52 625<1318 1461 1318 1461>
LayerCount: 2
Fore
SplineSet
-52 1318 m 1
 -52 1461 l 1
 573 1461 l 1
 573 1318 l 1
 -52 1318 l 1
EndSplineSet
EndChar

StartChar: uni03A9
Encoding: 937 937 238
Width: 1316
VWidth: 0
GlyphClass: 1
Flags: HW
PickledData: "(dp1
S'com.fontlab.hintData'
p2
(dp3
S'vhints'
p4
((dp5
S'position'
p6
I96
sS'width'
p7
I203
s(dp8
g6
I939
sg7
I203
stp9
sS'hhints'
p10
((dp11
g6
I0
sg7
I170
s(dp12
g6
I1274
sg7
I178
stp13
ss."
HStem: 0 180<76 336 76 550 76 336 974 1236> 1350 189<555 774>
VStem: 102 215<691 951 631 1034> 995 215<703 936>
LayerCount: 2
Fore
SplineSet
336 180 m 1
 336 187 l 1
 215 326 102 549 102 833 c 0
 102 1235 335 1539 666 1539 c 0
 1020 1539 1211 1187 1211 849 c 0
 1211 557 1091 317 974 187 c 1
 974 180 l 1
 1236 180 l 1
 1236 0 l 1
 763 0 l 1
 763 132 l 1
 882 227 995 456 995 799 c 0
 995 1072 887 1350 661 1350 c 0
 448 1350 317 1112 317 790 c 0
 317 473 433 225 550 132 c 1
 550 0 l 1
 76 0 l 1
 76 180 l 1
 336 180 l 1
EndSplineSet
EndChar

StartChar: uni03BC
Encoding: 956 956 239
Width: 1166
VWidth: 0
GlyphClass: 1
Flags: HW
PickledData: "(dp1
S'com.fontlab.hintData'
p2
(dp3
S'vhints'
p4
((dp5
S'position'
p6
I135
sS'width'
p7
I209
s(dp8
g6
I757
sg7
I209
stp9
sS'hhints'
p10
((dp11
g6
I-420
sg7
I21
s(dp12
g6
I-12
sg7
I209
stp13
ss."
HStem: -445 22<143 143 143 365> -13 222<522 571>
VStem: 143 222<-445 19 372 446 446 1102> 802 222<0 118 118 118 446 1102 0 1102>
LayerCount: 2
Fore
SplineSet
143 -445 m 1
 143 1102 l 1
 365 1102 l 1
 365 446 l 2
 365 297 459 209 585 209 c 0
 709 209 802 297 802 446 c 2
 802 1102 l 1
 1024 1102 l 1
 1024 0 l 1
 802 0 l 1
 802 118 l 1
 798 118 l 1
 728 31 629 -13 513 -13 c 0
 463 -13 413 -2 365 19 c 1
 365 -445 l 1
 143 -445 l 1
EndSplineSet
EndChar

StartChar: uni2215
Encoding: 8725 8725 240
Width: 363
VWidth: 0
GlyphClass: 1
Flags: HW
PickledData: "(dp1
S'com.fontlab.hintData'
p2
(dp3
S'vhints'
p4
((dp5
S'position'
p6
I-338
sS'width'
p7
I135
s(dp8
g6
I546
sg7
I135
stp9
sS'hhints'
p10
((dp11
g6
I1473
sg7
I20
stp12
ss."
HStem: 1561 21<579 722 722 722>
VStem: -358 143<-37 -37> 579 143<1583 1583>
LayerCount: 2
Fore
SplineSet
-358 -37 m 1
 579 1583 l 1
 722 1583 l 1
 -215 -37 l 1
 -358 -37 l 1
EndSplineSet
EndChar

StartChar: uni2219
Encoding: 8729 8729 241
Width: 521
VWidth: 0
GlyphClass: 1
Flags: HW
PickledData: "(dp1
S'com.fontlab.hintData'
p2
(dp3
S'vhints'
p4
((dp5
S'position'
p6
I109
sS'width'
p7
I274
stp8
sS'hhints'
p9
((dp10
g6
I461
sg7
I274
stp11
ss."
HStem: 489 290<220 301>
VStem: 116 290<594 674>
LayerCount: 2
Fore
SplineSet
116 634 m 0
 116 715 180 779 261 779 c 0
 342 779 406 715 406 634 c 0
 406 553 342 489 261 489 c 0
 180 489 116 553 116 634 c 0
EndSplineSet
EndChar

StartChar: v
Encoding: 118 118 242
Width: 1196
VWidth: 0
GlyphClass: 1
Flags: HW
PickledData: "(dp1
S'com.fontlab.hintData'
p2
(dp3
S'hhints'
p4
((dp5
S'position'
p6
I0
sS'width'
p7
I21
s(dp8
g6
I1078
sg7
I20
stp9
ss."
HStem: 0 22<398 797 398 398> 1143 21<-23 377 377 377 826 1220 1220 1220>
LayerCount: 2
Fore
SplineSet
1220 1164 m 1
 797 0 l 1
 398 0 l 1
 -23 1164 l 1
 377 1164 l 1
 438 966 496 772 556 575 c 2
 602 424 l 1
 604 424 l 1
 680 668 752 917 826 1164 c 1
 1220 1164 l 1
EndSplineSet
EndChar

StartChar: w
Encoding: 119 119 243
Width: 1930
VWidth: 0
GlyphClass: 1
Flags: HW
PickledData: "(dp1
S'com.fontlab.hintData'
p2
(dp3
S'hhints'
p4
((dp5
S'position'
p6
I0
sS'width'
p7
I21
s(dp8
g6
I1078
sg7
I20
stp9
ss."
HStem: 0 22<364 763 364 364 1164 1564 1164 1164> 1143 21<8 411 411 411 811 1139 1139 1139 1526 1922 1922 1922>
LayerCount: 2
Fore
SplineSet
1922 1164 m 1
 1564 0 l 1
 1164 0 l 1
 966 773 l 1
 964 773 l 1
 763 0 l 1
 364 0 l 1
 8 1164 l 1
 411 1164 l 1
 517 679 l 2
 531 612 545 547 559 481 c 2
 580 384 l 1
 581 384 l 1
 609 483 l 1
 670 711 741 938 811 1164 c 1
 1139 1164 l 1
 1276 670 l 1
 1291 606 1333 439 1351 392 c 1
 1359 433 1369 476 1380 516 c 1
 1526 1164 l 1
 1922 1164 l 1
EndSplineSet
EndChar

StartChar: x
Encoding: 120 120 244
Width: 1280
VWidth: 0
GlyphClass: 1
Flags: HW
PickledData: "(dp1
S'com.fontlab.hintData'
p2
(dp3
S'hhints'
p4
((dp5
S'position'
p6
I0
sS'width'
p7
I21
s(dp8
g6
I1078
sg7
I20
stp9
ss."
HStem: 0 22<-14 427 -14 -14 850 1294 850 850> 1143 21<-3 442 442 442 841 1284 1284 1284>
LayerCount: 2
Fore
SplineSet
1294 0 m 1
 850 0 l 1
 801 74 755 147 707 220 c 2
 641 321 l 1
 612 278 584 233 555 190 c 0
 512 126 469 64 427 0 c 1
 -14 0 l 1
 416 586 l 1
 -3 1164 l 1
 442 1164 l 1
 573 955 l 2
 594 921 619 885 640 850 c 1
 703 948 l 2
 749 1020 795 1092 841 1164 c 1
 1284 1164 l 1
 868 593 l 1
 1294 0 l 1
EndSplineSet
EndChar

StartChar: y
Encoding: 121 121 245
Width: 1190
VWidth: 0
GlyphClass: 1
Flags: HW
PickledData: "(dp1
S'com.fontlab.hintData'
p2
(dp3
S'vhints'
p4
((dp5
S'position'
p6
I-25
sS'width'
p7
I377
stp8
sS'hhints'
p9
((dp10
g6
I-416
sg7
I21
s(dp11
g6
I1078
sg7
I20
stp12
ss."
HStem: -441 22<202 202 202 602> 1143 21<-26 373 373 373 824 1217 1217 1217>
VStem: -26 400<1164 1164>
LayerCount: 2
Fore
SplineSet
202 -441 m 1
 272 -305 338 -154 402 28 c 1
 -26 1164 l 1
 373 1164 l 1
 605 446 l 1
 824 1164 l 1
 1217 1164 l 1
 749 -116 l 2
 695 -263 603 -442 602 -441 c 1
 202 -441 l 1
EndSplineSet
EndChar

StartChar: yen
Encoding: 165 165 248
Width: 1319
VWidth: 0
GlyphClass: 1
Flags: HW
PickledData: "(dp1
S'com.fontlab.hintData'
p2
(dp3
S'vhints'
p4
((dp5
S'position'
p6
I441
sS'width'
p7
I362
stp8
sS'hhints'
p9
((dp10
g6
I0
sg7
I21
s(dp11
g6
I445
sg7
I205
s(dp12
g6
I1459
sg7
I20
stp13
ss."
HStem: 0 22 472 217 1547 21
VStem: 467 384
LayerCount: 2
Fore
SplineSet
119 986 m 1
 1305 986 l 1
 1305 768 l 1
 119 768 l 1
 119 986 l 1
119 636 m 1
 1305 636 l 1
 1305 419 l 1
 119 419 l 1
 119 636 l 1
EndSplineSet
Refer: 59 89 N 1 0 0 1 0 0 2
EndChar

StartChar: z
Encoding: 122 122 249
Width: 1126
VWidth: 0
GlyphClass: 1
Flags: HW
PickledData: "(dp1
S'com.fontlab.hintData'
p2
(dp3
S'hhints'
p4
((dp5
S'position'
p6
I0
sS'width'
p7
I272
s(dp8
g6
I835
sg7
I263
stp9
ss."
HStem: 0 288<518 1079 518 1079> 885 279<78 601 78 1072>
LayerCount: 2
Fore
SplineSet
1079 0 m 1
 49 0 l 1
 49 248 l 1
 601 885 l 1
 78 885 l 1
 78 1164 l 1
 1072 1164 l 1
 1072 919 l 1
 518 288 l 1
 1079 288 l 1
 1079 0 l 1
EndSplineSet
EndChar

StartChar: zero
Encoding: 48 48 251
Width: 1528
VWidth: 0
GlyphClass: 1
Flags: HW
PickledData: "(dp1
S'com.fontlab.hintData'
p2
(dp3
S'vhints'
p4
((dp5
S'position'
p6
I146
sS'width'
p7
I380
s(dp8
g6
I918
sg7
I380
stp9
sS'hhints'
p10
((dp11
g6
I-24
sg7
I250
s(dp12
g6
I1222
sg7
I280
stp13
ss."
HStem: -25 265<675 858 675 932> 1295 297<678 854>
VStem: 155 403<756 880> 973 403<687 811 687 956>
LayerCount: 2
Fore
SplineSet
766 -25 m 0
 432 -25 226 135 178 435 c 1
 161 555 155 686 155 826 c 0
 155 935 162 1037 178 1129 c 0
 226 1425 430 1592 766 1592 c 0
 1101 1592 1305 1425 1353 1129 c 1
 1369 1009 1376 880 1376 743 c 0
 1376 631 1369 527 1353 435 c 0
 1304 135 1098 -25 766 -25 c 0
766 240 m 0
 948 240 973 432 973 785 c 0
 973 1125 942 1295 766 1295 c 0
 589 1295 558 1125 558 785 c 0
 558 432 583 240 766 240 c 0
EndSplineSet
EndChar
